<?xml version="1.0" encoding="UTF-8"?>
<svg version="1.1" viewBox="219 181 816 861" width="816" height="861" xmlns="http://www.w3.org/2000/svg">
<path transform="translate(882,181)" d="m0 0h19l22 2 25 5 20 7 15 8 14 10 11 10 10 13 7 12 5 13 4 17 1 6v37l-8 58-13 87-13 93-13 108-7 70-5 65v38l7 8 10 11 8 13 6 16 2 8 1 10v13l-4 20-7 16-8 12-9 10-8 8-15 11-14 8-20 9-33 11-32 7-22 3-11 1h-41l-23-3-20-5-19-7-17-9-13-9-11-9-9-9-11-14-11-19-8-20-5-19-2-11-1-11v-22l5-43 9-65 6-43-23 5-55 11-3 1-10 65-6 48-1 17 8 10 8 16 5 16 1 6v25l-4 16-5 12-7 11-9 11-7 7-15 11-14 8-26 11-26 8-29 6-20 3-12 1h-46l-18-2-25-6-16-6-21-11-12-9-12-11-8-9-12-18-8-18-5-16-3-15-1-9v-29l4-31 7-45 18-114 14-94 15-107 10-74 3-23-9-2-16-8-10-8-5-5-7-8-8-15-4-14-1-6v-22l4-16 5-11 6-11 8-10 9-10 11-9 14-10 16-9 19-9 25-9 28-8 34-7 28-4 22-2h38l26 3 23 5 17 6 21 11 12 9 10 9 11 14 8 15 6 18 3 17v26l-4 28-14 88-4 24 65-13 33-7h3l1-11 11-69v-8l-9-13-6-14-3-16v-13l3-16 5-12 6-11 9-11 11-11 16-12 16-9 19-9 27-9 21-5 19-3z" fill="#FDD169"/>
<path transform="translate(882,181)" d="m0 0h19l22 2 25 5 20 7 15 8 14 10 11 10 10 13 7 12 5 13 4 17 1 6v37l-8 58-13 87-13 93-13 108-7 70-5 65v38l7 8 10 11 8 13 6 16 2 8 1 10v13l-4 20-7 16-8 12-9 10-8 8-15 11-14 8-20 9-33 11-32 7-22 3-11 1h-41l-23-3-20-5-19-7-17-9-13-9-11-9-9-9-11-14-11-19-8-20-5-19-2-11-1-11v-22l5-43 9-65 6-43-23 5-55 11-3 1-10 65-6 48-1 17 8 10 8 16 5 16 1 6v25l-4 16-5 12-7 11-9 11-7 7-15 11-14 8-26 11-26 8-29 6-20 3-12 1h-46l-18-2-25-6-16-6-21-11-12-9-12-11-8-9-12-18-8-18-5-16-3-15-1-9v-29l4-31 7-45 18-114 14-94 15-107 10-74 3-23-9-2-16-8-10-8-5-5-7-8-8-15-4-14-1-6v-22l4-16 5-11 6-11 8-10 9-10 11-9 14-10 16-9 19-9 25-9 28-8 34-7 28-4 22-2h38l26 3 23 5 17 6 21 11 12 9 10 9 11 14 8 15 6 18 3 17v26l-4 28-14 88-4 24 65-13 33-7h3l1-11 11-69v-8l-9-13-6-14-3-16v-13l3-16 5-12 6-11 9-11 11-11 16-12 16-9 19-9 27-9 21-5 19-3zm-7 47-24 3-25 6-19 7-17 8-13 9-10 9-7 8-4 8-1 4v14l5 10 8 8 4 3h2l1 4v12l-9 57-13 77-123 25-74 15 7-48 8-55 15-97v-25l-4-15-5-10-8-10-11-9-16-8-16-5-16-3-9-1h-42l-28 3-33 6-24 6-27 9-18 8-17 9-12 9-10 9-9 12-4 12v11l4 11 8 9 14 7 21 4 8 4 4 5 2 6v21l-6 48-18 131-15 104-18 115-13 82-2 20v13l2 16 5 17 9 17 12 14 10 8 14 8 15 6 25 5 12 1h20l24-2 25-4 24-6 20-7 16-8 10-6 11-9 8-10 4-10 1-13-4-13-7-9-6-7-4-10-1-5v-28l5-42 9-61 8-51v-3l9-1 162-32 9-2-3 17-20 144-5 39-1 11v21l3 19 5 16 10 19 11 13 10 9 14 9 19 8 17 4 15 2h37l25-3 23-5 20-6 21-8 17-9 12-9 6-5 9-12 4-11 1-9-2-10-5-10-11-11-6-5-5-8-4-14-1-7v-43l4-56 7-73 8-71 9-69 13-90 20-130v-24l-4-16-6-11-9-10-8-7-17-9-16-5-19-3z" fill="#462105"/>
<path transform="translate(875,228)" d="m0 0h36l19 3 16 5 17 9 12 11 7 9 5 11 3 13v24l-22 143-13 91-10 80-8 75-6 69-2 31v43l3 15 4 9 6 8 10 9 6 7 4 10 1 10-3 13-7 11-5 6-14 11-18 10-20 8-19 6-22 5-20 3-10 1h-37l-20-3-15-4-18-8-13-9-13-12-10-14-8-17-4-13-3-19v-21l4-35 13-94 11-79 1-3-34 7-111 22-31 6h-4l-3 22-12 78-6 47-1 10v28l4 13 4 6 8 9 4 8 2 8-1 13-4 10-9 11-14 11-17 9-25 9-24 6-25 4-24 2h-20l-19-2-21-5-16-7-14-9-10-9-10-13-8-17-5-19-1-11v-13l3-26 16-101 18-117 17-120 16-118 2-18v-21l-3-8-6-5-9-3-17-3-14-7-8-9-4-11v-11l4-12 9-12 7-7 15-11 25-13 24-9 28-8 24-5 26-4 20-2h42l21 3 18 5 16 8 11 8 8 9 5 8 5 15 1 5v25l-19 123-10 72-1 5 197-40 19-114 3-20v-12l-1-4-4-2-8-7-6-9-1-3v-14l4-10 6-8 9-9 10-7 14-8 19-8 24-7 24-4zm0 35-21 3-23 6-15 6-13 7-9 7-1 5 8 6 6 9 2 8v19l-7 47-16 96-3 10-6 9-9 5-23 5-117 24-82 16-12 1-7-3-5-5-2-4v-15l14-96 13-81 5-33v-18l-3-10-9-10-10-6-13-4-18-3h-40l-33 4-33 7-24 7-20 8-19 10-13 10-3 3 1 4 23 5 14 7 10 9 7 14 2 8v29l-10 78-18 127-22 147-18 116-3 25v20l3 15 8 16 9 10 10 7 14 6 14 3 7 1h33l24-3 27-6 22-8 17-9 7-6 1-6-10-13-6-13-3-12-1-7v-26l4-37 10-70 10-64 3-9 6-7 8-4 104-21 100-20 13-2 7 2 5 4 3 7v11l-10 73-15 105-5 40v32l4 16 9 17 13 13 14 8 11 4 15 3 11 1h19l22-2 25-5 20-6 15-6 17-9 12-11v-5l-13-12-7-9-6-13-4-15-2-18v-38l4-57 8-83 12-100 12-83 14-92 10-63 2-15v-16l-4-11-9-10-12-6-16-4-8-1z" fill="#F8F7F3"/>
<path transform="translate(914,578)" d="m0 0h1v12l-9 74-8 83-4 57v38l2 18 4 15 8 16 9 10 9 8v5l-8 8-13 8-17 8-22 7-22 5-15 2-14 1h-19l-17-2-15-4-16-8-10-9-8-9-8-17-3-13v-32l5-40 16-113 6-43 2-5 15-4 23-6 33-11 24-10 19-9 17-10 17-12 15-14z" fill="#FDBE3C"/>
<path transform="translate(334,659)" d="m0 0h2l1 7 4 11 6 10 3 3v2l4 2 10 7 13 5 14 3 8 1h40l31-4 25-4v10l-12 80-6 47-1 12v26l3 16 5 12 6 10 6 7-1 6-9 7-17 9-24 8-23 5-24 3h-33l-17-3-14-5-10-6-10-9-6-9-5-11-3-15v-20l5-38 21-136 7-47z" fill="#FDBE3C"/>
<path transform="translate(356,796)" d="m0 0h12l8 4 6 7 2 7v7l-3 10-8 9-7 3h-13l-8-4-6-7-2-5v-12l5-10 8-7z" fill="#F8F8F6"/>
</svg>
