<?xml version="1.0" encoding="UTF-8"?>
<svg version="1.1" viewBox="0 0 2048 750" width="480" height="176" xmlns="http://www.w3.org/2000/svg">
<path transform="translate(540,44)" d="m0 0h48l20 2 19 4 20 7 18 10 9 7 8 7 9 11 9 17 5 16 2 10 1 11-1 26-4 33-3 14 20-6 34-7 28-3 18-1h36l25 2 24 4 20 5 21 8 17 9 3 2 4-1 9-8 14-9-1-9-1-5v-17l4-16 8-15 7-9 12-10 14-9 14-6 24-7 31-6 9-1h65l20 3 17 4 14 6 11 7 12 11 9 12 6 13 3 11 2 15v13l-1 7 9 2 17 4 21 9 11 7 4 4 4-1 29-12 24-7 26-6 19-2 16-1h29l26 2 21 3 7 2 5-1-1-7-11-18-4-10-3-14-1-14 3-19 5-13 7-12 7-9 9-9 13-9 17-9 21-8 24-5 15-2 17-1h29l24 2 24 4 18 5 18 8 14 8 9 7 10 9 10 12 8 15 6 17 4 17 2 19v35l21 2 25 5 21 7 23 11 19 12 14 12 17 17 12 16 11 20 9 25 5 21 3 24v63l-2 19-2 21-5 39v11l11 16 7 16 4 15v12l-4 16-4 10-8 12-9 11-10 9-19 12-21 10-26 8-18 3-36 1-20-1-7-2-11-1-21-6-15-6-17-9-13-10-9-10v-2l-6 3-16 10-20 9-21 6-24 4h-40l-19-3-22-6-23-11-11-8-7-7-5 2-10 6-16 8-21 8-18 5-19 4-16 2h-52l-18-2-30-7-23-8-24-11-15-9-4-3-5 2-16 10-16 8-19 7-21 6-23 4-25 2h-15l-21-1-26-5-16-5-16-7-14-8-13-10-5-6-4 2-13 11-16 10-16 7-17 5-16 3-13 1h-27l-15-2-15-4-16-7-11-7-4-1-11 6-21 9-23 6-9 2-15 2h-32l-11-2-10-1-21-6-21-9-6-3-16 12-21 12-19 8-25 7-25 5-6 1-33 1-22-1-26-5-27-9-16-8-16-11-13-12-9-10-6-10-8 15-9 11-10 11-13 10-18 11-21 9-15 5-20 4-26 3h-43l-11-2-12-1-22-6-20-8-18-11-14-12-9-10-10-15-7-15-5-17-3-20v-50l3-31 1-4 1-17 5-36 6-48 5-37 4-30 3-22 6-38 1-10-13-9-10-9-7-9-7-12-5-16-1-5v-25l4-17 5-10 8-11 8-9 13-10 16-10 25-12 33-11 27-6 21-4 13-2 21-2h50l28 3 17 4 19 7 16 9 10 8 7 6 4 6 8-11 8-10 9-10 18-13 22-12 20-8 24-7 18-4z" fill="#51301A"/>
<path transform="translate(544,88)" d="m0 0h28l21 2 15 4 13 7 10 9 5 7 2 8v27l-6 45-7 41-5 34-7 46-4 25-2 17-3 21-2 17-3 23-3 26-3 38v54l3 17 6 12 7 8 1 7-4 11-8 10-9 7-16 9-16 6-21 5-10 1h-28l-20-3-16-5-16-8-12-11-9-14-5-13-3-19v-39l6-61 5-36 1-2-37 7-74 13-11 1-1 12-7 58-2 18v38l4 13 5 7 1 8-4 10-7 9-9 8-14 8-15 6-16 4-12 2-13 1h-12l-15-1-21-5-16-8-10-7-8-8-7-11-5-11-4-20-1-11v-10l3-38 12-104 9-75 3-27 4-34 4-44v-16l-9-1-21-5-12-6-5-4-5-8-1-3v-9l7-11 11-9 18-10 21-8 20-6 29-6 27-3 18-1h21l25 2 15 4 12 5 10 9 5 8 2 5 1 6v15l-3 32-5 33-5 38-2 18 64-13 23-5 22-4 2-1 3-18 6-49 3-27 2-27-13-2-5-5-2-8 4-10 7-9 14-11 16-8 16-6 20-5 19-2z" fill="#FEF3AA"/>
<path transform="translate(1644,93)" d="m0 0h13l17 1 22 4 14 5 13 7 9 8 7 12 4 16v16l-5 47-10 66-1 7 9-3 24-9 19-5 13-2h40l18 3 18 6 14 8 10 8 8 7 10 13 9 17 7 21 3 18v36l-6 73-1 19v19l3 20 4 12 5 5 8 7 1 2-1 13-4 12-6 9-9 10-11 8-13 6-20 5-6 1h-29l-21-4-16-6-11-7-8-9-6-12-4-15-2-19v-13l3-36 7-67v-35l-3-11-5-9-7-5-9-3h-13l-12 3-13 7-12 11-2 4-1 20-2 16-5 60-1 22v24l2 12 5 5 6 4 1 2-1 10-5 10-7 7-10 6-12 5-14 4-21 3h-24l-19-3-16-6-9-7-8-9-7-14-3-12-1-8v-54l3-43 4-47 4-58 2-24 2-35 3-52 1-39v-29l-1-8-16-8-5-7-1-3v-10l5-8 5-5 10-7 15-7 14-4 22-4z" fill="#FEFDFB"/>
<path transform="translate(794,253)" d="m0 0h33l29 2 20 4 17 5 16 8 14 9 10 9 8 10 8 14 6 15 3 11 3 17 1 19v31l-1 25v47l3 15 4 9 4 5 13 7 3 5v11l-3 12-7 14-9 12-8 8-13 9-16 8-15 4-6 1h-27l-15-3-13-5-10-7-9-9-10-15v-2h-2l-2 4-5 5-10 9-15 10-16 8-18 6-10 2-11 1h-25l-14-2-16-5-16-8-11-8-10-9-11-14-8-14-5-15-3-17v-22l4-19 7-16 6-10 8-10 10-10 13-9 18-10 20-8 21-6 24-5 40-5 31-2 9-1 3-2 1-3-1-16-6-10-8-5-11-3-6-1h-27l-22 4-16 5-20 9-22 13-3 1h-12l-11-4-10-9-6-12-2-6-1-7v-11l2-12 5-10 9-10 11-8 19-9 24-8 32-7 27-3z" fill="#FEFCE4"/>
<path transform="translate(1094,150)" d="m0 0h43l25 4 12 5 7 5 6 9 2 7v15l-3 25-7 42v2l62 1 8 4 6 7 2 6-1 13-8 23-9 17-7 8-10 5-16 3-16 2-26 1-2 25-4 35-5 50v16l3 12 4 6 6 3h9l13-5 18-9h8l6 3 6 8 3 9 1 13-2 13-5 13-9 13-15 15-15 10-19 9-19 5-13 2h-34l-19-4-14-5-14-8-12-11-9-11-8-14-6-15-4-20-1-10v-32l3-52 2-19 3-36v-7l-15-2-8-3-7-6-6-14-4-15-1-8v-16l2-10 4-7 8-6 11-4 25-2h4l2-16v-45l-2-12v-18l4-6 16-8 14-4z" fill="#FEF2A9"/>
<path transform="translate(1425,254)" d="m0 0h54l27 5 18 6 11 6 10 9 6 12 2 10-1 17-5 19-6 12-7 9-7 7-10 4h-9l-6-4-9-9-14-7-17-3h-15l-17 3-12 5-11 7-7 6-9 13-7 16-3 13-1 11v19l3 16 5 12 7 11 8 8 11 7 14 5 13 2h17l13-2 14-5 25-15 8-1 8 4 5 7 3 9v17l-4 15-6 12-8 10-17 17-18 12-16 8-17 6-22 5-19 2h-23l-24-3-24-6-15-6-17-9-12-9-12-11-9-9-11-15-9-15-8-18-6-23-2-12v-42l5-27 6-21 8-19 9-16 9-12 11-13 4-5 8-7 16-12 13-8 19-10 24-9 17-5 13-3 15-2z" fill="#FEFDFB"/>
<path transform="translate(1638,130)" d="m0 0h24l18 2 13 4 9 7 5 8v19l-3 36-12 108v12l4 1 14-5 27-12 24-8 24-5 8-1h30l16 3 15 6 12 8 10 10 9 14 4 8 5 19 1 9v25l-3 48-3 42v23l2 15 5 17 8 15 5 8v6l-8 7-14 6-13 3-8 1h-17l-12-2-13-5-9-6-5-7-3-13v-25l5-46 4-35 2-26v-25l-2-14-6-17-6-10-5-5-7-6-11-5-6-1h-23l-19 3-15 6-11 7-13 12-9 13-3 9-6 54-4 48-1 24v18l2 14 3 9-1 4-18 5-7 1h-29l-11-2-14-7-6-7-3-10v-26l9-99 3-28 3-44 3-37 4-66 1-25v-52l-1-19v-11l10-3z" fill="#FEF3AA"/>
<path transform="translate(544,88)" d="m0 0h28l21 2 15 4 13 7 10 9 5 7 2 8v27l-6 45-7 41-5 34-7 46-4 25-2 17-3 21-2 17-3 23-3 26-3 38v54l3 17 5 10-1 2-5-8-4-14-2-10-1-25v-20l-3-14-5-16-4-1-3 4-5 11-5 13-1 13v33l4 26-1 4-2-6-4-20-1-9v-33l3-41 6-56 5-36 6-48 15-98 6-48 3-35-5-2-12-5-14-2h-28l-27 4-19 5-10 4h-2v38l-5 40-7 52-6 35-2 4-15 4-74 15-57 12-22 4h-8l1-13 9-81 5-44 4-37-16-4-17-2h-31l-27 3-29 6-8 2v2h-2l-2 4-2 3 9 9 4 7 1 4v34l-4 40-10 74-8 57-2 21-4 32-7 67h-2l-2-16-1-4-1-22-3-24-2-5-4 1-4 9-4 10-3 11-3 31-3 28v34h-1l-2-17v-10l3-38 12-104 9-75 3-27 4-34 4-44v-16l-9-1-21-5-12-6-5-4-5-8-1-3v-9l7-11 11-9 18-10 21-8 20-6 29-6 27-3 18-1h21l25 2 15 4 12 5 10 9 5 8 2 5 1 6v15l-3 32-5 33-5 38-2 18 64-13 23-5 22-4 2-1 3-18 6-49 3-27 2-27-13-2-5-5-2-8 4-10 7-9 14-11 16-8 16-6 20-5 19-2z" fill="#FEFDFC"/>
<path transform="translate(862,386)" d="m0 0 2 2 1 5v15l2-1 27-3 30-5 5-1 1 81 2 16 4 15 6 11 9 10 4 3-1 5-7 8-11 8-12 5-16 4h-23l-12-3-10-6-6-9-5-16-3-7-6 1-12 7-17 12-18 12-17 8-15 4-17 2h-27l-14-2-15-5-17-9-10-10-8-13-5-14-1-6v-17l3-12 8-15 12-13 9-8 15-9 11-5 21-7 27-6 37-5 60-6 6-1z" fill="#FFD45E"/>
<path transform="translate(453,386)" d="m0 0 7 1v26l-2 14-5 54-3 33-1 15v22l3 16 5 12 7 7 12 6 13 3 8 1h27l23-5 16-6 6-2-4-19-1-9-3-21v-33l1-13 5-13 7-14 2-2 4 1 3 6 5 18 1 8v19l1 25 5 21 5 10 7 6 3 5-1 9-5 10-8 9-10 7-16 8-13 5-21 5-10 1h-28l-20-3-16-5-16-8-12-11-9-14-5-13-3-19v-39l6-61 5-36 1-2-37 7-74 13-11 1-1 12-7 58-2 18v38l4 13 5 7 1 8-4 10-7 9-9 8-14 8-15 6-16 4-12 2-13 1h-12l-15-1-21-5-16-8-10-7-8-8-7-11-5-11-2-8-1-13v-27l6-59 5-17 5-12 3-3 4 1 2 5 3 24 1 22 2 10 1 10v40l3 14 5 10 7 6 16 7 18 3h22l19-3 19-5 9-4-1-9-4-20-1-7v-26l5-49 6-48 3-16 5-3 27-5 46-8 75-14z" fill="#FEF3AB"/>
<path transform="translate(1094,150)" d="m0 0h43l25 4 12 5 7 5 6 9 2 7v15l-3 25-7 42v2l62 1 8 4 6 7 2 6-1 13-8 23-9 17-7 8-10 5-16 3-16 2-26 1-2 25-4 35-5 50v16l3 12 4 6 6 3h9l13-5 18-9h8l6 3 6 8 3 9 1 13-2 13-5 13-9 13-15 15-2-1 12-12 9-14 5-11 2-12v-11l-2-9-10-8-6-1-25 8-15 1-8-3-9-10-5-11-2-10v-23l-2-6h-3l-2 6-4 14-2 4-1 6v9l3 18 5 12 6 8 5 5v2l4 2 3 3-6-1-9-5-7-6-6-10-4-12-2-14 1-23 4-41 2-11 7-66 2-12 3-4 26-1h50l10-2 5-5 3-6v-9l-1-4h-71l-22-1 1-10 8-50 5-38 1-12-18-2h-50l-20 2 2 33v47l-2 26-3 2-45 3h-7l2 16 3 7 8 3 15 2 12 1 3 1v25l-2 25-1 20-3 29-2 33-1 43-2-4-2-16-1-14-4-15-6-15h-5l-6 10-4 10-1 9v39l4 23 6 15 8 15v3l-7-10-7-15-5-19-2-17v-32l3-52 2-19 3-36v-7l-15-2-8-3-7-6-6-14-4-15-1-8v-16l2-10 4-7 8-6 11-4 25-2h4l2-16v-45l-2-12v-18l4-6 16-8 14-4z" fill="#FEFDFC"/>
<path transform="translate(1752,340)" d="m0 0h23l8 2 12 6 8 7 7 11 5 13 3 12 1 8v25l-3 37-7 59-1 11v25l3 13 6 8 14 7 10 3 8 1h17l17-3 14-5 9-6 2-2v-6l-9-15-2-9-4-15-1-7v-15l3-19 3-6 5-6 5 1 4 6 6 25 3 21 5 13 3 5 11 8 3 4-1 13-4 12-6 9-9 10-11 8-13 6-20 5-6 1h-29l-21-4-16-6-11-7-8-9-6-12-4-15-2-19v-13l3-36 7-67v-35l-3-11-5-9-7-5-9-3h-13l-12 3-13 7-12 11-2 4-1 20-2 16-5 60-1 22v24l2 12 5 5 6 4 1 2-1 10-5 10-7 7-10 6-12 5-14 4-21 3h-24l-19-3-16-6-9-7-8-9-7-14-2-7-1-38 1-30 1-13 6-10 6-8 4 1 3 6 4 16 1 7v29l2 1 1 22 3 10 5 6 14 7 11 2h29l15-3 10-3-2-9-2-8-1-9v-18l2-38 5-53 4-35 4-11 10-13 7-7 12-9 16-7 13-3z" fill="#FEF3AA"/>
<path transform="translate(565,394)" d="m0 0h3l-1 14-6 58-2 30v33l3 20 6 25 1 9-16 7-14 4-15 3h-27l-17-3-13-5-10-9-5-10-3-11-1-8v-22l3-39 5-51 2-22 2-16 2-3v11l-1 3 30-5z" fill="#FFD45E"/>
<path transform="translate(165,414)" d="m0 0h1l1 9v8l-1 9 4 4 12 4 11 2 13 1h15l44-4 3-3 5-10 2-6h1l-1 14-8 68-2 22v26l4 23 2 9-1 5-12 5-20 5-15 2h-22l-18-3-16-7-9-8-5-12-2-11v-31l9-86z" fill="#FFD45E"/>
<path transform="translate(794,253)" d="m0 0h33l29 2 20 4 17 5 16 8 14 9 10 9 8 10 8 14 6 15 3 11 3 17 1 19v31l-1 25v47l3 15 4 9 4 5 13 7 3 5v11l-3 12-7 14-6 8v-3l8-14 3-8 1-12-3-7-3-6-10-8-6-7-4-9-3-10v-24l-4-19-1 2h-9l-2 5-2 2-2 7-1 9v19l4 21 7 15 5 10 2 3-4-2-9-11-5-11-4-17-1-113-2-20-4-15-9-17-7-9-10-9-14-8-14-5-18-4-16-2-28-1-28 2-29 5-23 6-9 3-12 3-16 7-3 2-1 17-4 1-3-5v-12l3-12-9 3-4 5-2 6-2 5-1 11 3 13 4 10 6 7 4 2v2l11-1 15-7v2l-12 7-3 1h-12l-11-4-10-9-6-12-2-6-1-7v-11l2-12 5-10 9-10 11-8 19-9 24-8 32-7 27-3z" fill="#FEFDFC"/>
<path transform="translate(386,404)" d="m0 0 5 1 6 4-1 5-5 5-12 5-23 6-26 5-10 2-9 3-7 2-4 5-3 10-1 9 1 15-1 29-1 16v36l6 19 5 7 1 8-4 10-7 9-9 8-14 8-15 6-16 4-12 2-13 1h-12l-15-1-21-5-16-8-10-7-8-8-7-11-5-11-2-8-1-13v-27l6-59 5-17 5-12 3-3 4 1 2 5 3 24 1 22 2 10 1 10v40l3 14 5 10 7 6 16 7 18 3h22l19-3 19-5 9-4-1-9-4-20-1-7v-26h2l2-19 4-17 8-33 3-18 1-16 2-7 6-2 45-8z" fill="#FEF3AA"/>
<path transform="translate(950,435)" d="m0 0 2 3 4 19v25l5 15 7 9 11 9 5 9 1 8-2 12-8 15-3 4-2 5-9 9-13 9-16 8-15 4-6 1h-27l-15-3-13-5-10-7-9-9-10-15v-2h-2l-2 4-5 5-10 9-15 10-16 8-18 6-10 2-11 1h-25l-14-2-16-5-16-8-5-5-10-9-8-8v-2h-2l-10-16-4-15v-15l2-22 2-7 2-2h3l2 10 4 16 6 11 10 12 5 5 7 8 8 6 17 8 15 4 9 1h27l21-3 16-5 17-9 23-16 15-10 6-3 5 1 3 7 5 16 5 8 10 6 12 3h23l16-4 12-5 11-8 7-8-1-5-2-2-6-10-7-16-4-16-1-9v-17l2-12 2-7h2l2-4 7-1 2 1z" fill="#FEF3AB"/>
<path transform="translate(1816,381)" d="m0 0 1 2h2l9 15 8 10 4 6h7l39-15 8-3 1 2-3 48-3 42v23l2 15 5 17 8 15 5 8v6l-8 7-14 6-13 3-8 1h-17l-12-2-13-5-9-6-5-7-3-13v-25l5-46 4-35 2-26v-25z" fill="#FFD45E"/>
<path transform="translate(1278,396)" d="m0 0 3 4v12l-1 12 5 5 15 11 3 1h24l14-2-4-12 2-11 3-7 7-5 2-2-1 13-1 9v27l4 19 5 13 7 13 8 10 8 8 14 8 19 7 14 3h30l17-3 15-4 21-9-1 4-22 22-11 7-15 7-13 5-21 5-6 1h-35l-24-4-21-6-17-8-12-8-12-11-10-13-11-21-6-19-3-15-1-12v-10l2-21 4-19z" fill="#FFD45E"/>
<path transform="translate(1435,288)" d="m0 0h34l26 3 14 4 11 6 5 6v9l-5 15-4 7-6-2-12-7-17-6-11-2h-31l-19 4-16 6-11 6-11 9-9 10-10 15-6 14-5 20h-3l-7 5-4 14 2 9 1 6-6 2-8 1h-24l-6-3-17-13-1-2 1-14v-10l-3-3 3-10 8-17 11-16 11-13 8-7 12-10 17-11 16-8 14-6 22-6 25-4z" fill="#FEF3AA"/>
<path transform="translate(1378,483)" d="m0 0h7l10 7 9 4 7 3 10 4 6 1 32 1 16-2 21-6 13-7h8l5 4 5 9 1 9-1 18-4 11-13 17-7 7-8 7-5 5-11 7-16 8-18 6-26 5-12 1h-23l-24-3-24-6-15-6-17-9-12-9-11-12-8-9-13-18-2-4 2-25 1-1h5l9 7 10 9 7 9 8 5 6 5 8 6 15 9 16 7 18 5 24 4h35l20-4 15-5 18-8 10-6 10-9 15-15v-2l-20 9-19 5-13 2h-30v-1l11-1-7-3-11-3-14-7-16-9-3-3-3-5-6-8-2-5z" fill="#FEF3AA"/>
<path transform="translate(1026,438)" d="m0 0h5l5 10 5 16 1 5 2 25 1 5 2-1 3 18 7 19 7 10 8 7 12 7 13 4 15 2h18l18-3 17-5 21-11 12-11 7-11v-3l-11 7-14 4-7 1h-10l-9-2-4-5-5-5-8-9-5-11-2-8-2-13v-9l2-9 3-9 4-10 3-3 3 2 1 6v22l3 12 5 10 7 8 8 3 15-1 25-8 6 1 11 9 2 9v13l-3 12-7 14-8 11-15 15-11 7-17 8-19 5-13 2h-34l-19-4-14-5-14-8-12-11-6-7-3-7-9-17-4-11-4-23v-39l1-9 6-14z" fill="#FEF3AA"/>
<path transform="translate(1718,205)" d="m0 0h2l1 15-2 5-2 18-1 31 2 7 2 4 9 1 16-2 19-5 16-5 20-4 4-4-1-2 29-1 18 3 18 6 14 8 10 8 8 7 10 13 9 17 7 21 3 18v36l-6 73-1 19v19l3 20 4 12v3l-4-6-5-13-4-26-5-20-4-6-5 1-4 6-3 9-2 14v15l3 16 4 13h-2l-5-12-4-16-1-10v-23l5-70 1-20v-25l-2-14-5-16-7-13-8-10-7-7-15-9-14-5-13-2h-30l-24 4-21 6-25 10-11 5-2-1 9-8-11 2-5-1-2-5v-15l3-25 5-28 4-20z" fill="#FEFCE4"/>
<path transform="translate(1601,368)" d="m0 0h1v13l-2 26-1 7 58-7 22-2v12l-5 50-2 26-1 24v18l2 14 3 9-1 4-18 5-7 1h-29l-11-2-14-7-6-7-3-10v-26l9-99 3-28z" fill="#FFD45E"/>
<path transform="translate(1053,381)" d="m0 0h1v25l-2 21 11 1 30 1 24-1 6-1-1-11 4-7h1v9l-4 41-1 23 2 14 4 12 6 10 9 7 11 5 9 2h10l15-3 9-4 8-5 1 4-8 12-8 8-11 7-17 8-19 5-13 2h-18l-19-3-13-5-12-8-7-7-6-10-6-17-3-18v-38l3-44z" fill="#FFD45E"/>
<path transform="translate(807,286)" d="m0 0 28 1 27 4 16 5 16 8 10 8 7 7 8 13 6 13 3 12 2 20v102h-1l-1-80-20 4-31 4-12 1-1-15-1-5-1 5h-1l-1-34-4-16-4-8-8-9-12-7-11-3-10-1h-25l-18 2-17 4-16 6-19 9-20 8-4-1-3-4-2-7v-14l5-4 16-8 19-7 23-6 29-5z" fill="#FEF3AA"/>
<path transform="translate(1524,283)" d="m0 0 6 1 6 4 4 5 3 11v15l-3 24-10 18-3 4-4 3-6 2h-9l-6-4-9-9-14-7-17-3h-15l-17 3-12 5-11 7-7 6-9 13-7 16-3 13-1 11v19l3 16 5 12 7 11 8 8 11 7 14 5 13 2h17l13-2 14-5 25-15 8-1 8 4 5 7 3 9v17l-4 15-6 12-8 10-17 17-4 3-2-1 8-8 8-7 13-17 4-11 1-23-4-10-4-5-2-1h-8l-16 8-18 5-16 2-32-1-12-3-7-4-11-4-11-7-4-1h-4l1 7 6 9 3 3 3 5 20 11 12 6 13 3 4 4h-17l-15-4-15-6-12-7-12-12-9-14-6-13-5-19-1-6v-27l2-16 7-26 8-16 12-16 8-8 13-9 16-7 19-5 6-1h31l15 3 17 7 12 7h2l5-11 4-16h2l1-8-3-10-1-3 1-4z" fill="#FEFCE4"/>
<path transform="translate(1685,454)" d="m0 0 5 1 4 8 3 22 1 6 1 41 2 16 5 5 8 5 1 2-1 10-5 10-7 7-10 6-12 5-14 4-21 3h-24l-19-3-16-6-9-7-8-9-7-14-2-7-1-38 1-30 1-13 6-10 6-8 4 1 3 6 4 16 1 7v29l2 1 1 22 3 10 5 6 14 7 11 2h29l15-3 10-3-2-9-2-8v-7l1-4 1-29 1-14 3-17 4-12z" fill="#FEF3AB"/>
<path transform="translate(1228,271)" d="m0 0 9 1 8 4 9 6 2 8-1 8-7 20-9 17-7 8-10 5-16 3-16 2-26 1-2 25-4 35-5 50v16l3 12 4 6 6 3h9l13-5 18-9h8l6 3 6 8 3 9 1 13-2 13-5 13-9 13-15 15-2-1 12-12 9-14 5-11 2-12v-11l-2-9-10-8-6-1-25 8-15 1-8-3-9-10-5-11-2-10v-23l-2-6h-3l-2 6-4 14-2 4-1 6v9l3 18 5 12 6 8 5 5v2l4 2 3 3-6-1-9-5-7-6-6-10-4-12-2-14 1-23 4-41 2-11 7-66 2-12 3-4 26-1h50l10-2 5-5 3-6v-9l-1-4h-71l-22-1v-1l18-1 3-2 11-3 6-3 10-4 16-5 20-6z" fill="#FEFCE4"/>
<path transform="translate(1752,340)" d="m0 0h23l8 2 12 6 8 7 7 11 5 13 3 12 1 8v25l-3 37-6 50-2 2-1-25-5-36-2-7-3-1-4 2-5 9-3 23-3 21-3 29v35l-2-2-1-12v-13l3-36 7-67v-35l-3-11-5-9-7-5-9-3h-13l-12 3-13 7-12 11-2 4-1 20-2 16-5 60-1 22v24l2 14-3-3-2-16-1-43-2-9-2-17-3-7-5-2-6 15-3 16-1 5-2 40v7h-2l-1-2v-18l2-38 5-53 4-35 4-11 10-13 7-7 12-9 16-7 13-3z" fill="#FEFCE4"/>
<path transform="translate(841,423)" d="m0 0h10l3 2 1 11-2 22-4 22-6 15-12 16-4 2 1-5 8-17 1-3v-9l-2-4-5 1-6 5-8 14-2 3h-2v2l-13 10-8 3-6 1h-11l-10-3-9-6-3-3v-2l-5-2-5-4-2-4v-12l3-8 8-6 11-8 17-8 17-4 2-1 1-4-17 2-19 5-12 5-9 7-8 13-3 9v19l3 15 7 9 15 15-8-1-11-7-10-11-6-12-3-11v-8l4-15 8-14 7-8 14-9 13-5 32-8 24-4z" fill="#FEFBCC"/>
<path transform="translate(1596,202)" d="m0 0h2l2 5 1 6v61l1 25v26l1 11-1 21-2 32-5 50-7 77-1 4-1 17h-1l-1-26v-21l-3-15-4-13-4-1-7 10-4 7-1 13-1 33 1 31-2-1-1-8v-54l3-43 4-47 4-58 3-32 2-2 1-20 4-14 4-12 2-16h-1l-1-12v-15l5-7-2-1 2-4 3-4h2v-2z" fill="#FEFCE4"/>
<path transform="translate(168,227)" d="m0 0 5 1 2 4 1 8v66l1 10 1 4-12 86-2 21-4 32-7 67h-2l-2-16-1-4-1-22-3-24-2-5-4 1-4 9-4 10-3 11-3 31-3 28v34h-1l-2-17v-10l3-38 12-104 9-75 3-27 4-34 2-16h2l2-5 3-15 3-6 5-1z" fill="#FEFCE5"/>
<path transform="translate(317,221)" d="m0 0 2 4-2 4v9l-1 4v12l1 8v29l2 10h2v2l4 1h7l25-5 32-8 7-2 3-1 19-2 15-4v-2l5 1 6-3 5-7 3-15 2 1 4-11-1-7 3-8h3v33l-3 23-5 16-1 7-78 16-57 12-10 2-7-1-3-13 1-16 4-35 6-28 3-19 3-6z" fill="#FEFCE4"/>
<path transform="translate(453,386)" d="m0 0 7 1v26l-2 14-5 54-3 33-2 25-1 6h-1v-23l2-23v-18l-2-24-4-17-1-5-4 4-7 11h-2l-4 27-4 41v55h-1l-2-14v-39l6-61 5-36 1-2-37 7-74 13-11 1-1 12-7 58-2 18-1 36-2-4v-41l1-17 1-25-1-14 2-12 4-9 5-4 12-3 10-3 19-3 21-5 16-5 9-4 3-5v-3l-6-4-16 2-60 10-28 5-2 23-4 21-7 30-4 17-3 27h-1v-19l8-72 5-30 5-3 27-5 46-8 75-14z" fill="#FEFBCC"/>
<path transform="translate(602,257)" d="m0 0h2l1 2v13l-4 41v31l1 12v17l-2 19-1 15-4 36v18l-2 24v54l3 17 5 10-1 2-5-8-4-14-2-10-1-25v-20l-3-14-5-16-4-1-3 4-5 11-5 13-1 13v33l4 26-1 4-2-6-4-20-1-9v-33l3-41 6-56 4-28 2-3 3-19 4-14 4-18 5-16 2-5v-4h2l2-12 4-17z" fill="#FEFCE4"/>
<path transform="translate(1282,356)" d="m0 0 2 1 1 7 5-2 4-4h2l-2 4-9 16-6 14-5 21-2 14-1 13v10l2 17 4 17 6 16 9 17 10 13 4 4-1 2-7-7-8-5-8-10-10-9-6-4h-5l-2 25 7 11 12 16 12 12h-3l-16-16-11-15-9-15-8-18-6-23-2-12v-42l2 1 5-23 3-10 6-11 12-13 5-5 6-5 7-1z" fill="#FEFCE4"/>
<path transform="translate(892,281)" d="m0 0 11 2 16 9 12 11 11 15 10 16 5 10 2 3 2 10 1 19v31l-1 25v47l3 15 4 9 4 5 13 7 3 5v11l-3 12-7 14-6 8v-3l8-14 3-8 1-12-3-7-3-6-10-8-6-7-4-9-3-10v-24l-4-19-1 2h-9l-2 5-2 2-2 7-1 9v19l4 21 7 15 5 10 2 3-4-2-9-11-5-11-4-17-1-113-2-20-3-14 1-4v-7l-3-10-8-12-7-9v-2l-6-2-5-5v-2l-2-2h-3l-1-5z" fill="#FEFDE5"/>
<path transform="translate(1e3 315)" d="m0 0 4 5 6 5 4-1 2-3 8 3 15 2 12 1 3 1v25l-2 25-1 20-3 29-2 33-1 43-2-4-2-16-1-14-4-15-6-15h-5l-6 10-4 10-1 9v39l4 23 6 15 8 15v3l-7-10-7-15-5-19-2-17v-32l3-52 2-19 3-36v-7l-12-5-3-5-2-7-2-3-3-10v-8h3z" fill="#FEFCE4"/>
<path transform="translate(787,439)" d="m0 0h12l-1 5-9 3-13 3-17 9-8 6-7 5-3 8v12l4 6 7 4 5 6 9 5 8 2h11l9-2 8-4 8-7h2v-2h2l2-5 8-13 4-4 4-2 4 1 2 4v9l-5 12-5 10-1 5-9 8-14 9-11 5-13 3h-22l-4-2-6-7-11-11-4-6-3-15v-19l5-13 8-11 10-7 16-6z" fill="#FEF3AA"/>
<path transform="translate(814,449)" d="m0 0h10l-1 16-4 16-5 9-9 10-8 6-12 5-4 1h-7l-10-3-9-6-6-10-1-5v-8l3-10 5-6 10-6 13-5 19-3z" fill="#51301A"/>
<path transform="translate(1142,383)" d="m0 0 2 1v6l3 10 5 23v28l-2 16h2l2 19 4 9 4 4 4 2h9l13-5 18-9h8l6 3 6 8 3 9 1 13-2 13-5 13-9 13-15 15-2-1 12-12 9-14 5-11 2-12v-11l-2-9-10-8-6-1-25 8-15 1-8-3-9-10-5-11-2-10v-23l-2-6h-3l-2 6-4 14-2 4-1 6v9l3 18 5 12 6 8 5 5v2l4 2 3 3-6-1-9-5-7-6-6-10-4-12-1-8h1l2-31 3-24 7-32 5-16z" fill="#FEFBCD"/>
<path transform="translate(1363,441)" d="m0 0 4 1 14 28 7 7 8 6 7 7 17 8 6 2 15 1h17l13-2 14-5 25-15 8-1 8 4 5 7 3 9v17l-4 15-6 12-8 10-17 17-4 3-2-1 8-8 8-7 13-17 4-11 1-23-4-10-4-5-2-1h-8l-16 8-18 5-16 2-32-1-12-3-7-4-11-4-11-7-4-1h-4l1 7 6 9 3 3 3 5 20 11 12 6 13 3 4 4h-17l-15-4-4-4-13-9-15-14-7-10-7-16-3-12v-11l2-9z" fill="#FEFBCC"/>
<path transform="translate(1228,271)" d="m0 0 9 1 8 4 9 6 2 8-1 8-7 20-9 17-7 8-10 5-12 2 1-3 11-4 5-4 11-21 3-12v-6l-4-3h-97v-1l18-1 3-2 11-3 6-3 10-4 16-5 20-6z" fill="#FEFDE5"/>
<path transform="translate(453,386)" d="m0 0 7 1v26l-4 25h-1l-1-6v-14l-5-13-3-8-4-2-32 5-36 7-60 10-28 5-2 23-4 21-7 30-4 17-3 27h-1v-19l8-72 5-30 5-3 27-5 46-8 75-14z" fill="#FEFCE3"/>
<path transform="translate(841,423)" d="m0 0h10l3 2 1 11-2 22-4 22-6 15-3 4h-2l2-9 5-12 4-14 1-19-3-11-3-3h-15l-18 2-25 6h-4v2l-19 5-12 5-9 7-8 13-3 9v19l3 15 7 9 15 15-8-1-11-7-10-11-6-12-3-11v-8l4-15 8-14 7-8 14-9 13-5 32-8 24-4z" fill="#FEFCDF"/>
<path transform="translate(657,442)" d="m0 0 2 1 2 5-9 31-2 5-1 12h1l2 20 6 16 2 5-5-5-9-11-5-11-3-13-1-10-4 2-2 7-2 22v15l1 9-3-4-5-18-1-12v-16l2-10 6-14 7-9 8-8 11-8z" fill="#FEFBCC"/>
<path transform="translate(146,402)" d="m0 0 4 1 3 10 1 7 1 24 2 10 1 23-5 49h-2l-2-16-1-4-1-22-3-24-2-5-4 1-4 9-4 10-2 7h-1l1-13 3-25 5-29 4-8z" fill="#FEFBCC"/>
<path transform="translate(1234,296)" d="m0 0 5 1 3 3-1 11-4 11-9 17-8 6-6 2-22 2h-16l-11-1-10-3-1-1v-5l3-3 8-3 25-1 9-2 2-3-2-2 3-1h14l10-2 5-5 3-6v-9l-1-4h-71v-1z" fill="#FFFCCD"/>
<path transform="translate(946,384)" d="m0 0h6l3 3 3 9 1 82 3 16 2 7-4-4-5-16v-24l-4-19-1 2h-9l-2 5-2 2-2 7-1 9h-1v-66l7-10z" fill="#FFFCCD"/>
<path transform="translate(1907,423)" d="m0 0 5 1 2 9 3 22 2 8 2 53 2 16-2-1-4-23-2-11-4-16-4-6-5 1-4 6-3 9-2 14v15l3 16 4 13h-2l-5-12-4-16-1-10v-23l1-16 1 3h2l1-14 4-16 6-18h2z" fill="#FEFBCC"/>
<path transform="translate(1799,399)" d="m0 0 4 1 5 10 4 14 2 12 2 6h1l-1 19-6 50-2 2-1-25-5-36-2-7-3-1-4 2-5 9-3 23h-1v-9l4-39 4-17 5-11z" fill="#FEFBCB"/>
<path transform="translate(1576,415)" d="m0 0 5 1 3 6 5 19 2 12 1 10v9l-4 44-1 4-1 17h-1l-1-26v-21l-3-15-4-13-4-1-7 10-4 7h-1l1-17 2-12 2-20 5-9z" fill="#FEFBCC"/>
<path transform="translate(1983,523)" d="m0 0h1l1 10 11 16 7 16 4 15v12l-4 16-4 10-8 12-9 11-10 9-19 12-21 10-26 8-18 3-36 1-20-1-7-2-11-1-21-6-15-6-17-9-13-10-8-9v-2l4 1 3 2 2 5 8 7 16 8 26 10 24 6 6 1h56l19-2 17-5 25-11 19-10 11-9 7-7 6-8 7-11 5-17 1-8v-11l-2-10-7-16-11-17-1-6z" fill="#3F2417"/>
<path transform="translate(579,415)" d="m0 0 4 1 3 9 4 33 1 21v61l-2-4-1-25v-20l-3-14-5-16-4-1-3 4-5 11-5 13-1 13v33l4 26-1 4-2-6-4-20-1-9v-33l2-30 2 3 3-16 8-28h2l1-5z" fill="#FFFCCD"/>
<path transform="translate(1832,266)" d="m0 0 10 1 4 1 14 1 14 6 12 8 14 12 10 13 9 17 7 21 3 18v36l-2 1-1-31-4-18-11-23-6-10-10-13-8-8-14-9-8-4-16-5-16-8-2-2z" fill="#FEFDFC"/>
<path transform="translate(807,265)" d="m0 0h10l2 1-1 6-1 3-4 3h-2v3l10 2 4 2 19 2v1l-37-1-28 2-29 5-9 1 4-3 10-5h3v-3l-10-2 1-5 5-3 21-5h16z" fill="#FEFCE4"/>
<path transform="translate(1690,417)" d="m0 0 1 3 3 1 3 10 4 20v86l2 14-3-3-2-16-1-43-2-9-2-17-3-7-5-2-6 15-3 16-1 5-2 40v7h-2l-1-2v-18l2-38 3-34 2 3 5-17 6-12z" fill="#FEFBCF"/>
<path transform="translate(195,495)" d="m0 0h8l8 3 7 8 1 4v11l-4 6-6 5-6 2-9-1-8-5-4-5-2-5v-8l5-10 6-4z" fill="#FEF3AA"/>
<path transform="translate(1031,405)" d="m0 0 4 2 5 8 3 8 3 24h1l-1 56-2-4-2-16-1-14-4-15-6-15h-5l-6 10-4 10h-1v-10l1-13 4-16 4-9z" fill="#FEFCCE"/>
<path transform="translate(419,419)" d="m0 0h10l1 1v9l-1 11-2 9-7 69v55h-1l-2-14v-39l6-61 5-36 1-2-37 7-74 13-11 1-1 12-7 58-2 18-1 36-2-4v-41l1-17 1-25-1-14 2-12 4-9 5-4 64-11 26-5 20-4z" fill="#FEFCD4"/>
<path transform="translate(1253,470)" d="m0 0 5 1 9 11 7 8 8 8 10 19 10 13 4 4-1 2-7-7-8-5-8-10-10-9-6-4h-5l-3 25-3-3-5-13-1-17 1-17z" fill="#FEFBCC"/>
<path transform="translate(1257,625)" d="m0 0 5 1 2 4 4 1v2l6 1 21 10 25 10 22 6 24 4 9 1h49l16-2 29-7 21-6 10-4h2v-2l7-2-3 3h-2l-1 3-19 8-20 6-23 5-16 2h-52l-18-2-30-7-23-8-24-11-15-9-4-3-5 2-16 10-6 1v-3l14-8 9-5z" fill="#402416"/>
<path transform="translate(1843,289)" d="m0 0h9l6 4 5 1 17 17 6 7 6 14v10l-2 5-3-4-7-13-8-10-7-7-15-9-8-3v-2l-4-2-3-5 2-2z" fill="#FEFDFC"/>
<path transform="translate(1514,478)" d="m0 0 7 1 6 4 5 9 2 6v17l-4 15-6 12-8 10-17 17-4 3-2-1 8-8 8-7 13-17 4-11 1-23-4-10-4-5-2-1h-8l-16 8-18 5-16 2h-9l-17-2v-1h25l13-2 14-5 25-15z" fill="#FEFDE8"/>
<path transform="translate(83,296)" d="m0 0 2 1v9l-3 19-3 24-4 33-5 38-4 29-5 36-3 22-1 14-3 4v-16l1-4 1-17 5-36 6-48 5-37 4-30 3-22 3-16z" fill="#2D1912"/>
<path transform="translate(237,78)" d="m0 0h50l28 3 10 2 1 3-19-2-38-2h-29l-25 2-21 3-26 6-19 5-25 9-29 13-5 3h-2l2-4 25-13 21-8 27-8 33-7 20-3z" fill="#3F2315"/>
<path transform="translate(630,655)" d="m0 0m-1 1 2 2-9 6-16 9-20 8-26 7-27 5-33 1-22-1-26-5-27-9-6-3 4-1 13 4 14 4 20 4 15 2h42l26-4 27-7 19-7 25-12z" fill="#332019"/>
<path transform="translate(1735,636)" d="m0 0 2 1-10 7-16 9-17 7-23 6-19 3h-40l-19-3-22-6-23-11-8-6 3-1 26 12 18 6 22 4 13 1h27l20-3 20-5 17-7 20-9 6-4z" fill="#30180E"/>
<path transform="translate(1983,523)" d="m0 0h1l1 10 11 16 7 16 4 15v12l-4 16-4 10-8 12-9 11-10 9-19 12-21 10-7 1 3-5 20-9 17-9 11-9 7-7 6-8 7-11 5-17 1-8v-11l-2-10-7-16-11-17-1-6z" fill="#2D1811"/>
<path transform="translate(811,647)" d="m0 0 3 1v2l-21 9-23 6-9 2-15 2h-32l-11-2-10-1-21-6-21-9-2-3 11 3 22 7 15 4 14 2h38l26-5 25-7z" fill="#321D15"/>
<path transform="translate(1206,487)" d="m0 0h8l6 3 6 8 3 9 1 13-2 13-5 13-9 13-15 15-2-1 12-12 9-14 5-11 2-12v-11l-2-9-10-8-6-1-25 8-15 1-8-3-3-3v-3h2l4 4 4 2h9l13-5 16-8z" fill="#FEFDE5"/>
<path transform="translate(1964,291)" d="m0 0 3 1 10 18 9 25 5 21 3 24v63l-1 5h-2v-3h-2v-11l1-16v-26l-1-18-6-31-6-20-13-31z" fill="#2F1A12"/>
<path transform="translate(419,419)" d="m0 0h10l1 1v9l-1 11-2 9-7 69v55h-1l-2-14v-39l6-61 5-36 1-2-37 7-74 13-11 1 1-2 16-3 51-9 37-7z" fill="#FEFDE7"/>
<path transform="translate(285,421)" d="m0 0 3 1h-2l-2 23-4 21-7 30-4 17-3 27h-1v-19l7-64 1 3h2l2-12 3-14 1-9z" fill="#FEFBCD"/>
<path transform="translate(1432,203)" d="m0 0h29l26 2 16 2 1 3-10-1-9-1h-64l-25 3-36 8-13 4h-5v-2l21-7 34-8 19-2z" fill="#352219"/>
<path transform="translate(359,630)" d="m0 0h3l-1 6-7 11-13 15-13 11-19 12-20 9-18 6-20 4h-8l1-3 27-6 21-7 27-12 10-9 8-7 8-8 9-13z" fill="#2F1A11"/>
<path transform="translate(1509,641)" d="m0 0m-2 1 2 1-5 2-1 3-19 8-20 6-23 5-16 2h-48v-2l-12-1-15-2v-2l25 3h49l16-2 29-7 21-6 10-4h2v-2z" fill="#2D1810"/>
<path transform="translate(824,640)" d="m0 0 9 3 19 10 13 4 14 3 29 1 19-1 15-3-2 4-14 3-13 1h-27l-15-2-15-4-16-7-11-7z" fill="#381D11"/>
<path transform="translate(1859,216)" d="m0 0 7 1 15 5 23 11 19 12 14 12 17 17 9 12-2 3-11-13-8-8-4-5-8-7-10-8-15-9-12-7-15-7-19-7z" fill="#2E1911"/>
<path transform="translate(1011,462)" d="m0 0h1l1 40 3 22 5 16 8 16 10 14 9 9 14 9 14 6 17 4 6 1h34l22-4 8-1-2 2-22 5-7 1h-31l-20-4-16-5-11-7-8-6-5-5-8-9-9-13-8-19-4-18-1-8z" fill="#331B10"/>
<path transform="translate(122,689)" d="m0 0 6 1 20 7 20 4 23 2h40l3 2-9 2h-43l-11-2-12-1-22-6-13-5z" fill="#371D12"/>
<path transform="translate(1079,178)" d="m0 0h36l30 6v1h-58l-20 2 5-7z" fill="#FEFCE2"/>
<path transform="translate(1010,627)" d="m0 0 4 1 9 7 16 10 14 7 18 5 19 4 18 2 4 2h-2v2h-12l-26-5-16-5-16-7-14-8-13-10-3-3z" fill="#321C13"/>
<path transform="translate(228,157)" d="m0 0h34l15 1 9 2v1h-42l-27 3-29 6-8 2v2h-2l-2 4-2 2-4-1-2-3 6-3h3v-2l12-4 2 1v-2l26-7z" fill="#FEFCE3"/>
<path transform="translate(806,339)" d="m0 0h7l10 4 6 5 5 9 1 16-3 5-2 1-26 2-32 3-33 5-28 7-19 7-16 8-14 8-4 3-2-1 10-7 18-10 19-8 25-7 25-5 42-5 36-2 1-8v-8l-3-9-5-5-10-5-8-2z" fill="#321A10"/>
<path transform="translate(540,44)" d="m0 0h48l20 2 10 3-4 1-46-2h-24l-26 2h-8l-1-2 6-2z" fill="#361B0F"/>
<path transform="translate(1787,98)" d="m0 0 5 5 6 9 8 18 5 19 2 11v46l-2-3-1-10-1-28-2-14-5-20-8-17-6-11z" fill="#28140E"/>
<path transform="translate(1513,483)" d="m0 0 9 1 6 9 3 5 1 5v8l-3 17-4 9-1-3 2-6 1-23-4-10-4-5-2-1h-8l-16 8-18 5h-5l4-2 16-6 16-9z" fill="#FFFCCD"/>
<path transform="translate(1240,493)" d="m0 0 2 1 4 12 8 17 12 18 9 11 13 13 13 10 16 9 16 7 22 6 18 3 15 2v1h-17l-23-5-17-5-18-8-16-10-13-11-8-6-2-4-7-6-5-7-4-8-7-10-6-12-5-15z" fill="#2F180F"/>
<path transform="translate(816,447)" d="m0 0h8l2 1v13l-5 20-4 8-9 11-3 3h-2l2-4 9-10 5-11 3-13 2-16-26 2-19 3-13 5-10 6-5 7-2 8v15l-2-3-1-9 2-10 4-8 10-7 16-8 15-2z" fill="#FEFDEB"/>
<path transform="translate(755,461)" d="m0 0 2 1-3 3h-2l-1 4-3 7-1 10 2 7 3 4 5 7 12 6 5 1h7l12-4 10-5 1 2-10 6-10 3h-14l-10-4-8-7v-2l-5-2-5-4-2-4v-12l3-8 8-6z" fill="#FEFDE7"/>
<path transform="translate(75,131)" d="m0 0v3l-7 8h-2l-2 4-6 8-6 13-3 11-2 26-2 5-2-2v-25l4-17 5-10 8-11 10-9z" fill="#33180D"/>
<path transform="translate(251,124)" d="m0 0h21l25 2 5 1-4 2h-75l-8-1v-1l18-2z" fill="#FEFDEB"/>
<path transform="translate(1740,638)" d="m0 0 4 1 3 2 2 5 8 7 16 8 26 10 24 6 3 1-1 3-11-1-21-6-15-6-17-9-13-10-8-9z" fill="#3A1F12"/>
<path transform="translate(1638,50)" d="m0 0h29l24 2 24 4 7 3v2l-12-2-16-3-3-1-33-1h-46l4-2 5-1z" fill="#3F291F"/>
<path transform="translate(750,386)" d="m0 0h10l-3 2-23 4-24 6-18 7-17 9-16 10-12 11-7 7-7 11-4 8-2-1 8-15 9-11 10-10 13-9 18-10 20-8 21-6z" fill="#FEFDF7"/>
<path transform="translate(646,571)" d="m0 0 8 6 7 6 13 8 14 6 16 4 9 1h25l16-2 11-3h5l-3 2-13 4-15 3-13 1-21-2-12-3-17-7-15-9-13-11z" fill="#31190E"/>
<path transform="translate(1574,61)" d="m0 0 6 1-3 2-15 6-16 8-11 8-4 2-2 4-8 8-7 8-3 9-3 6-3 1 1-6 8-15 8-10 9-9 13-9 17-9z" fill="#341C11"/>
<path transform="translate(814,449)" d="m0 0h10l-1 16-4 16-5 9-9 10-8 6-9 4-4-1 12-5 7-6 5-5 7-9 4-13 1-10v-5l-19-3-13 1-13 2 1-2 15-3z" fill="#361B0F"/>
<path transform="translate(1227,642)" d="m0 0m-2 1h2l-1 4-14 6-22 7-18 4-13 2h-13v-2l17-3 29-6 24-8z" fill="#321D14"/>
<path transform="translate(649,648)" d="m0 0 11 3 22 7 15 4 14 2 35 1v1l-26 1v2l-12-1-5-1-10-1-21-6-21-9z" fill="#3C2114"/>
<path transform="translate(420,580)" d="m0 0 2 1 6 14 9 12 9 8 16 8 16 5 20 3h28l15-2 12-3h5l-3 2-21 5-15 1h-17l-17-1-21-6-16-8-9-7-9-10-6-10-4-9z" fill="#351C10"/>
<path transform="translate(746,452)" d="m0 0 2 1-6 5-8 13-3 9v19l3 17-4-4-5-11-1-10 3-16 5-10 3-4h2l1-3z" fill="#FFFCCD"/>
<path transform="translate(782,203)" d="m0 0h45l1 3-34 1-18 1-14 2h-15l2-3 24-3z" fill="#381C10"/>
<path transform="translate(1094,104)" d="m0 0h65l20 3 9 3v1l-13-1-15-2-4-1h-52l-14-1z" fill="#331A0F"/>
<path transform="translate(1780,579)" d="m0 0 2 1 4 10 8 11 11 8 12 5 15 4 12 2h29l19-4 14-5 6-3 2 1-14 7-13 4-17 3h-24l-18-3-17-5-11-6-10-9-7-11-3-7z" fill="#361D11"/>
<path transform="translate(53,534)" d="m0 0h2v64l1 4v10l-2-2-3-20v-50z" fill="#2B160F"/>
<path transform="translate(630,655)" d="m0 0m-1 1 2 2-9 6-16 9-20 8-18 5h-4l1-4 21-6 20-8 16-8z" fill="#2F1A12"/>
<path transform="translate(560,466)" d="m0 0h1l1 5v63l4 26-1 4-2-6-4-20-1-9v-33z" fill="#FEFBD6"/>
<path transform="translate(1983,523)" d="m0 0h1l1 10 11 16 7 16 4 15v12l-1 5h-1l-1-13-2-5-2-10-7-16-11-17-1-6z" fill="#341F15"/>
<path transform="translate(419,675)" d="m0 0 9 1 17 6 25 5 15 2 38 1v1h-45l-4 1-17-3-21-6-15-6z" fill="#35190D"/>
<path transform="translate(56,605)" d="m0 0h1l2 10 5 13 8 16 4 6 7 9 5 4 5 7v2l-5-2-8-8-11-15-8-15-6-18z" fill="#3E2317"/>
<path transform="translate(794,253)" d="m0 0h33l29 2-3 2-12 1h-17l-29-1h-6v-1l-10-1v-1z" fill="#FEFDE5"/>
<path transform="translate(122,592)" d="m0 0 2 1 8 16 7 9 9 8 14 8 14 5 14 3 15 1h12l22-1v1l-11 2h-35l-20-4-13-5-14-8-15-15-6-10-3-8z" fill="#331B10"/>
<path transform="translate(621,481)" d="m0 0 1 3v24l2 16 4 14 1 4h2l4 9 7 11v2h2l7 8 12 12-5-2-12-11-11-14-8-14-5-15-3-17v-22z" fill="#FEFDE8"/>
<path transform="translate(1627,126)" d="m0 0h23l19 2 11 3v1l-18-1h-24l-27 3 2-2 13-5z" fill="#FEFCE3"/>
<path transform="translate(425,455)" d="m0 0h1l-1 13-5 50v55h-1l-2-14v-39l6-61z" fill="#FEFCE4"/>
<path transform="translate(1563,570)" d="m0 0 3 3 7 11 7 7 8 5 14 5 19 3h24l17-1-3 2-16 2h-23l-15-2-10-3-12-6-10-9-7-9-3-6z" fill="#341C10"/>
<path transform="translate(1752,340)" d="m0 0h23l8 2 12 6 4 5-5-1-7-4-11-2-36-3 3-2z" fill="#FEFDF7"/>
<path transform="translate(993,142)" d="m0 0 2 1-2 4-9 11-3 5h-2l-5 30v8l2 6-2 2-3-9v-17l4-16 8-15 5-5z" fill="#361E12"/>
<path transform="translate(145,95)" d="m0 0h2v2l2 1-25 9-29 13-5 3h-2l2-4 25-13 21-8z" fill="#3F2416"/>
<path transform="translate(555,119)" d="m0 0 16 2 13 4-4 1-9-1h-28l-27 4h-5l4-2 26-7z" fill="#FEFCE3"/>
<path transform="translate(652,423)" d="m0 0 3 1-13 13-9 13-8 17-4 16-1 6v32h-1l-2-16 1-19 4-18 10-23 8-11 8-8h3z" fill="#32190F"/>
<path transform="translate(1514,478)" d="m0 0 7 1 6 4 5 9 1 4h-2l-5-10-5-4-7-1-10 4-11 7-3 3-16 6-5 2-10 1h-9l-17-2v-1h25l13-2 14-5 25-15z" fill="#FEFDF6"/>
<path transform="translate(1989,453)" d="m0 0h2v22l-4 33-2 2-1 5h-1l1-23 4-32z" fill="#2F1A12"/>
<path transform="translate(1029,291)" d="m0 0h19l16 3v1l-45 3h-7l2-3 6-2v-1z" fill="#FEFCE3"/>
<path transform="translate(1e3 627)" d="m0 0m-1 1m-1 1m-2 1h2l-1 4-12 9-14 8-15 6-10 3h-5l4-4 21-7 8-4 9-5 8-6z" fill="#2D1810"/>
<path transform="translate(1350,662)" d="m0 0 25 3 54 1v2l-4 1h-48v-2l-12-1-15-2z" fill="#2A140C"/>
<path transform="translate(1397,206)" d="m0 0h5l-4 4-16 4-25 6-10 3h-5v-2l21-7z" fill="#3D2113"/>
<path transform="translate(1207,492)" d="m0 0h8l6 3 5 7 2 12-1 15-2 7-1-4 1-10v-9l-2-9-10-8-6-1-25 8h-5l4-2 22-8z" fill="#FFFCCD"/>
<path transform="translate(1735,636)" d="m0 0 2 1-10 7-16 9-17 7-9 2 1-4 16-6 24-11 6-4z" fill="#3F2416"/>
<path transform="translate(1415,354)" d="m0 0 1 2-10 7-6 5-9 13-7 16-3 13-1 11-2 1v-9l2-15 6-15 5-10 7-7 15-11z" fill="#FEFDF9"/>
<path transform="translate(592,476)" d="m0 0h1v63l3 17 5 10-1 2-5-8-4-14-1-11v-56z" fill="#FEFDE9"/>
<path transform="translate(1787,98)" d="m0 0 5 5 6 9 8 18 3 10-1 4-2 3-4-16-8-17-6-11z" fill="#311C14"/>
<path transform="translate(286,690)" d="m0 0 3 1v3l-18 6-20 4h-8l1-3 27-6z" fill="#301A11"/>
<path transform="translate(933,482)" d="m0 0h1l4 21 7 15 5 10 2 3-4-2-9-11-5-11-2-8z" fill="#FEFBCD"/>
<path transform="translate(701,119)" d="m0 0h2l4 16 1 11-1 26-2 2-1-6-2-43z" fill="#3E2E26"/>
<path transform="translate(782,449)" d="m0 0h18l-2 2-19 3-13 5-10 6-5 7-2 8v15l-2-3-1-9 2-10 4-8 10-7 16-8z" fill="#FEFDF3"/>
<path transform="translate(50,168)" d="m0 0 1 3-2 7-2 26-2 5-2-2v-25l2-10h3z" fill="#2F1A12"/>
<path transform="translate(1094,150)" d="m0 0h43l8 1v1l-6 1-21 1h-12l-20-2v-1z" fill="#FEFDEB"/>
<path transform="translate(1164,354)" d="m0 0h17v1h-13l-1 8-2 3-6 53-1 7h-1v-12l5-44 1-14z" fill="#371D10"/>
<path transform="translate(1682,659)" d="m0 0h3l-1 4-18 4-18 2v-1l-25-1v-1l26-1 20-3z" fill="#341F16"/>
<path transform="translate(1507,522)" d="m0 0 2 1-6 7-2 1-2 8-3 3-7 1-10 7-20 9h-2v-2l18-8 10-6 10-9z" fill="#FEF9CC"/>
<path transform="translate(386,428)" d="m0 0h8v1l-83 15-2 1-2 4v-7z" fill="#3E2011"/>
<path transform="translate(192,84)" d="m0 0h6l1 2-23 5-20 5-9 1v-2l16-5z" fill="#301B13"/>
<path transform="translate(1749,369)" d="m0 0h13l11 4 7 6 5 10 1 4v8h-1l-3-13-5-9-5-4-5-2h-25l-15 6v-2l13-6z" fill="#351C10"/>
<path transform="translate(1206,489)" d="m0 0h8l6 4-2 1-3-1h-8l-33 11h-7l-8-3-3-3v-3h2l4 4 4 2h9l13-5 5-1z" fill="#FEFDE5"/>
<path transform="translate(1672,479)" d="m0 0h1l1 7 1 4-2 40v7h-2l-1-2v-18z" fill="#FEF8CB"/>
<path transform="translate(1379,448)" d="m0 0h2l5 16 6 11 11 12 11 7 14 5 5 1v1h-7l-13-5-11-6-9-9-9-15-5-15z" fill="#FEFDF4"/>
<path transform="translate(663,542)" d="m0 0 14 12 19 9 17 5v1h-11l-13-4-15-10-11-11z" fill="#FEFACB"/>
<path transform="translate(1235,417)" d="m0 0h1v49l2 12v7l-2-3-2-10v-11h-2l-1-10 2-16 1-14z" fill="#2A150E"/>
<path transform="translate(755,461)" d="m0 0 2 1-7 6-6 11v7l4 10 2 3-5-2-4-5-1-2v-12l3-8 8-6z" fill="#FEFCCD"/>
<path transform="translate(1531,84)" d="m0 0 2 1-2 3-2 4-8 8-7 8-3 9-3 6-3 1 1-6 8-15 8-10z" fill="#3B2216"/>
<path transform="translate(1416,204)" d="m0 0h6v2h54v1l-55 1-18 2h-5l1-3z" fill="#35190D"/>
<path transform="translate(1142,104)" d="m0 0h17l20 3 9 3v1l-13-1-15-2-4-1h-13l-2-2z" fill="#3A2216"/>
<path transform="translate(60,480)" d="m0 0h1l-1 14-2 13-1 14-3 4v-16l1-4 1-17 1-6z" fill="#3D2316"/>
<path transform="translate(978,514)" d="m0 0 4 2 4 4v5h2l-1 11-5 14-9 14-2 1 2-5 6-10 4-10 1-12-3-7z" fill="#FEFCE1"/>
<path transform="translate(1514,480)" d="m0 0 7 1 7 6 3 6v3h2v4h-2l-7-11-2-4-9-1-9 3-10 6-2-1 14-9z" fill="#FEFDE5"/>
<path transform="translate(124,502)" d="m0 0 1 4-4 39v34h-1l-2-17v-10l3-38 2-11z" fill="#FEFCDE"/>
<path transform="translate(824,640)" d="m0 0 9 3 19 10 3 1v2l4 2-3 1-16-7-11-7z" fill="#2B170F"/>
<path transform="translate(1257,625)" d="m0 0 5 1-1 4-4-1-14 9-7 4h-4v-3l14-8 9-5z" fill="#352017"/>
<path transform="translate(1324,588)" d="m0 0 23 7 18 4 19 2 4 2h-17l-23-5-17-5-7-3z" fill="#361D10"/>
<path transform="translate(1719,381)" d="m0 0v3l-7 7-2 4-1 20-2 16-2 2v-10l2-29 6-9z" fill="#FEFDF9"/>
<path transform="translate(1240,493)" d="m0 0 2 1 4 12 8 17 16 24-2 2-6-8-4-8-7-10-6-12-5-15z" fill="#301A10"/>
<path transform="translate(419,675)" d="m0 0 9 1 17 6 16 4-4 1-2-1v2l-10-2-20-7-6-3z" fill="#31180E"/>
<path transform="translate(1227,642)" d="m0 0m-2 1h2l-1 4-14 6-12 4h-5v-3l21-7z" fill="#33190D"/>
<path transform="translate(1010,627)" d="m0 0 4 1 9 7 16 10 2 2-5 1-10-6-13-10-3-3z" fill="#3D2113"/>
<path transform="translate(1786,403)" d="m0 0h1v30l-4 38-2 4v-15l2-12 2-27z" fill="#30190F"/>
<path transform="translate(821,463)" d="m0 0h1v7l-4 13-6 10-10 10-14 7-4-1 12-5 7-6 5-5 7-9 4-13z" fill="#30190F"/>
<path transform="translate(1926,352)" d="m0 0h1l2 12v36l-2 1-1-31-2-10 1-5z" fill="#FEFDF5"/>
<path transform="translate(849,468)" d="m0 0h2l-2 12-6 15-3 4h-2l2-9 5-12 3-9z" fill="#FEFBD9"/>
<path transform="translate(806,339)" d="m0 0h7l10 4 6 5 5 9 1 16-3 5-2 1h-14v-1l15-1 1-8v-8l-3-9-5-5-10-5-8-2z" fill="#331B10"/>
<path transform="translate(804,380)" d="m0 0h10l-1 2-33 3-11 2h-8l4-3 25-3z" fill="#FEFDF8"/>
<path transform="translate(794,253)" d="m0 0h33l21 2v1h-22l-32-1z" fill="#FEFDF1"/>
<path transform="translate(1925,669)" d="m0 0 3 1-2 4-20 6-8 1 1-4 19-5z" fill="#402517"/>
<path transform="translate(419,419)" d="m0 0h10l1 1v9l-1 11-3 15-2 1 2-21 2-12 1-2-12 2v-3z" fill="#FEFDEC"/>
<path transform="translate(298,80)" d="m0 0h10l17 3 1 3-19-2-19-1-2-2z" fill="#28140D"/>
<path transform="translate(217,703)" d="m0 0h14l3 2-9 2h-31v-2h23z" fill="#29160F"/>
<path transform="translate(818,488)" d="m0 0 1 2-5 8h-2v2l-13 10-8 3-6 1h-11v-1l14-2 12-5 10-9 7-8z" fill="#FFFCCD"/>
<path transform="translate(913,217)" d="m0 0 6 1 19 9 9 6-2 1-12-5-20-10z" fill="#2F180E"/>
<path transform="translate(1258,526)" d="m0 0 4 5 10 14 7 9 11 11h-3l-16-16-11-15-2-3z" fill="#FEFCE0"/>
<path transform="translate(449,499)" d="m0 0h1v15l-2 25-1 6h-1v-23l2-22z" fill="#FEFAC5"/>
<path transform="translate(86,266)" d="m0 0 4 1 1 7-5 17-1 3h-2l1-12 2-10z" fill="#3E261A"/>
<path transform="translate(621,481)" d="m0 0 1 3v24l2 16 1 6h-2l-3-11-1-8v-22z" fill="#FEFDEB"/>
<path transform="translate(580,44)" d="m0 0 20 1 16 3 2 2-28-1-3-3-7-1z" fill="#3A241A"/>
<path transform="translate(425,455)" d="m0 0h1l-1 13-4 38h-1v-19l3-28z" fill="#FEFCDF"/>
<path transform="translate(431,77)" d="m0 0h2v2l-11 7-9 10-6 6-4 1 2-4 7-8 13-10z" fill="#462B1D"/>
<path transform="translate(1453,660)" d="m0 0h5l-1 3-16 4-12 1v-2h-5v-1l16-2z" fill="#351D12"/>
<path transform="translate(1780,579)" d="m0 0 2 1 4 10 8 11 11 8 13 6-1 2-10-4-11-7-9-10-7-14z" fill="#321A0F"/>
<path transform="translate(658,421)" d="m0 0 2 1-20 20-7 11-4 8-2-1 8-15 9-11 10-10z" fill="#FEFDFA"/>
<path transform="translate(734,516)" d="m0 0 22 22-8-1-4-3v-2l-6-7-4-7z" fill="#FEFBC9"/>
<path transform="translate(746,665)" d="m0 0 5 1-2 2-3 1h-26v-2l4-1z" fill="#23110C"/>
<path transform="translate(359,630)" d="m0 0h3l-1 6-7 11-5 3-3 2 2-4 7-11z" fill="#2E1A12"/>
<path transform="translate(1221,541)" d="m0 0 1 2 2 1-7 11-9 10-9 9-2-1 12-12 9-14z" fill="#FEFCDF"/>
<path transform="translate(83,296)" d="m0 0 2 1v9l-3 19-2-4-1-6 3-16z" fill="#381B0E"/>
<path transform="translate(1340,660)" d="m0 0 10 2v2l22 2 5 1v2l-22-2-18-4 3-1z" fill="#3E2A20"/>
<path transform="translate(993,142)" d="m0 0 2 1-2 4-9 11-3 5h-2v2h-2l2-6 7-11z" fill="#351B10"/>
<path transform="translate(627,51)" d="m0 0 9 2 15 6 10 6-1 2-7-3-9-4-7-4-10-3z" fill="#341F16"/>
<path transform="translate(375,639)" d="m0 0 7 6 17 17h-3l-11-9-10-10z" fill="#351D12"/>
<path transform="translate(680,81)" d="m0 0h2l9 11 8 15-1 3-8-13-10-13z" fill="#352017"/>
<path transform="translate(122,689)" d="m0 0 6 1 16 6 1 4-11-3-10-4z" fill="#38241B"/>
<path transform="translate(1478,497)" d="m0 0 2 2-10 3-1 1-10 1h-9l-17-2v-1h25l13-2z" fill="#FEFDE5"/>
<path transform="translate(839,203)" d="m0 0h14l8 1 1 3h-16l-9-1v-2z" fill="#3B2114"/>
<path transform="translate(1563,438)" d="m0 0 2 1v10l-3 22h-2l1-22 1-9z" fill="#FEFDEC"/>
<path transform="translate(1206,487)" d="m0 0h8l6 3 4 5-1 2-6-5-3-2h-8l-16 7v-2z" fill="#FEFDF6"/>
<path transform="translate(751,466)" d="m0 0v3l-3 7-1 10 2 11-3-3-3-8v-7l6-11z" fill="#FEFDE5"/>
<path transform="translate(1163,661)" d="m0 0 8 1 1 2-13 2h-13v-2z" fill="#351D13"/>
<path transform="translate(1112,664)" d="m0 0h9l5 1 17 1v1l-9 1h-15l-9-1v-2z" fill="#4B3528"/>
<path transform="translate(1702,652)" d="m0 0m-3 1h8l-3 3-13 5-6 1 1-4z" fill="#3C2114"/>
<path transform="translate(712,303)" d="m0 0 3 1-18 8-9 6-1 11h-1v-14l8-5z" fill="#FEFCE1"/>
<path transform="translate(437,273)" d="m0 0 1 4-13 3-30 6h-6l4-2 25-5 16-3 3-1z" fill="#351C10"/>
<path transform="translate(1241,148)" d="m0 0 3 3 5 12 2 8v7l-3-1-4-20z" fill="#361E14"/>
<path transform="translate(111,108)" d="m0 0v3l-3 3-16 8-4 1 2-4z" fill="#381C0F"/>
<path transform="translate(1046,447)" d="m0 0h1l-1 47h-1l-1-44z" fill="#FEF7C3"/>
<path transform="translate(425,421)" d="m0 0h4l-3 18h-1l1-13-9-1-11 1 3-2z" fill="#391D10"/>
<path transform="translate(1617,666)" d="m0 0 32 1-1 2h-32z" fill="#21100C"/>
<path transform="translate(1891,520)" d="m0 0h2l3 16 4 13h-2l-5-12-3-11v-5z" fill="#FEFAC7"/>
<path transform="translate(1701,54)" d="m0 0 9 1 11 3 1 3-12-2-16-3v-1z" fill="#30180E"/>
<path transform="translate(1829,264)" d="m0 0h11l17 4 1 2-15-1-3-1-11-3z" fill="#FEFDE8"/>
<path transform="translate(1658,664)" d="m0 0h5l-3 3-8 2-4-1-25-1v-1l26-1z" fill="#30180E"/>
<path transform="translate(845,522)" d="m0 0 5 1 2 4-1 4-3-4-4-1-10 5-4 3h-2v-2l13-8z" fill="#FEFACD"/>
<path transform="translate(479,629)" d="m0 0 38 4v1h-15l-17-1-6-2z" fill="#351B0F"/>
<path transform="translate(1164,354)" d="m0 0h17v1h-13l-1 8-2 3-1 7h-1v-17z" fill="#31170D"/>
<path transform="translate(66,248)" d="m0 0 8 6 9 7 1 3-4-1-12-9-4-5z" fill="#31180E"/>
<path transform="translate(1533,498)" d="m0 0h1v17l-3 12h-2l2-16v-11h2z" fill="#FEFDE9"/>
<path transform="translate(652,423)" d="m0 0 3 1-18 18-1-3 9-10 3-3h3z" fill="#30180E"/>
<path transform="translate(306,683)" d="m0 0m-5 1h5l-1 3-14 6-4-1 2-3z" fill="#2D1810"/>
<path transform="translate(701,119)" d="m0 0h2l3 11-1 3v35h-1l-2-43z" fill="#381B0E"/>
<path transform="translate(1044,577)" d="m0 0 4 2 14 9 14 6-2 2-9-3-11-7-8-6z" fill="#2F180E"/>
<path transform="translate(1890,480)" d="m0 0h1l-1 33-2-2v-23l1-7z" fill="#FEF9CF"/>
<path transform="translate(940,657)" d="m0 0 2 1-2 3-14 3h-6l1-3z" fill="#3E2316"/>
<path transform="translate(1521,634)" d="m0 0h5l-5 5-15 8h-2v-2l6-4z" fill="#442A1C"/>
<path transform="translate(754,206)" d="m0 0h16l-8 4h-15l2-3z" fill="#2F1B14"/>
<path transform="translate(122,592)" d="m0 0 2 1 8 16 7 9 4 5-4-2-8-8-6-10-3-8z" fill="#361C10"/>
<path transform="translate(259,698)" d="m0 0m-7 1h7l3 3-11 2h-8l1-3z" fill="#341C11"/>
<path transform="translate(1037,647)" d="m0 0h6l10 5 6 2-2 1-1 2-16-7z" fill="#30180E"/>
<path transform="translate(1152,441)" d="m0 0 3 1-2 22-1 3h-2l1-16z" fill="#FEFDE6"/>
<path transform="translate(1572,322)" d="m0 0h1v13l-2 19h-2v-10l2-18z" fill="#FEFDF9"/>
<path transform="translate(1509,641)" d="m0 0m-2 1 2 1-5 2-1 3-16 7h-2v-2h2v-2l13-5h2v-2z" fill="#351D12"/>
<path transform="translate(347,431)" d="m0 0m-5 1h5v2l-28 5-3-1 11-4z" fill="#FFFCCD"/>
<path transform="translate(1547,73)" d="m0 0 2 1-1 3-9 6-6 5-3-1 5-6z" fill="#341C12"/>
<path transform="translate(1672,479)" d="m0 0h1l1 7 1 4-1 14-3 1v-12z" fill="#FEF9C7"/>
<path transform="translate(192,84)" d="m0 0h6l1 2-18 4h-7l3-3z" fill="#2D170E"/>
<path transform="translate(1740,638)" d="m0 0 4 1 3 2 2 5 9 8-1 2-10-8-7-8z" fill="#3E2213"/>
<path transform="translate(1397,206)" d="m0 0h5l-4 4-8 2h-8l-2-2z" fill="#412E24"/>
<path transform="translate(216,80)" d="m0 0h7l-2 2h-6v2l-17 1-2-2z" fill="#3D261B"/>
<path transform="translate(267,508)" d="m0 0h1v14l-2 18h-1v-19l1-11z" fill="#FEFAC9"/>
<path transform="translate(1125,498)" d="m0 0 2 1 5 12 6 9h-3l-6-8-4-9z" fill="#FEFBD8"/>
<path transform="translate(1401,488)" d="m0 0 5 1 8 5 14 5 5 1v1h-7l-13-5-11-6z" fill="#FEFDEA"/>
<path transform="translate(1e3 131)" d="m0 0 3 1-5 5-7 6-4 1-5 4 2-4 9-8z" fill="#42291B"/>
<path transform="translate(1269,547)" d="m0 0h2l7 8 14 14-5-2-7-6-4-4-6-7z" fill="#28140D"/>
<path transform="translate(144,697)" d="m0 0 9 1 3 1v2l7 1v2l-7-1-11-3z" fill="#351F16"/>
<path transform="translate(1597,663)" d="m0 0 25 2v1l-5 1-1 2-9-1v-2l-10-1z" fill="#33190D"/>
<path transform="translate(441,682)" d="m0 0 9 1 11 3-4 1-2-1v2l-10-2-4-2z" fill="#382116"/>
<path transform="translate(1e3 627)" d="m0 0m-1 1m-1 1m-2 1h2l-1 4-12 9v-3l5-5z" fill="#39241A"/>
<path transform="translate(100,678)" d="m0 0 5 1 11 6 1 4-12-6z" fill="#32190F"/>
<path transform="translate(1540,642)" d="m0 0 5 1 13 6-4 3-12-7z" fill="#391F13"/>
<path transform="translate(1514,550)" d="m0 0 1 3-16 16-4 3-2-1 8-8 8-7z" fill="#FEFCE1"/>
<path transform="translate(783,447)" d="m0 0m-4 1 4 1-13 6-11 6-2-1 5-4z" fill="#FFFCCD"/>
<path transform="translate(1233,435)" d="m0 0h1v26h-2l-1-10z" fill="#35190D"/>
<path transform="translate(1708,402)" d="m0 0h1v13l-2 16-2 2v-10l1-9 1-1z" fill="#FEFDF2"/>
<path transform="translate(1271,211)" d="m0 0 9 2 8 3v3l-10-3-7-2z" fill="#341F16"/>
<path transform="translate(321,674)" d="m0 0m-1 1 2 2-15 9-1-2-3-1 16-7z" fill="#331A0E"/>
<path transform="translate(561,538)" d="m0 0 2 4 3 18-1 4-2-6-3-14v-5z" fill="#FEF9C7"/>
<path transform="translate(329,438)" d="m0 0h6l-3 2-21 4-2 1-2 4v-7z" fill="#371C10"/>
<path transform="translate(1308,414)" d="m0 0 3 1v6l-1 2-5-1-1-5z" fill="#FFD45E"/>
<path transform="translate(1381,398)" d="m0 0h2l-2 12-1 11-2 1v-9l1-11z" fill="#FEFDF6"/>
<path transform="translate(1257,625)" d="m0 0 5 1-1 4-4-1-7 4-1-4z" fill="#27130D"/>
<path transform="translate(1776,375)" d="m0 0 4 2 5 7 3 10v6l-2-2-3-11-5-9z" fill="#FEFDF8"/>
<path transform="translate(54,153)" d="m0 0 1 4-6 12-3 1 3-10z" fill="#35231B"/>
<path transform="translate(505,48)" d="m0 0 5 1v2l-13 3h-3l-1-3z" fill="#4A3021"/>
<path transform="translate(524,45)" d="m0 0h12v2l-6 1h-15v-2z" fill="#38251C"/>
<path transform="translate(1081,559)" d="m0 0 6 1 16 4 1 2h-8l-10-3z" fill="#FEF9C2"/>
<path transform="translate(177,172)" d="m0 0h3v2h-2l-2 4-2 2-4-1-2-3z" fill="#FFFCCD"/>
<path transform="translate(976,165)" d="m0 0h2l-2 18-3-3-1-2z" fill="#3C2113"/>
<path transform="translate(84,123)" d="m0 0 3 1-9 8-4 1-4 2 4-5zm-16 12 2 1-3 3-2-1z" fill="#452E21"/>
<path transform="translate(1085,105)" d="m0 0 19 1v1l-28 2 3-3z" fill="#412517"/>
<path transform="translate(466,589)" d="m0 0 5 1 13 4 5 1v2h-7l-8-3-8-4z" fill="#FEF9C2"/>
<path transform="translate(978,514)" d="m0 0 4 2 4 4v12l-2-1-2-9z" fill="#FFFCCD"/>
<path transform="translate(930,224)" d="m0 0 6 2 11 7-2 1-12-5-3-2z" fill="#32190F"/>
<path transform="translate(739,209)" d="m0 0h7l-4 3-13 3-2-1 2-3z" fill="#351B0F"/>
<path transform="translate(1898,677)" d="m0 0m-8 1h8l2 2-4 2h-16v-1l10-1z" fill="#2C1811"/>
<path transform="translate(865,557)" d="m0 0 6 2 8 3 7 2v1h-8l-8-3z" fill="#FEFAC9"/>
<path transform="translate(973,509)" d="m0 0 12 6 3 5v5h-2l-2-6-4-4-7-4z" fill="#FEFDEA"/>
<path transform="translate(1475,322)" d="m0 0 10 1 6 3v1h-7l-10-3z" fill="#FEFDF7"/>
<path transform="translate(455,686)" d="m0 0 22 4v2l-16-2-6-2z" fill="#2C170F"/>
<path transform="translate(1271,545)" d="m0 0 4 4 7 8 8 8h-3l-16-16-1-3z" fill="#FEFCDB"/>
<path transform="translate(560,508)" d="m0 0h1l1 30h-3z" fill="#FEFBD0"/>
<path transform="translate(652,479)" d="m0 0h1l-1 8-3 14h-1l1-17z" fill="#FEFBDB"/>
<path transform="translate(716,214)" d="m0 0h9v2l-8 2h-9l1-2z" fill="#392217"/>
<path transform="translate(1771,83)" d="m0 0 4 2 8 7 2 3h-3l-11-10z" fill="#361F14"/>
<path transform="translate(1227,642)" d="m0 0m-2 1h2l-1 4-11 5h-2v-2l5-1 1-3z" fill="#3B2419"/>
<path transform="translate(1499,532)" d="m0 0h1l-1 7-3 3-5-1 6-7z" fill="#FFFCCD"/>
<path transform="translate(83,296)" d="m0 0 2 1v9l-3 6h-1v-10z" fill="#2B150D"/>
<path transform="translate(229,702)" d="m0 0h14l1 3-12 1z" fill="#45291A"/>
<path transform="translate(1507,522)" d="m0 0 2 1-6 7-8 7-4 2 6-7z" fill="#FEF8BE"/>
<path transform="translate(816,486)" d="m0 0 1 3-9 11-3 3h-2l2-4 9-10z" fill="#FEFDF0"/>
<path transform="translate(1732,62)" d="m0 0 6 1 8 4-1 2-16-5z" fill="#2E170E"/>
<path transform="translate(1621,51)" d="m0 0 10 1 1 2h-20l4-2z" fill="#3E2214"/>
<path transform="translate(560,466)" d="m0 0h1l1 5v12l-2 4h-1z" fill="#FEFAD4"/>
<path transform="translate(1574,297)" d="m0 0h1v13l-1 6-2-4v-8z" fill="#FEFEFD"/>
<path transform="translate(959,223)" d="m0 0h2l1 3-10 7-1-3z" fill="#351A0E"/>
<path transform="translate(75,131)" d="m0 0v3l-7 8-4 2-3-1 9-8z" fill="#30160C"/>
<path transform="translate(646,568)" d="m0 0 7 6 10 9h-3l-11-9-3-3z" fill="#FEFCE0"/>
<path transform="translate(1156,495)" d="m0 0h2l4 4 8 3 4 2h-7l-8-3-3-3z" fill="#FEFCDF"/>
<path transform="translate(1188,496)" d="m0 0h4v2l-15 5h-7v-1l11-3z" fill="#FEFDE9"/>
<path transform="translate(86,266)" d="m0 0 4 1 1 7-4 4h-1z" fill="#2C160D"/>
<path transform="translate(878,260)" d="m0 0 12 3 5 2v2l-12-3-6-2z" fill="#FEFDEA"/>
<path transform="translate(52,593)" d="m0 0h2l2 9v10l-2-2z" fill="#2D180F"/>
<path transform="translate(1672,504)" d="m0 0 2 1-1 25h-1l-1-25z" fill="#FFFCCD"/>
<path transform="translate(1509,112)" d="m0 0 3 1-4 10-3 1 1-6z" fill="#3E2215"/>
<path transform="translate(1174,107)" d="m0 0 10 1 4 3-13-1-6-1v-1z" fill="#2E170E"/>
<path transform="translate(1494,489)" d="m0 0 2 1-6 5-7 3-4-1z" fill="#FEFDF3"/>
<path transform="translate(1490,206)" d="m0 0 13 1 1 3-10-1-4-1z" fill="#331E14"/>
<path transform="translate(1472,204)" d="m0 0 15 1 3 1v2l-14-1v-2z" fill="#3C261B"/>
<path transform="translate(111,108)" d="m0 0v3l-3 3-4 2-4-1 3-3z" fill="#331A0F"/>
<path transform="translate(690,95)" d="m0 0h3l6 12-1 3-8-13z" fill="#361B0F"/>
<path transform="translate(646,571)" d="m0 0 8 6 7 6 3 3-4-1-11-9-3-3z" fill="#2F180F"/>
<path transform="translate(1930,546)" d="m0 0 9 6 4 5v7h-1l-2-7-7-7-3-2z" fill="#FEFCE0"/>
<path transform="translate(706,360)" d="m0 0 1 2-12 7-6 1 3-3z" fill="#FEFDF4"/>
<path transform="translate(1219,125)" d="m0 0 4 1 8 7 3 3-1 3-7-8-7-5z" fill="#361D11"/>
<path transform="translate(312,81)" d="m0 0 13 2 1 3-13-2z" fill="#341E15"/>
<path transform="translate(1829,680)" d="m0 0 15 1 1 2h-13l-3-1z" fill="#2B170F"/>
<path transform="translate(864,206)" d="m0 0h11l5 2v2l-8-1-8-2z" fill="#2C160D"/>
<path transform="translate(1925,669)" d="m0 0 3 1-2 4-8 2 1-4z" fill="#42281B"/>
<path transform="translate(1402,206)" d="m0 0h10l-3 2-6 2h-5l1-3z" fill="#24110C"/>
<path transform="translate(1241,148)" d="m0 0 3 3 4 9v5h-2l-4-13z" fill="#341A0F"/>
<path transform="translate(65,142)" d="m0 0v3l-8 7-2-1 5-7z" fill="#381F14"/>
<path transform="translate(1192,111)" d="m0 0 7 1 11 5-3 2-4-3-11-3z" fill="#503F35"/>
<path transform="translate(1453,660)" d="m0 0h5l-1 3-10 2 2-4z" fill="#37241B"/>
<path transform="translate(1331,658)" d="m0 0 8 1 1 3h-7l-5-2z" fill="#2F180E"/>
<path transform="translate(1556,650)" d="m0 0 6 1v2l6 3-4 1-9-5z" fill="#2B160E"/>
<path transform="translate(1577,590)" d="m0 0 5 2 6 4 5 2v2l-5-1-10-7z" fill="#2D170F"/>
<path transform="translate(749,493)" d="m0 0 3 4 5 7 4 4-5-2-4-4v-2h-2z" fill="#FEFDEE"/>
<path transform="translate(1964,291)" d="m0 0 3 1 4 8v6l-2-2z" fill="#341A0E"/>
<path transform="translate(1557,68)" d="m0 0h2l-2 4-8 4-2-1 4-4z" fill="#2B160E"/>
<path transform="translate(1593,599)" d="m0 0 9 2 5 1-2 2-8-1-4-2z" fill="#321A10"/>
<path transform="translate(1989,445)" d="m0 0h2v3l2 1-1 13h-1v-9h-2z" fill="#4F3425"/>
<path transform="translate(74,257)" d="m0 0 6 1 4 5-3 1-7-5z" fill="#331E15"/>
<path transform="translate(1721,58)" d="m0 0 12 3-1 2-10-1z" fill="#3A261C"/>
<path transform="translate(511,47)" d="m0 0 17 1v1l-18 1-1-2z" fill="#32180D"/>
<path transform="translate(1340,660)" d="m0 0 10 2-2 3-11-2 3-1z" fill="#472C1D"/>
<path transform="translate(1522,541)" d="m0 0 1 2-7 9-1-4 5-6z" fill="#FEFDEC"/>
<path transform="translate(55,511)" d="m0 0 2 3v7l-3 4v-12z" fill="#2B140C"/>
<path transform="translate(1533,498)" d="m0 0h1v15l-2-2-1-11h2z" fill="#FEFDEE"/>
<path transform="translate(1221,495)" d="m0 0 4 1 4 11v3h-2l-3-10-3-3z" fill="#FEFDE8"/>
<path transform="translate(1214,488)" d="m0 0 5 1 5 6-1 2-6-5-3-2z" fill="#FEFDF9"/>
<path transform="translate(770,454)" d="m0 0v3l-11 6h-3l3-3z" fill="#FEFDEB"/>
<path transform="translate(1237,413)" d="m0 0 2 1-1 11-2 4v-11z" fill="#FEFDF8"/>
<path transform="translate(453,386)" d="m0 0h5v2l-4 1h-11l2-2z" fill="#FEFDF3"/>
<path transform="translate(883,209)" d="m0 0h7l6 2v1h-10l-4-2z" fill="#2D170E"/>
<path transform="translate(132,208)" d="m0 0 15 3-1 2-12-2z" fill="#FEFDE9"/>
<path transform="translate(1502,157)" d="m0 0h2l1 5v9l-2-2-1-4z" fill="#32190E"/>
<path transform="translate(396,112)" d="m0 0h1v5l-4 3h-2l1-5z" fill="#321D14"/>
<path transform="translate(1817,676)" d="m0 0 9 2-1 3-8-1z" fill="#2B140C"/>
<path transform="translate(1804,610)" d="m0 0 5 1 9 4-1 2-10-4z" fill="#30190F"/>
<path transform="translate(1248,516)" d="m0 0 3 1 6 12-3-1-6-10z" fill="#2C170F"/>
<path transform="translate(1512,188)" d="m0 0 4 2 3 6-3 1-4-6z" fill="#402416"/>
<path transform="translate(328,85)" d="m0 0 7 1 7 3-3 1-12-3z" fill="#351C10"/>
<path transform="translate(419,675)" d="m0 0 9 1 3 2v2l-6-1-6-3z" fill="#341A0E"/>
<path transform="translate(1239,635)" d="m0 0 2 1-3 5-6 1v-3z" fill="#2C150D"/>
<path transform="translate(295,524)" d="m0 0 2 1-1 10-2 2v-11z" fill="#FEFCD7"/>
<path transform="translate(302,464)" d="m0 0 2 1-1 12h-2v-9z" fill="#FEFDE6"/>
<path transform="translate(319,438)" d="m0 0 2 1-3 2-11 1 1-2z" fill="#FEFCE2"/>
<path transform="translate(1829,264)" d="m0 0h11l2 2-2 2-11-3z" fill="#FEFDED"/>
<path transform="translate(1397,206)" d="m0 0h5l-4 4-2 1h-6l4-4z" fill="#3A2317"/>
<path transform="translate(156,699)" d="m0 0 12 2 1 3h-6v-2l-7-1z" fill="#2F170D"/>
<path transform="translate(1198,653)" d="m0 0m5 0 4 1-7 3h-5v-3z" fill="#2D170E"/>
<path transform="translate(1010,627)" d="m0 0 4 1 4 4v2l-4-1-4-4z" fill="#31190E"/>
<path transform="translate(783,432)" d="m0 0h8l-3 2-8 2-4-1h3v-2z" fill="#FEFCEA"/>
<path transform="translate(832,372)" d="m0 0 2 4-4 3h-14v-1l15-1z" fill="#2C160E"/>
<path transform="translate(1416,204)" d="m0 0h6v2l-2 1h-8l-2-2z" fill="#3F2B20"/>
</svg>
