<?xml version="1.0" encoding="UTF-8"?>
<svg version="1.1" viewBox="0 0 1536 1024" width="1536" height="1024" xmlns="http://www.w3.org/2000/svg">
<path transform="translate(744,218)" d="m0 0h22l21 3 21 6 16 7 18 10 13 10 14 12 11 12 12 17 9 17 5 15v9l-2 3-6 1-9-3v10l-5 16-3 3-4 1 7 11 7 14 5 14 5 25 4 14 6 9 7 8 7 6 1 4-4 4-5 2 2 5 9 16 5 13 1 8 6 1 3 3v2l14-11 6-1 4 3 3 14 1 7v25l-3 24-5 19-5 16-8 18-6 11-10 14-1 3 5-3h5l1 7-3 9-4 6-1 2 9-6 3-7 4-15 5-10 7-8 14-8 6-2h5l2 2v9l-4 12-7 11-9 8-21 10-9 5 9-2 13-4 9-7 10-4 5-1h9l11 4 4 3-2 5-9 7-10 4-11 1-13-4-4-2-12 1v2h7l9 3 8 6 4 6-1 5-7 3-5 1h-18l-13-4-1 1-4 3h-12-2v1l-21 1h-6l1 5 4 2-12 3h-7l-9-3 4 2 3 2-8 2-38 5-26 2h-73l-12-1-2-5 10 1 4 1h17l-23-2-19-3-21-5-19-6v4l-16-1-7 1-9-2v-1l14-1 2-5 4-1-10-5-8 10-1 1h-9l-8-3-6-3-3-4-10 5-5 2h-14l-3-2 1-4 6-6-16 6-6 1h-13l-11-3-4-3 1-6 5-6h2v-2l11-6 6-1h11l7 1-12-6-13-3-11-6-7-7-7-15-1-4v-8l4-3 9 1 9 4 8 5 5 5 6 8 4 9 1 9h2l2 5 9 7-3-4-4-8-2-6v-8l4-2 9 4 4 3-9-11-11-18-9-21-5-15-5-24-1-7v-38l3-14 3-4h6l8 7 5 5 7-6 5 1 1-4 4-12 9-17 4-5h-10l-8-4v-5l16-15 6-7 5-10 3-11-4-1-3-5-2-2-6 8h-5l-4-6-3-13-1-14v-11l3-25 6-23 8-19 11-21 12-17 12-13 13-13 15-11 16-9 15-7 19-6 16-3z" fill="#43250C"/>
<path transform="translate(558,517)" d="m0 0 5 3 9 9 9 15 6 9v2l-6 2-2 4-1 10h1l2-8 2-4 9-3h11l6 8 6 1 2 3h-3l2 1v9l7 14 6 9-2 9 5-11 7-7 5-3h2l5 5-2-5v-5h9l2-3 1-6 10 6h8l2-3 1-11h9l2-3v-13l13-10 20-14 4-1 12 7 14 10 17 12 5 18-2 4-3 3 7-3 8 7 3 3v2l3 1-1 10-3 6-3 3h-2l-2 5-3 4 2 14-7 9-2 4v13l1-11 6-10 3-3v-16l7-8 5-5 2-13 1-2-2-1v-2h-2l-6-8 2-6 7-8 13-11 14-12 3-2 4 1 8 5-3 13 1 11 7 1 6-3 1 10 4 4h6l9-6 2-1 2 5 2 2 6-1 9-6 6-5 4 5 2 9v3l1-1 1-16 2-3-4-2 11-11 2-1h8l13 3 4-7 9-12 6-13-5 8-4 3-1 6-7 8-4 3h-3l2-5 9-11 5-8 9-7 5-2 2 6 1 8v35l-4 25-6 21-8 20-9 16-14 19-18 18-17 12-16 9-14 6-18 6-16 4-18 3-28 2h-33l-26-2-27-5-23-7-23-10-14-8-14-10-12-11-13-13-11-15-8-13-8-17-5-14-6-25-2-20v-23l2-15z" fill="#F3E1C4"/>
<path transform="translate(1166,392)" d="m0 0h22l13 4 10 6 8 8 6 10 4 14 1 8v118h7l10 3 6 3 10 9 5 9 4 13v17l-3 12-5 10-9 10-16 8-10 1v26l-5 15-9 11-14 8-12 3h-20l-12-3-10-5-9-8-6-10-2-5-2-13v-18h-80l-17-4-11-7-6-5-6-8-5-12-2-12v-11l3-17 5-12 9-13 9-12 14-18 13-16 10-13 14-18 11-14 13-16 21-27 12-14 11-8 11-5z" fill="#F3E1C5"/>
<path transform="translate(411,392)" d="m0 0h12l14 3 12 6 5 4 7 9 4 8 3 11 1 7v22l-1 98 10 1 13 5 10 9 5 9 4 13v19l-4 14-7 11-8 7-10 5-7 2h-6v19l-3 15-6 12-9 9-12 6-11 3h-21l-13-4-11-7-9-10-4-9-3-16v-17h-83l-11-3-10-5-10-9-4-5-6-15-2-9v-12l3-16 7-16 10-14 14-18 11-14 10-13 14-18 10-13 12-15 11-14 13-16 9-11 9-10 9-8 14-7z" fill="#F3E1C5"/>
<path transform="translate(744,321)" d="m0 0 10 2 13 5 2 2v2h-7l2 6 6 2 4 5v2h-2v6l4 1 5 6-1 2-10-9h-3l-1 2-13 2v3l-5 2h-9l-5-1v2l-14 3v2l5 3-3 3h-2v2h-2l1 5-4 1 1 5v4l1 2 13-1 11-5h8l-3-7h3l4-4 8 3 7 8 5 1 10-2 3 2 4 9h4l-3-10 1-3 3 6 2 27-3-4-3-1-2 9-7-2-1-4-9-4-1-13-3-6-1-1v6l-2 2-3-6-4-2-5 5-7 8-15 11-19 10-22 8-17 6-9 4-6 4 1 3-2 1 11 3 21-1v-2h-2v-2l20-4 21-8 15-8 13-10 6-8h2v7l-4 8 2 6 4 8 1 6v18l-5 12-5 7-8 6-9 3h-19l-4-2v-3l11 2 12-1 2-1h-14l-9-5-6-7-3-8-1-10 1-4-9 2v13l5 10 1 5h-3l-3-3-10-3-17 2v2h6v1l-13 4-3 4 7-1-6 7-2 3v3h7l7-1-5 10v3l10-1 4-1-4 9v2h10l-1 7 1 1h9l-1 5 4 1-5 5-5 3-3-1-9-14-5-6-10-6-10-4-10-2-5-9-3-9-1 4 3 11 2 4-10 3-5 2-1 2 5-2 8-1h12l9 2 10 6 7 6v2h2v3h2l6 12 2 8v5l-2 2-5-1-7-7-7-8-5-6-3-1 8 9 6 10 3 12-1 6-3 1-10-6-11-11-6-7h-2l7 11 4 8v7l-8-1-13-7-13-11-4-6 1 7 2 5 4 1 9 8 15 8 3 12-3-2v-2l-3-1v-2l-9 6-5 5-5 12-1-3 2-8-6-9-7-14v-7l1-2-3-1 3-1-3-2-6-1-2-4-2-3h-11l-9 2-1 4-3 9-2-1 1-10 4-6h5l-1-5 4 4h6l1-2-5-1-2-8v-16l4-15 8-16 12-18 2-4-7 3h-14l-3-3 9-8h2v-2l15-10 4-2-4-1h-2l1-6 5-16 6-18 2-4 5-2-3 10-4 13h7v-3l2-5v-4l-1-4 5-3 4-4 5-6 2-7 7-6 6-3 3-3 2-4 6-4 4-5 4-3 2-7 10-4 2-4 8-1 5-1 5-5 14-4v-2l5-1 9 3h7l-4-8-5-3z" fill="#723E11"/>
<path transform="translate(768,330)" d="m0 0 5 2 10 8 7 10 1 2v-8l-1-3v-7l7 1 5 10 1 1 2 9 4-9 2-1h8l5 5v2l10 2 5 4-4-4v-2l6 2 11 7 2 4-2 1 4 4 3 6-1 4-7-10-1 5 4 4 1 5h-2l-3 11h-2v-2h-8l-5-1-3 1-2-1-1-6-2-1-2 7v2l8 10 10 9 16 9 16 6 9 5 2 4 4 4-1 1v5l-6 3h-4l1-4-11-2-14-5-13-7-11-8-7-8-1-2v9l3 4-1 4-4 11-1 5v12l3 12-7-6-8-7-2-1h-11l-9 6-9 11-8 11-7 9-1 2v8l14 1 15 4 3 1h12l16-9 12 1v-11l-4-11 4 2 10 4h11l10-4 8-9 10-2 1 2 7 4 4 6-2 1-6-1 5 8 1 6-7-1-2-1 2 5v5h-4v8l-12 3-12 7-8 7-5 7-2 4-5-1-7-4-5 1-15 12-2-1 1-2-9 1-5 5-7 1-3 7-1 2-6-5-7-8-14-10-18-12-7-4-8 1-15 10-4 3-5-1 1-5-9 1-2-2 1-6h-9l-1-3 4-8-7 2h-6l-1-4 4-8v-1l-5 1h-7l-1-4 8-9h-6l2-4 9-4-1-3 14-3 10 2 5 3 3 2-1-5-5-10v-13l1-1 9-1v9l3 11 6 8 9 5h17l-2 2-9 2-12-1-5-2 1 3 3 1h19l10-4 7-5 5-7 4-11v-18l-2-9-5-9 4-10 1-7-5 5-5 6-13 9-15 8-19 7-13 3h-7v2h2v2l-3 1-18 1-13-4 3-2-2-2 10-6 7-3 20-7 21-8 17-9 12-9 6-5 4-5h2l2-4h3l6 6v-7l5 5 1 3v13l7 2 3 2 1 4 6 2 2-9 4 1h1l-2-24-2-2 2 10-4 1-3-4-1-6-4-1-10 2-5-2-6-7-8-3-3 1-1 3-1 1 1 5-10 2-9 4h-7l-6 1-2-3 1-3-4-2h3v-4l3-1v-5h2v-2l4-3-6-4 2-2 7-2h7v-2h14l5-1v-3l6-2h7v-4l5 2 9 8-4-5v-2l-4-1v-6h2l-4-6-6-3-2-3v-3l6-1z" fill="#BF792C"/>
<path transform="translate(745,224)" d="m0 0h21l25 4 21 7 17 8 18 12 11 9 17 17 10 14 9 15 6 15-1 4-7-10-1 1h-6l-3-2-3-5 1-3h2 3v2l4 1-3-5-8-6h-5l4 1-1 5-12-1-8-1-6-7 4 1 5-2-7-8-15-14-3-1-15 4-10 4-6 1-13-8-3-3-13-6h-4l1 4v8l-7 14-4 4-14 5h-1l-2 7-6 18-5 3-4 2-27-2-7-1-4-5v-2l17 1-18-2 1-6 4-8-5 4-4 12-8 11-2 4 9-12 4 1 1 3-13 22-5 8-4 2-7 8-2 2h-8l3-1-2-5h-8l-13 2-5-1 1-12-3 9-2 10-8 19-6 7-8 17-1 5-2-3-2-12v-24l3-21 5-20 7-18 8-16 10-16 13-16 13-13 14-11 20-12 16-7 17-5z" fill="#F3E1C5"/>
<path transform="translate(1166,392)" d="m0 0h22l13 4 10 6 8 8 6 10 4 14 1 8v118h7l10 3 6 3 10 9 5 9 4 13v17l-3 12-5 10-9 10-16 8-10 1v26l-5 15-9 11-14 8-12 3h-20l-12-3-10-5-9-8-6-10-2-5-2-13v-18h-80l-17-4-11-7-6-5-6-8-5-12-2-12v-11l3-17 5-12 9-13 9-12 14-18 13-16 10-13 14-18 11-14 13-16 21-27 12-14 11-8 11-5zm0 17-10 4-8 6-6 5-11 14-13 16-6 8-10 13-13 17-10 12-11 14-10 13-8 10v2h-2l-8 11-10 13-7 11-4 14v18l3 10 7 10 8 5 11 3h98v36l3 12 6 8 8 5 9 2h12l13-3 10-9 3-5 2-9v-37h17l13-4 8-8 4-11v-19l-4-10-8-7-5-2-8-1h-17v-135l-2-10-5-10-7-7-8-4-4-1z" fill="#41240C"/>
<path transform="translate(411,392)" d="m0 0h12l14 3 12 6 5 4 7 9 4 8 3 11 1 7v22l-1 98 10 1 13 5 10 9 5 9 4 13v19l-4 14-7 11-8 7-10 5-7 2h-6v19l-3 15-6 12-9 9-12 6-11 3h-21l-13-4-11-7-9-10-4-9-3-16v-17h-83l-11-3-10-5-10-9-4-5-6-15-2-9v-12l3-16 7-16 10-14 14-18 11-14 10-13 14-18 10-13 12-15 11-14 13-16 9-11 9-10 9-8 14-7zm-1 17-13 4-10 7-9 9-8 10-9 11-7 9-22 28-9 11-7 9-30 39v2h-2l-20 28-4 9-2 10v14l3 11 5 8 7 6 10 4 7 1h93l1 32 2 13 6 9 6 5 10 3h18l10-3 10-9 4-11 1-39 19-1 9-3 8-7 3-5 2-7v-18l-3-9-7-8-6-3-6-1-19-1v-136l-2-11-6-10-8-6-13-4z" fill="#40240B"/>
<path transform="translate(801,325)" d="m0 0 18 4 16 8 14 9 15 14 11 14 9 17 5 13 5 18 3 18 4 11 7 9 8 7 4 3v2l-2 1-12 1 9 13 11 22 2 7v7l-2-2-5-10-2-1v8l1 3v10l-6-2 2 9-5 5-3-1-3 8-6 3-5 7-9 7-7 2 1-9 3-6-1-1-12 18-7 6-6 1-1-1v-13l4-11 3-5-1-1-12 16-7 4-2-4 1-10 5-12 5-7 5-5 8-6 11-5 3-1h21l-7-3v-2h2l2-4v-6l-7 7-3 4-5-1-1-8 5 1-2-10 9 2-4-10-3-3 1-2 7 1-4-6-7-4v-2l-10 3-8 9-10 4h-11l-10-4-3-2 4 10v9l-3 3-10-1-16 9h-12l-14-4-16-2-3-3v-6l6-9 9-11 8-11 8-7 4-2h11l9 7 6 5-1-5-1-4v-12l3-12 3-5-1-4-2-3v-10l4 4 6 7 10 7 15 8 16 5 7 2-1 4 10-3-1-6v-2l-3-2-2-4-13-6-15-6-13-8-10-9-7-9-2-2 2-2 2-6 3 1v6l8-1 10 2v2h2l2-12 3 1-2-7-4-2 1-6 4 4 4 6-1-4-3-6-3-4h3l-5-5-14-8 6 8-4-2-5-4-8-2-5-6h-10l-1 5-3 7h-1l-1-5v-7l2 1v-12z" fill="#B66E24"/>
<path transform="translate(375,700)" d="m0 0 5 5 8 6 5 3 13 4h21l13-4 10-5 8-8h14l13 2 9-1 13-2h21l4 6 8 3 5 1h13l12-3 9-4 2 1-7 7v3l2 1h14l14-6h3l1 4 10 3 4 2h9l7-8 2-3 10 5 1 2-5 1-2 5-11 1 10 1 9-1 10 2-1-5 11 3 20 6 20 4 17 2 24 2v1h-27l-13-3 3 4 11 1h73l34-3 36-5-4-1v-2l-2-1 2-2v2l8 2h7l8-2-2-7v-1h13l12-1-1-2 6 1h12l3-3 1-2 9 4 5 1h18l10-3 2-1-1-6-1-4h11l22 4 18 5 3 2v3l-8 4-20 5-20 3-25 2 9 3v1l-15 3-7-1-1-4-12 2-1 4-33 5-45 4-53 2h-65l-54-2-38-3-27-3-30-5-13-3-5-5-21-4v3h-2v2l-4 2h-16l-5-2-1-1v-7l-10-1-3-1-16 2-22 3-16 1h-67l-16-1h-29l-19-2-2-2h15l9 1-16-6-2-4 6-4 25-5z" fill="#E1D5C3"/>
<path transform="translate(766,418)" d="m0 0 3 4 3 10 1 9v18l-3 15h6l-2 5-11 13-2 4v8l14 1 15 4 3 1h12l16-9 12 1v-11l-4-11 4 2 10 4h11l10-4 8-9 10-2 1 2 7 4 4 6-2 1-6-1 5 8 1 6-7-1-2-1 2 5v5h-4v8l-12 3-12 7-8 7-5 7-2 4-5-1-7-4-5 1-15 12-2-1 1-2-9 1-5 5-7 1-3 7-1 2-6-5-7-8-14-10-18-12-7-4-8 1-15 10-4 3-5-1 1-5-9 1-2-2 1-6h-9l-1-3 4-8-7 2h-6l-1-4 4-8v-1l-5 1h-7l-1-4 8-9h-6l2-4 9-4-1-3 14-3 10 2 5 3 3 2-1-5-5-10v-13l1-1 9-1v9l3 11 6 8 9 5h17l-2 2-9 2-12-1-5-2 1 3 3 1h19l10-4 7-5 5-7 4-11v-18l-2-9-1-4 1-2-1-7z" fill="#F3E1C4"/>
<path transform="translate(984,633)" d="m0 0h5l2 2v9l-4 12-7 11-9 8-21 10-9 5 9-2 13-4 9-7 10-4 5-1h9l11 4 4 3-2 5-9 7-10 4-11 1-13-4-4-2-12 1v2h7l9 3 8 6 4 6-1 5-7 3-5 1h-18l-13-4-1 1-4 3h-12-2v1l-21 1h-6l1 5 4 2-12 3h-7l-9-3 4 2 3 2-8 2-38 5-26 2h-73l-12-1-2-5 10 1 4 1h26l36-1 30-4 24-5 22-8 19-9 12-8 11-8h3l2-4 9-8 9-11 8-4h5l1 7-3 9-4 6-1 2 9-6 3-7 4-15 5-10 7-8 14-8z" fill="#47280D"/>
<path transform="translate(822,413)" d="m0 0 4 4 6 7 10 7 15 8 16 5 7 2-2 4h-2v11l-2 9-6 9-6 5-8 3h-11l-10-4-3-2 4 10v9l-3 3-10-1-16 9h-12l-14-4-16-2-3-3v-6l6-9 9-11 8-11 8-7 4-2h11l9 7 6 5-1-5-1-4v-12l3-12 3-5-1-4-2-3z" fill="#3C1D06"/>
<path transform="translate(639,493)" d="m0 0 2 4 6 15 13 2 14 7 6 5 10 14 2 4 6-2 12-10 14-9 8-1 15 9 14 10 12 9 6 7 5 4 2-7 2-2 9-2 4-4 10-1-1 3 12-10 5-3 5 1 7 4h3l4-7 7-8 14-9 8-3 11-1 9-10 2-1v7l-3 4h-2v2l5 1 3 3h-22l-12 5-9 6-4 5h-2l-8 16-2 7 1 9 7-4 12-16 2-1-1 4-5 11-1 4v13l6-1 8-7 8-14 5-4-1 4-3 8 1 4 5-1 10-8 5-7 5-2 3-9 3 2 4-2-1-11 5 1v-9l-1-9 1-2 4 2 4 9 2-2 2 15 3 1 1-10 1-1-1-4 5 1 3 3v2l14-11 3 1v2l2 1-9 6-6 5-6 10-8 10-1 2 7-4 6-7 2-7 5-4 3-6 2-1-2 6-6 11-10 13-2 4-13-3h-8l-8 7-4 4 5 1-3 4-1 16-3 6-1-3 1-5-2-9-4-4-7 7-9 5-5-1-3-3-1-3-8 6-2 1h-6l-5-5-1-9-5 3-5-1-3-3-1-9 3-13-8-5-4 1-10 8-10 9-11 9-4 5-2 6 5 6v2h2v2l3 1-2 7-1 8-11 11-1 2v16l-7 9-2 4-1 11-2 2v-15l5-8 4-5-2-15 6-8 5-4 3-10v-5l-5-5-8-7-9 3 5-5 1-3-5-18-13-9-23-16-6-3-5 2-16 11-12 9-3 3v12l-3 4h-8l-1 10-3 4h-8l-9-6-2 7-2 2h-7l-10-4-11-7-6-6-3-1-1-4-3-1v-4-5l4 5 5 5 9 8 16 8 5 1-2-10-9-15v-3l8 7 7 8 8 7 7 3h2l-1-12-4-9-7-11-5-5 1-2 7 6 7 8 8 9 5 1 1-1-1-10-5-12-1-3h-2v-3h-2l-4-5-11-7-5-2-6-1h-12l-13 2 1-3 14-5-3-6-2-9z" fill="#412108"/>
<path transform="translate(802,379)" d="m0 0 2 1v7l3 4 10-2 2 2-1 7v8l3 11h1l2 8 2 2-1 4-4 11-1 5v12l3 12-7-6-8-7-2-1h-11l-9 6-9 11h-7l1-8 1-7v-18l-2-13-3-8-3 4 1 10-4-2-2-6 4-8 1-7-5 5-5 6-13 9-15 8-19 7-13 3h-7v2h2v2l-3 1-18 1-13-4 3-2-2-2 10-6 7-3 20-7 21-8 17-9 12-9 6-5 4-5h2l2-4h3l6 6v-7l5 5 1 3v13l7 2 3 2 1 4 6 2 2-9 4 1h1l-2-23h2l1 2 3-8z" fill="#AC6621"/>
<path transform="translate(738,342)" d="m0 0h10l10 2 9 6-1 5-13 2v3l-5 2h-9l-5-1v2l-14 3v2l5 3-3 3h-2v2h-2l1 5-4 1 1 5v4l1 2 13-1 11-5h8l-3-7h3l4-4 8 3 7 8 5 1 10-2 3 2 4 9h4l-3-10 1-3 3 6 2 27-3-4-3-1-2 9-7-2-1-4-9-4-1-13-3-6-1-1v6l-2 2-3-6-4-2-5 5-7 8-15 11-19 10-22 8-17 6-3 1-2-1v-8l-5-1 2-7 2-3-4 1 1-6 6-7 3-9 3-3h-2l2-5 4-5 1-6 7-9 5-2 1-3 10-3 12-10 7-3 7-1h10z" fill="#B66E23"/>
<path transform="translate(772,266)" d="m0 0 6 2 9 4v2l-9-3-2-1v6l15 9 11 6 5-1 12-4h5l1 3-16 6-7 2-26-14-4 5-6 10-7 4-4 2 5 1-3 6 9 1 6 1 1-2 5 1 13 9 8 10 4 9v6l-3-2-3-8-7-2 2 10v9l-3-3-8-11-14-10-16-6-7-2-2 6 4 1 4 5 2 5-1 1h-7l-10-3-4 3-14 4-7 6h-7l-4 1-2 4-10 4-2 7-6 5-5 5-3 2-3 5-3 3-8 4-4 5-2 6-8 10-5 2 2 7-4 6 2 1-2 3-7-1 3-13 3-9-4 1 3-9 5-8-1-5h-2l-8 14-9 26h-3l-5-8h-2v-2h-3l-2 5-3 5h-2v-8l9-19 6-7 7-17 2-10 3-9 2-2-1 14 13-1 4-1h8l2 6h5l7-7 3-4 3-1 9-16 8-13-1-3-4 1-9 13-1-2 10-15 4-10 3-5 5-3-6 15h10l14 2v1h-12l-11-2 4 6 30 3 6-1 6-3 6-18 1-1 1-7 8-2 9-4 6-9 3-9v-10z" fill="#41240C"/>
<path transform="translate(775,269)" d="m0 0 10 4h3v2l5 2 10 6 6-1 14-5 12-3 8 7 10 9 7 8-4 2-3 1v1l3 3 14 2h6l1-4-6-1v-1h7l10 8 1 4-4-1v-2h-3l-1 2v2l2 4 8 2 1-3 9 13v5l-11-2-8-2 2 4v11l-3 12-1 2-4-1v2l-5-1-7-8-5-4v-2l-4-2-6-4-11-7-17-8-14-4-10-2-13-9-12-5-5 1-2 2-5-2-6-1 3-3 8-4 6-10 4-6 28 14 20-7-1-2-9 2-8 3-5-1-18-10-7-5z" fill="#723E11"/>
<path transform="translate(760,224)" d="m0 0 14 1 20 4 18 6 17 8 18 12 11 9 17 17 10 14 9 15 6 15-1 4-7-10-1 1h-6l-3-2-3-5 1-3h2 3v2l4 1-3-5-8-6h-5l4 1-1 5-12-1-8-1-6-7 4 1 5-2-7-8-15-14-3-1-15 4-10 4-6 1-13-8-3-3-14-7-4-5-11-8-1-5 8-11 5-4-5 1-4 3-3-1 4-5v-2l-9-1-1-3z" fill="#F4E2C6"/>
<path transform="translate(526,633)" d="m0 0 9 1 9 4 8 5 5 5 6 8 4 9 1 9h2l2 5 9 7-3-4-4-8-2-6v-8l4-2 9 4 6 5 4 4v2h2l7 8 7 5 9 9v1l4 1 11 7 4 3-1 4-7 8h-9l-8-3-6-3-3-4-10 5-5 2h-14l-3-2 1-4 6-6-16 6-6 1h-13l-11-3-4-3 1-6 5-6h2v-2l11-6 6-1h11l7 1-12-6-13-3-11-6-7-7-7-15-1-4v-8z" fill="#46270D"/>
<path transform="translate(620,490)" d="m0 0 3 1 2 4 2 1 1 7 12 5 3 5-10 3-5 2-1 2 5-2 8-1h12l9 2 10 6 7 6v2h2v3h2l6 12 2 8v5l-2 2-5-1-7-7-7-8-5-6-3-1 8 9 6 10 3 12-1 6-3 1-10-6-11-11-6-7h-2l7 11 2 4v3l-5-2-9-7-5-1-7-6-5-1-4-6 1-6v-1l-4-1-1-2v-11l-7-2 2-5 3-4h-3v-2l-2-1 5-6 4-9 2-8z" fill="#9C5A1B"/>
<path transform="translate(762,411)" d="m0 0h2v7l-4 8 2 6 4 8 1 6v18l-5 12-5 7-8 6-9 3h-19l-4-2v-3l11 2 12-1 2-1h-14l-9-5-6-7-3-8-1-10 1-4-9 2v13l5 10 1 5h-3l-6-7-3-7-1-10 1-5h-5l-1-3h-2v-2l20-4 21-8 15-8 13-10z" fill="#3B1D06"/>
<path transform="translate(1124,701)" d="m0 0h13l13 10 13 5 6 1h20l12-3 11-6 5-4 2-2h10l46 7 10 3v3l-16 4-18 3-21 2-24 1h-59l-35-2-31-4-16-4-2-1 1-3 11-4 25-4z" fill="#E1D5C3"/>
<path transform="translate(801,325)" d="m0 0 18 4 16 8 14 9 15 14 11 14 9 17 5 13 3 11v5l-2-1-6-16-5-12-1-3-3-1-2-2h-2l1 7 4 10 3 6v3h-3l2 4-1 4h-3l1 6 8 1v5l-2 1-11-5-15-6-13-8-10-9-7-9-2-2 2-2 2-6 3 1v6l8-1 10 2v2h2l2-12 3 1-2-7-4-2 1-6 4 4 4 6-1-4-3-6-3-4h3l-5-5-14-8 6 8-4-2-5-4-8-2-5-6h-10l-1 5-3 7h-1l-1-5v-7l2 1v-12z" fill="#B66E23"/>
<path transform="translate(550,316)" d="m0 0h13l5 3 3 6 1 5v17l-5 14-6 7-14 5h-20l-11-4-6-4-4-7v-6l5-9 9-10 12-9 14-7z" fill="#F2E0C4"/>
<path transform="translate(960,514)" d="m0 0 5 1 3 5 3 18v25l-3 24-5 19-5 16-8 18-6 11-10 14-8 10-9 10-6 5-1 2-7 4-13 9-14 8-16 7-21 7-26 5-24 3h-45l-23-2-19-3-21-5-4-2-2-5 4-1 19 5 22 4 26 2h33l28-2 27-5 20-6 19-8 18-10 17-13 16-16 13-18 9-16 8-20 6-21 4-25v-35l-2-15h-2l-1-3z" fill="#402109"/>
<path transform="translate(873,384)" d="m0 0 5 4 5 10 8 21 2-1 4 22 4 11 7 9 8 7 4 3v2l-2 1-12 1 9 13 3 7v3l2 6-3 2-6-1-2-3-3-1-2 8-6 3-2 3h-4v-2h2l2-4v-6l-7 7-3 4-5-1-1-8 5 1-2-10 9 2-4-10-3-3 1-2 7 1-4-6-7-4v-2l-10 2 3-12 1-11 10-2 3-1-1-6v-2l-3-2-3-6 1-5-8-1-1-6 3-1-1-7h3l-4-9-5-12 1-5z" fill="#9D5B1C"/>
<path transform="translate(1146,506)" d="m0 0h2v18l-1 55-1 1h-56l2-5 9-11 9-12 28-36z" fill="#41240C"/>
<path transform="translate(385,506)" d="m0 0h1v74h-57l2-4 14-18 13-17 14-18 11-14z" fill="#3F220B"/>
<path transform="translate(758,390)" d="m0 0 5 3 4 9v10l-2 7h-1v-8l-5 5-5 6-13 9-15 8-19 7-13 3h-7v2h2v2l-3 1-18 1-13-4 3-2-2-2 10-6 7-3 20-7 21-8 17-9 12-9 6-5 4-5h2l2-4z" fill="#F3E1C4"/>
<path transform="translate(769,304)" d="m0 0 9 2 11 6 8 6 21 5 12 5 15 8 8 6 6 4 5 5 8 9v2l2 1 6 8 9 16 7 19 5 25 4 14 6 9 7 8 7 6 1 4-4 4-5 2 2 5 9 16 5 13 2 8 2 2-1 2h2l-1 2-2-1v12l-3-1-2 3-2-20-4-12-8-16-7-11-4-7 15-1v-2l-4-2-11-10-6-9-3-9-4-22-5-17-5-12-8-15-13-16-13-12-16-10-16-7-14-3 4 9v12l-2 1-3-11-6-10-5-6-14-9-3-1-1 3-6-1h-5l-4-2 1-4 5-1h3z" fill="#40230B"/>
<path transform="translate(555,513)" d="m0 0h6l8 7 5 5 7-6h3l-1 4 2 1-1 17-2-1v-2h-2v5l-4-5-6-10-9-9-3-1-2 9-1 9v23l2 20 4 17 5 16 7 17 7 13 12 17 11 12 12 12 15 11 17 10 23 10 6 2 1 7-11-3-4-1v4l-16-1-7 1-9-2v-1l14-1 2-5 4-1-12-6-11-7-4-3-5 1 1-4-8-6v-2l-4-2-8-7-2-4h-2l-5-6-10-13-11-18-9-21-5-15-5-24-1-7v-38l3-14z" fill="#43260D"/>
<path transform="translate(738,342)" d="m0 0h10l10 2 9 6-1 5-13 2v3l-5 2h-9l-5-1v2h-21l-6 1-4 4-4 3 1 3 2 2-6 7-5 3-4 5-1 5-1 6 2 4-9 9v4l7 2 1 4h4l-1 2-3 1h-4v5l3 1-12 5-3 1-2-1v-8l-5-1 2-7 2-3-4 1 1-6 6-7 3-9 3-3h-2l2-5 4-5 1-6 7-9 5-2 1-3 10-3 12-10 7-3 7-1h10z" fill="#9C5A1B"/>
<path transform="translate(655,447)" d="m0 0 4 2-2 2 11 3 22-1 5 1v10l3 10 2 5-12-2-14 2v2h6v1l-13 4-3 4 7-1-6 7-5 5-6 1-1-4 1-5h-8l-3-3-6-1 1-5 2-3-9-1 2-4 11-7 7-1 9-4-3-3-2-7h-5l-1-5z" fill="#8C4F16"/>
<path transform="translate(639,493)" d="m0 0 2 4 6 15 13 2 14 7 6 5 10 14 2 4 6-2 12-10 14-9 8-1 15 9 14 10 12 9 4 4-1 3-3 1-1-3-13-9-23-16-6-3-5 2-16 11-12 9-3 3v12l-3 4h-8l-1 10-3 4h-8l-9-6-2 7-2 2h-7l-10-4-11-7-6-6-3-1-1-4-3-1v-4-5l4 5 5 5 9 8 16 8 5 1-2-10-9-15v-3l8 7 7 8 8 7 7 3h2l-1-12-4-9-7-11-5-5 1-2 7 6 7 8 8 9 5 1 1-1-1-10-5-12-1-3h-2v-3h-2l-4-5-11-7-5-2-6-1h-12l-13 2 1-3 14-5-3-6-2-9z" fill="#3E1F07"/>
<path transform="translate(857,311)" d="m0 0h10l10 3 5 6h9l1-3 9 13v5l-11-2-8-2 2 4v11l-3 12-1 2-4-1v2l-5-1-7-8-5-4v-2l-4-2-6-4-11-7-6-3v-2h4v-8l9-1h11l4 1 4-5-1-2-6-1z" fill="#9C5A1C"/>
<path transform="translate(549,685)" d="m0 0 3 1-1 1h12l11 2 7 3 2 2 4-1 4 2v3l5-1 12 3v3l1 3 2 5 7 2h12l6-8 3 2-1 4-7 8h-9l-8-3-6-3-3-4-10 5-5 2h-14l-3-2 1-4 6-6-16 6-6 1h-13l-11-3-4-3 1-6 5-6h2v-2z" fill="#4C2C0F"/>
<path transform="translate(772,266)" d="m0 0 6 2 9 4v2l-9-3-2-1v6l15 9 11 6 5-1 12-4h5l1 3-16 6-7 2-26-14-4 5-6 10-7 4-4 2 5 1-3 6 9 1 6 1 1-2 5 1 13 9 8 10 4 9v6l-3-2-3-8-7-2 2 10v9l-3-3-8-11-14-10-16-6-7-2-2 6-5-1 3-11 3-7 1-7 8-2 9-4 6-9 3-9v-10z" fill="#40230B"/>
<path transform="translate(713,362)" d="m0 0h12l2 2-14 4 1 3-8 4h-2l2 5 4 3v2l-8 4-8 5v3l3 3-1 4-4 4h13l2-2 2-5 4-1 4 3h6l2-1h8l5-2 6 1 1 3-8 7-15 9-13 6-19 7-5 1-3-1v-5l7-2 1-1h-4l-2-4-6-2-1-4 9-9-2-6 2-6 1-5 6-6 5-3 3-4-3-3 2-4 4-3h2l1-3z" fill="#AC6620"/>
<path transform="translate(594,373)" d="m0 0h1v34l3 15v3h2l2-5 3-5h5l5 9 2 1 9-26 8-14 3-2 2 4-1 5-5 8-7 20-7 23-3 8 5-1 2 2-17 11-3 1v2l-10 8 2 2h14l8-3-2 5-8 12-8 13-5 12-3 12v16l2 8 4 1-1 3h-7l-6-7-3-4v-6h2l1 2 1-13 1-3-4-1 3-3h2l1-4 4-12 9-17 4-5h-10l-8-4v-5l16-15 6-7 5-10 3-11-4-1-3-5-2-2-6 8h-5l-4-6-2-11h2l1-33z" fill="#40240B"/>
<path transform="translate(919,510)" d="m0 0 4 2 4 9 2-2 2 15 3 1 1-10 1-1-1-4 5 1 3 3v2l14-11 3 1v2l2 1-9 6-6 5-6 10-8 10-1 2 7-4 6-7 2-7 5-4 3-6 2-1-2 6-6 11-10 13-2 4-13-3h-8l-8 7-4 4 5 1-3 4-1 16-3 6-1-3 1-5-2-9-4-4-7 7-4 2v-5l-7 3-1-1v-10h6l6-4 6-5 5-7 5-2 3-9 3 2 4-2-1-11 5 1v-9l-1-9z" fill="#713D11"/>
<path transform="translate(903,695)" d="m0 0 1 2-4 4v3l-4 3h-5l-1 3 3-1h9l8 4 2 3 3 2-21 1h-6l1 5 4 2-12 3h-7l-9-3 4 2 3 2-8 2-38 5-26 2h-73l-12-1-2-5 10 1 4 1h26l36-1 30-4 24-5 22-8 19-9 12-8z" fill="#B8966E"/>
<path transform="translate(640,517)" d="m0 0h12l9 2 10 6 7 6v2h2v3h2l6 12 2 8v5l-2 2-5-1-7-7-7-8-5-6-3-1 8 9 6 10 1 7-4-5-2-5-4 2-4-4-1-2-9-2h-3l-4-1-3-2v-2l-2-1v-3h-2l-1-7 1-3h-6v-2l4-1v-3l-5-2-1-3 2-2z" fill="#AC6620"/>
<path transform="translate(801,325)" d="m0 0 18 4 16 8 14 9 15 14 11 14 9 17 5 13 3 11v5l-2-1-6-16-5-12-1-3-3-1-2-2h-2l-2 4-3-1-1-8-7-8-2 1-3-5-2-3h3l-5-5-14-8 6 8-4-2-5-4-8-2-5-6h-10l-1 5-3 7h-1l-1-5v-7l2 1v-12z" fill="#AC6620"/>
<path transform="translate(823,394)" d="m0 0 3 1 7 9 10 9 16 9 16 6 9 5 2 4 4 4-1 1v5l-6 3h-4l1-4-11-2-14-5-13-7-11-8-7-8-1-2-2 5-2-4v-13z" fill="#F3E1C4"/>
<path transform="translate(626,353)" d="m0 0 1 4-1 10 13-1 4-1h8l2 6-1 1 5 1v3l-9 1-5 4-3-1-5 5-8 14-9 26h-3l-5-8h-2v-2h-3l-2 5-3 5h-2v-8l9-19 6-7 7-17 2-10 3-9z" fill="#3D1E06"/>
<path transform="translate(797,460)" d="m0 0h6l11 7 9 11 7 14v6l-5-1-16-6-8-2h-15l-10 4-10 7h-1l1-7 11-13 9-12 7-6z" fill="#BC782E"/>
<path transform="translate(795,456)" d="m0 0 3 1v2h-2l-1 3-6 4-7 8-7 9-9 12v4l14-9 6-2h15l20 6 5 3h4l1-6 2 4 1 5-3 3-10-1-16 9h-12l-14-4-16-2-3-3v-6l6-9 9-11 8-11 8-7z" fill="#422107"/>
<path transform="translate(919,521)" d="m0 0h1v10l-6-2 2 9-5 5-3-1-3 8-6 3-5 7-9 7-7 2 1-9 3-6-1-1-12 18-7 6-6 1-1-1v-13l4-11 1-2h3v6l12-2v-5l6-3 8-5 5-3 3-4 7-1 4-1 3-4h2l-1-3 6-2z" fill="#9C5A1B"/>
<path transform="translate(575,658)" d="m0 0 9 3 7 6 4 4v2h2l7 8 7 5 9 9v1l4 1 12 8-4 7-2 2h-12l-7-3-3-5 2-4 1-1h6l-9-3-16-8-9-7-6-9-2-7z" fill="#8B5019"/>
<path transform="translate(766,232)" d="m0 0h5l-1 3-6 4-6 9 1 5 12 9 2 4-3 1 1 4v8l-7 14-4 4-14 5h-1l-2 7-6 18-5 3-4 2-27-2-7-1-4-5v-2l31 2 4-1 7-3 7-21-1-5-7-8 1-2 11 9 8-1 7-4h2l2-6 5-10 1-5-10-9-6-4h-3l2-1 2-6 6-9z" fill="#B9946B"/>
<path transform="translate(904,462)" d="m0 0 6 2v2l4 1 2 2 4 1v2l-2 1-12 1 9 13 3 7v3l2 6-3 2-6-1-2-3-3-1-2 8-6 3-2 3h-4v-2h2l2-4v-6l-7 7-3 4-5-1-1-8 5 1-2-10 9 2-4-10-3-3 1-2 8 2 1-7 6-1v-7l-2-5h5z" fill="#894D15"/>
<path transform="translate(769,304)" d="m0 0 9 2 11 6 8 6 21 5 12 5 15 8 8 6 6 4 5 5 8 9v2l2 1 6 9-5-1-1 3-13-16-13-12-16-10-16-7-14-3 4 9v12l-2 1-3-11-6-10-5-6-14-9-3-1-1 3-6-1h-5l-4-2 1-4 5-1h3z" fill="#3A1C05"/>
<path transform="translate(838,296)" d="m0 0 4 1 12 12 9 1 2 6-5 5-4-1h-20v8l-6 1-12-5-9-3 3-1 1-5 3-9 1-1h7l3-3h7z" fill="#8A4D15"/>
<path transform="translate(765,225)" d="m0 0h9l20 4 18 6 17 8 18 12 11 9 17 17 10 14 9 15 6 15-1 4-7-10-1 1h-6l-3-2-3-5 1-3h2 3v2l4 1-3-5-6-5 2-1 2 1-7-11-9-11-15-15-14-10-10-7-16-7-16-6-22-5-5-1z" fill="#FAF7F5"/>
<path transform="translate(601,543)" d="m0 0 3 4 3 6 5 6 5 2v2h3l1 4 4 1 9 8 15 8 3 12-3-2v-2l-3-1v-2l-9 6-5 5-5 12-1-3 2-8-6-9-7-14v-7l1-2-3-1 3-1-3-2-6-1-2-4-2-3h-11l-9 2-1 4-3 9-2-1 1-10 4-6h5l-1-5 4 4h6l1-2h4z" fill="#432309"/>
<path transform="translate(526,636)" d="m0 0 11 2 8 3 7 5 8 11 4 10v5l-4-1 2 4-10-1-12-6-8-8-5-9-2-8v-6z" fill="#B08C63"/>
<path transform="translate(550,316)" d="m0 0h13l5 3 3 6 1 5v17l-5 14-6 7-14 5h-20l-11-4-6-4-4-7v-6l5-9 9-10 12-9 14-7zm3 4-12 4-14 9-7 6-8 11-1 7 6 7 11 4 5 1 18-1 8-5 4-5 4-13v-14l-3-9-3-2z" fill="#47260C"/>
<path transform="translate(775,269)" d="m0 0 10 4h3v2l5 2 10 6 6-1 14-5 12-3 8 7 10 9 7 8-4 2-3 1-6-4-11-10h-2l-2 3-1-1-9-1-3-1-14 5-5-1-18-10-7-5z" fill="#C1A17A"/>
<path transform="translate(809,545)" d="m0 0 2 1-4 6-10 9-4 4-2 8-2 6 5 6v2h2v2l3 1-2 7-1 8-11 11-1 2v16l-7 9-2 4-1 11-2 2v-15l5-8 4-5-2-15 6-8 5-4 3-10v-5l-5-5-8-7-9 3 5-5 1-3-4-15h2l1-2 2-1 5 5 1-1 3-6 1-1 9-2 4-4z" fill="#472409"/>
<path transform="translate(982,637)" d="m0 0h6l-1 11-7 14-8 8-9 5-2-1 3-3 1-6 2-3-7 7-6 7h-1v-8l4-11 7-9 8-7z" fill="#B08B62"/>
<path transform="translate(957,515)" d="m0 0 3 1v2l2 1-9 6-6 5-6 10-8 10-1 2 7-4 6-7 2-7 5-4 3-6 2-1-2 6-6 11-10 13-2 4-13-3h-8l-8 7-5 5h-2l3 5-1 3-5-8-4 1 2-4 4-6h2v2l11-9 3-2h10l2-5 1-13 3 4 2 1 1-10 1-1-1-4 5 1 3 3v2z" fill="#442309"/>
<path transform="translate(594,373)" d="m0 0h1v34l3 15v3h2l2-5 3-5h5l5 9 2 1 9-26 8-14 3-2 2 4-1 5-5 8-7 20-7 23-3 4-1-2-3 4-2-1 5-14 1-4-4-1-3-5-2-2-6 8h-5l-4-6-2-11h2l1-33z" fill="#412108"/>
<path transform="translate(791,384)" d="m0 0 4 5 2 28-3-4-3-1-2 9-7-2-1-4-9-4-1-13-5-10 4-1 3 1 10-2 3 2 4 9h4l-3-10z" fill="#B66E23"/>
<path transform="translate(919,676)" d="m0 0 3 1-1 4-10 9-1 2-7 4-13 9-14 8-16 7-21 7-12 2-4-2 2-1v-3l23-6 21-8 17-9 9-6 4-1 10-7 7-8z" fill="#42240B"/>
<path transform="translate(594,697)" d="m0 0 14 3v3l1 3 2 5 7 2h12l6-8 3 2-1 4-7 8h-9l-8-3-6-3-3-4-10 5-5 2h-14l-3-2 1-4 6-7 4-2z" fill="#4F2D0F"/>
<path transform="translate(886,448)" d="m0 0 2 4v12l2 1 5-2 1-5 4-3h1 3l4 5 8 7 2 3-8-4v-2l-4-1-2-1v2h-5l3 5-1 7-6 1v5l-2 1-4-6-7-4v-2l-10 2 3-12 1-11z" fill="#AA6520"/>
<path transform="translate(679,381)" d="m0 0 2 1-1 5-6 9 4-1-5 6-3 8-5 6-2 6 4-1-2 6-2 4h6l-1 9h2v2l-8 2-8-2v-4l-4 1 3-10-1-6 6-4 2-4h2v-2h-2l1-6 1-2h2l1-4-2-1 5-6 3-5z" fill="#8A4E16"/>
<path transform="translate(1275,673)" d="m0 0h10v7l-4 9-6 7-9 4h-15l1-4 2-2 4-10 9-8z" fill="#B49169"/>
<path transform="translate(738,342)" d="m0 0h10l10 2 9 6-1 5-13 2v3l-5 2h-9l-5-1v2h-7l2-1-5-5 1-6 5-2h10z" fill="#B66E23"/>
<path transform="translate(984,633)" d="m0 0h5l2 2v9l-4 12-7 11-9 8-21 10-5 3h-2l-1-3 5-5 5-19 5-10 7-8 14-8zm-2 4-10 4-11 10-5 8-3 9v8l6-5 7-8h1l-3 4v5l-3 3 5-2 8-5 8-9 5-11 1-11z" fill="#4D2D11"/>
<path transform="translate(686,453)" d="m0 0 9 1v10l3 10 2 5-12-2-14 2v2h6v1l-10 2-3-6 4-4 6-2 1-2h-2l-1-9-2-5 1-2z" fill="#AC6621"/>
<path transform="translate(917,494)" d="m0 0 3 3 6 12 2 7v7l-2-2-5-10-2-1v15l-6 2v2l-5 5h-4l-1-4h-2l1-2 6-1-1-4-10-5 2-1-3-2 1-4 5-3h2l2-8 4 1 1 3h7v-4l-2-4z" fill="#9B5A1B"/>
<path transform="translate(737,225)" d="m0 0h12v3l-2 1-22 3-8 3-14 4-8 4-13 6-13 8-12 9-8 7-2 2-4 1-3 2 2-4 11-11 14-11 20-12 16-7 17-5z" fill="#FAF7F5"/>
<path transform="translate(983,311)" d="m0 0h2l5 13v2l10 3 4 2v2l-12 5-4 6-3 9-2-1-4-11-8-6-7-2v-2l12-4 3-4z" fill="#E1D5C4"/>
<path transform="translate(661,718)" d="m0 0 11 3 20 6 15 3-1 2h-9l1 4h-8l-5-1 2-4-10-1-12-4h-5l1 3-2 1 2 2-20-2-16-3 4-1 1-5 13 1 9-1 10 2z" fill="#B18D64"/>
<path transform="translate(245,680)" d="m0 0h8l9 3 5 4 4 10 2 1v3l-7 1h-10l-8-3-7-8-1-8z" fill="#EDDABC"/>
<path transform="translate(621,689)" d="m0 0 5 2 14 9 16 8 20 8 1 7-11-3-4-1v4l-16-1-7 1-9-2v-1l14-1 2-5 4-1-12-6-11-7-3-3 2-3z" fill="#3E1E06"/>
<path transform="translate(960,519)" d="m0 0 3 1 2 13v35l-3 19-2 2-1-10 1-5 1-16v-26l-1-4-10 17-10 12h-1l1-7 9-11 7-15-5 8-4 3-1 6-7 8-4 3h-3l2-5 9-11 5-8 9-7z" fill="#F8F5F1"/>
<path transform="translate(938,695)" d="m0 0h16l10 3 10 9 1 3-11 3h-17l-10-4 4-7h7v-2l-16-2 2-2z" fill="#B08C63"/>
<path transform="translate(773,311)" d="m0 0 5 1 13 9 8 10 4 9v6l-3-2-3-8-7-2 2 10v9l-3-3-1-7h-2l-4-8-7-6-3-9v-7z" fill="#8D4F16"/>
<path transform="translate(903,695)" d="m0 0 1 2-4 4v3l-4 3h-5l-1 3 3-1h9l8 4 2 3 3 2-21 1h-6l1 5 4 2-12 3h-7l-8-3 1-4 6-5 2 1-5 6h13v-3l-6-5v-2l-2-1 20-12z" fill="#BA9972"/>
<path transform="translate(675,501)" d="m0 0 2 1-4 6-1 6 10-1 4-1-4 9v2h10l-1 7 1 1h9l-1 5 4 1-5 5-5 3-3-1-9-14-5-6-10-6-2-1v-4l-5-1-2-1 1-3 3-3 8-2v-1z" fill="#784416"/>
<path transform="translate(555,513)" d="m0 0h6l8 7 5 5 7-6h3l-1 4 2 1-1 17-2-1v-2h-2v5l-4-5-6-10-9-9-3-1-2 9-1 9v28h-2l-1-16h-1l-1 12h-1v-29l3-14z" fill="#3F2109"/>
<path transform="translate(985,675)" d="m0 0h12l10 4-2 4-6 5-11 4h-10l-12-4 2-5 11-6z" fill="#AF8A60"/>
<path transform="translate(727,522)" d="m0 0 7 1 16 10 18 13 9 8-1 3-3 1-1-3-13-9-23-16-6-3-5 2-16 11-12 9-4 1-1-4h2v-2l6-4 13-10 11-7z" fill="#44260D"/>
<path transform="translate(872,334)" d="m0 0h7l5 1v11l-3 12-1 2-4-1v2l-5-1-6-7v-2l-4-4 1-9 2-2 5-1 1 4h2z" fill="#B08B61"/>
<path transform="translate(802,379)" d="m0 0 2 1v7l3 4 10-2v3l-2 5v13l1 7-8-2v2l-4 1-3-1v-5h-2l-2-16-1-4 2-1z" fill="#B66E23"/>
<path transform="translate(728,526)" d="m0 0 6 2 12 8 17 12 10 7 1 9-1-2h-2l-5-5-20-14-5-3v-3l-3 1-8-5-5 1-15 10-10 8-6 2-1-3 13-10 20-14z" fill="#F9F6F3"/>
<path transform="translate(896,305)" d="m0 0 3 3 6 15 1 4v9l-2 3-6 1-9-3v10l-5 16-3 3-7-1-2-4h4l-1-3 5 2 3-14v-11l-1-4 8 1 11 3-4-16-5-11 1-2 2 1z" fill="#43250C"/>
<path transform="translate(772,266)" d="m0 0 6 2 9 4v2l-9-3-2-1v6l15 9 11 6 5-1 12-4h5l1 3-16 6-7 2-26-14-4 5-6 10-5 2v-2l-4 1 5-5 5-8 3-9v-10z" fill="#402007"/>
<path transform="translate(264,706)" d="m0 0 19 1v2l-6 3-1 3 9 2 13 2v1h-14l-24-2-24-4v-3l6-2z" fill="#F4E2C5"/>
<path transform="translate(513,675)" d="m0 0 9 1 6 3 6 9 4 3h-7l-8 3h-8l-8-4-6-7 2-4 6-3z" fill="#EFDCBE"/>
<path transform="translate(575,638)" d="m0 0 4 2 10 15 9 11 7 8 8 7 9 7 1 3 4 4-4 2-5 1 1-4-8-6v-2l-4-2-8-7-2-4h-2l-5-6-10-13-6-11z" fill="#43250B"/>
<path transform="translate(905,473)" d="m0 0h13l-1 2 2 2-2 1 2 5 9 16 5 13 2 8 2 2-1 2h2l-1 2-2-1v12l-3-1-2 3-2-20-4-12-8-16-7-11z" fill="#3F2008"/>
<path transform="translate(938,667)" d="m0 0 3 1-2 10-5 8-8 7-11 5-6 1 4-12 8-7 9-11 6-1z" fill="#703D11"/>
<path transform="translate(556,687)" d="m0 0h7l2 2-9 1-1 4 10 1-3 5 6 2 1 2-9 3h-15l-9-2-2-1 1-4 6-7 9-5z" fill="#B28E65"/>
<path transform="translate(787,493)" d="m0 0h14l15 4 2 2-13 8h-10l-10-3-2-1h-14v-2l14-7z" fill="#B66F24"/>
<path transform="translate(623,567)" d="m0 0 7 6 11 7 5 2-1 2-3 4-5 3-6 8-5-5-7-13v-7l2-5z" fill="#EFDCBE"/>
<path transform="translate(410,409)" d="m0 0h12l13 4 8 6 5 8-1 4v-2h-2l-5-6-15-7h-21l-7 4-7 6h-2l-1-3-9 10-7 8v-3l11-13 7-7 10-6z" fill="#F9F7F5"/>
<path transform="translate(865,393)" d="m0 0 5 3 2 3 2-1 5 10v3h-3l2 4-1 4h-3l1 6 8 1v5l-2 1-11-5-15-6-5-3 2-1 9 4 2-9h2l1-7h2l-3-8z" fill="#AB6620"/>
<path transform="translate(526,636)" d="m0 0 11 2 8 3 7 5 3 4-1 3-8-1-1 3-7-7 6 7 2 4-9-1-7-2-3-5-2-8v-6z" fill="#F0DDBF"/>
<path transform="translate(684,326)" d="m0 0 4 1 1 3-13 22-5 8-4 2-7 8-4 1-3-6 5-4 7-8 6-11 5-5z" fill="#B6936A"/>
<path transform="translate(1166,409)" d="m0 0h20l10 4 8 7 5 8v5l-1-3h-2l-3-5-10-6-6-3h-18l-10 3-10 7-1-2 1-2-3-1 8-7 8-4z" fill="#FAF8F6"/>
<path transform="translate(645,517)" d="m0 0 13 1 12 6 8 7v2h2v3h2l6 12 1 3v8l-3-3-1-10-4 2-6-1-11-9v-2l8-5-10-6-10-3-9-2-2-2z" fill="#B66E23"/>
<path transform="translate(644,552)" d="m0 0 5 3 13 14-1 5v7l-3 4h-7l-10-4-11-7-6-6-3-1-1-4-3-1v-4-5l4 5 5 5 9 8 16 8 5 1-2-10-9-15z" fill="#42250C"/>
<path transform="translate(954,388)" d="m0 0 2 1 4 11 10 4v3l-9 4-3 6-2 7-3-1-3-10-1-3-11-3 1-3 10-3 2-5z" fill="#F4E2C5"/>
<path transform="translate(801,325)" d="m0 0 18 4 16 8 14 9 2 3h-3l-5-2 1 3-7-1-1-1v-5l-7-1-4-2-18-3v5h-1l-2-9z" fill="#9B5A1B"/>
<path transform="translate(737,310)" d="m0 0 2 2h2l-2 10-3 6-8 4-27-2-7-1-4-5v-2l31 2 4-1 9-3 1-5z" fill="#B48F65"/>
<path transform="translate(666,456)" d="m0 0h7l3 5 1 5-1 4h2l-1 3-9 3 1 5 1 3-6 3-2 4-2-1v-3l-5-1v-2h-3l1-7 9-5 8-2-2-3-6-1 2-2z" fill="#9C5A1B"/>
<path transform="translate(904,462)" d="m0 0 6 2v2l4 1 2 2 4 1v2l-2 1-12 1 6 9v2l-6-1-3-2v3l-4 3-2 6-5-1v-2h-2l-4-6v-3l8 2 1-7 6-1v-7l-2-5h5z" fill="#9D5B1C"/>
<path transform="translate(623,372)" d="m0 0 4 1 1 4-5 11-5 10-5 3-8 16-5 8h-2v-8l9-19 6-7 7-17h3z" fill="#B58E63"/>
<path transform="translate(834,274)" d="m0 0 5 3 16 15 5 6-4 2-3 1-6-4-11-10h-2l-2 3-1-1-9-1v-3l6-2 2-5-12 2 1-2z" fill="#4C2A0E"/>
<path transform="translate(639,376)" d="m0 0 1 2-9 14-6 12-7 21h-3l-5-8 1-5 5-8 5-6 11-21z" fill="#723E11"/>
<path transform="translate(895,518)" d="m0 0 9 2 5 4-1 4-7 2h2l1 5-7 1-6 7-8 2-2 4 2-14h2l1-3h5l1-2 7-1v-2h-6l-4 1-4-4-1-4 10-1z" fill="#AD6721"/>
<path transform="translate(853,259)" d="m0 0h6l2 2 5 2 7 7 9 11 10 14 5 10-3 3-5-5-9-14-9-11-16-16-2-1z" fill="#47290F"/>
<path transform="translate(805,229)" d="m0 0 1 3 3-3 7 1 19 10 11 7 14 11 3 4-4-2h-7l-12-9-15-9-18-8-6-2z" fill="#45260D"/>
<path transform="translate(896,501)" d="m0 0h1v7l-3 4h-2v2l5 1 3 3h-22l-12 5-9 6-4 5h-2l-2 4-2 2-4 2v-5l8-10 12-9 12-5 11-1 9-10z" fill="#41240C"/>
<path transform="translate(833,285)" d="m0 0 5 3 15 14 3 3 14 2h6l1-4-6-1v-1h7l10 8 1 4-4-1v-2h-3l-1 2v2l2 4 3 3-5-1-4-5-14-4-9-1-13-13-8-6z" fill="#47250A"/>
<path transform="translate(987,672)" d="m0 0h9l11 4 4 3-2 5-9 7-10 4-11 1-13-4-5-3-1-2 5-5 9-6 8-3zm-2 3-10 4-8 5-1 4 12 4h10l11-4 8-7v-2l-10-4z" fill="#543315"/>
<path transform="translate(452,707)" d="m0 0h12l13 2 4 2-3 3-18 4h-9v1h-15v-3l14-7z" fill="#F3E0C3"/>
<path transform="translate(982,637)" d="m0 0h6l-1 11-5 10-1-2-7-1 1-4-6 5-3-6-6 10-3-1 2-5 9-10 8-5z" fill="#F0DDBF"/>
<path transform="translate(842,346)" d="m0 0 4 1 4 2 5 2 10 10 10 13 9 17 5 13 3 11v5l-2-1-6-16-5-12-1-3-3-1-4-8v-2h-3l-3-9-8-10-6-5-8-4z" fill="#BD772B"/>
<path transform="translate(694,306)" d="m0 0 1 2-5 9-1 4h10l14 2v1h-12l-11-2 4 6 30 3v1h-28l-5 3v7l-10 6-3-1 10-17-1-3-4 1-9 13-1-2 10-15 4-10 3-5z" fill="#522C0D"/>
<path transform="translate(620,696)" d="m0 0 4 1 12 8-4 7-2 2h-12l-7-3-3-5 2-4 7-2z" fill="#BE9E77"/>
<path transform="translate(708,453)" d="m0 0h2v9l3 11 6 8 9 5h17l-2 2-9 2-12-1-5-3-7-13-2 6-4-2-4-9v-13l1-1z" fill="#F2DFC3"/>
<path transform="translate(614,444)" d="m0 0 3 3-1 4 5-1 2 2-17 11-3 1v2l-10 8 4 3 3 2-2 1 5 1v1h-9l-8-4v-5l16-15 6-7 1-2h3z" fill="#3F210A"/>
<path transform="translate(796,432)" d="m0 0 2 2v8l-1 4 8-1 7 1 2-1 1 12 1 4-2 2-8-6-13-2-2-2-1-8 2-1 3-10z" fill="#9B591B"/>
<path transform="translate(1137,702)" d="m0 0 4 2 9 7 13 5 10 2v1h-22l-6-1h-8l-9-2-4-4 3-3 13-3z" fill="#F2E0C3"/>
<path transform="translate(377,704)" d="m0 0 4 2 9 6 9 4 11 3v1h-14l-19-2-16-4v-3l9-3 8-2z" fill="#F1DEC1"/>
<path transform="translate(533,416)" d="m0 0 3 1 3 8 10 5-4 3-5 3-3 5-2 5h-2l-4-10-5-3-4-1v-3l9-4z" fill="#F4E2C5"/>
<path transform="translate(1217,704)" d="m0 0 3 3 15 3 4 2-3 2-7 2-25 3h-13l3-3 11-4 11-7z" fill="#F1DFC2"/>
<path transform="translate(565,688)" d="m0 0 9 1 7 3 2 2 4-1 4 3-11 2-5 4-6 2-2-2-7-2 4-4-10-1v-3-3z" fill="#87592F"/>
<path transform="translate(979,709)" d="m0 0 1 2 4 2-2 3-11 3-9 1h-37l-25-1v-1l12-1-1-2 6 1h12l3-3 1-2 9 4 5 1h18l10-3z" fill="#F2DFC2"/>
<path transform="translate(592,513)" d="m0 0h1l-1 9-1 5v16l2 8 4 1-1 3h-7l-6-7-3-4v-6h2l1 2 1-13 1-3-4-1 3-3h2l1-4 2 4z" fill="#3E1F07"/>
<path transform="translate(968,660)" d="m0 0v3l-3 4v5l-2 2 10-6 3 1-2 4-17 9-12 6h-2l-1-3 5-5 4-15 3-1v11z" fill="#45270D"/>
<path transform="translate(894,433)" d="m0 0 2 1 3 12 3 6 1 5-4-1-3 3-1 5-6 2-2-2v-17h2l-1-6 2-3h4z" fill="#A16020"/>
<path transform="translate(526,633)" d="m0 0 9 1 9 4 8 5 5 5 6 8 4 9 1 6-2 5-4-1-4-6 6 3-3-11-6-10-3-3v-2l-4-2-7-4-12-3h-3l1 9 2 6 1 4-3 1-4-9-1-4v-8z" fill="#553315"/>
<path transform="translate(1039,711)" d="m0 0 10 1 5 4-1 6-3 2-5 1h-8l-7-3-1-4 4-5z" fill="#9E6A35"/>
<path transform="translate(636,383)" d="m0 0 3 4-1 5-5 8-7 20-3 7h-4-1v-6l9-24 8-13z" fill="#391B05"/>
<path transform="translate(899,438)" d="m0 0 4 1 4 10 9 11 9 8 1 4-4 4-3 1-3-2 2-3h2v-2l-4-2-11-10-6-9-2-8z" fill="#402109"/>
<path transform="translate(699,447)" d="m0 0h8l-1 5 2 2-7 1v13l5 10 1 5h-3l-6-7-3-7-1-10 1-5h-5l-1-3h-2v-2z" fill="#442309"/>
<path transform="translate(864,711)" d="m0 0 2 1-3 7-24 8-12 2-4-2 2-1v-3l23-6z" fill="#452309"/>
<path transform="translate(536,351)" d="m0 0 10 1h4l9 7v4l-8 5h-14l-8-2v-1l6-1 2-4 1 1h7l6-3-5-3h-9l-1 1h-6l4-4z" fill="#B59269"/>
<path transform="translate(769,304)" d="m0 0 9 2 11 6 8 6v2l-6 2-13-9-5-2-1 3-6-1h-5l-4-2 1-4 5-1h3z" fill="#3F230B"/>
<path transform="translate(517,341)" d="m0 0v3l-5 8 1 7 6 5 9 3 11 2 1 2 3 2h-16l-11-4-6-4-4-7v-6l4-7 5-2z" fill="#4A290E"/>
<path transform="translate(754,469)" d="m0 0 4 2-1 5-8 7-4 2h-14l-6-3-5-4v-2l7-2 2 1v2l16 1 6-5z" fill="#894C15"/>
<path transform="translate(746,439)" d="m0 0h6l5 6-1 7-6 5-7-1-4-5v-6l5-5z" fill="#F9F6F3"/>
<path transform="translate(907,724)" d="m0 0 7 1 5 3 1 7-6 3h-11l-6-3 1-5 6-5z" fill="#8F5520"/>
<path transform="translate(1275,673)" d="m0 0h10v7l-4 9-6 7-9 4h-15l1-4 2-2 4-10 9-8zm-2 3-10 6-6 9 1 4-1 2h9l8-4 5-6 2-3 1-8z" fill="#563314"/>
<path transform="translate(710,472)" d="m0 0 3 4 5 11v3l3 2h-3v7l-2 2-1 5h-1l-1-14-1-5h-3l-1 11v6l-1 2 2 3 5-2 1 2-1 3-7-2-3-6-1-12 2-4 1-4 2-10z" fill="#E1D4C2"/>
<path transform="translate(809,545)" d="m0 0 2 1-4 6-10 9-7 6-4-2-2-6 3-6 1-1 9-2 4-4z" fill="#B8956D"/>
<path transform="translate(649,548)" d="m0 0 12 3 3 4v2h4l2-3 5 10 2 1v7l-10-5-10-7-7-7v-2l-2-1z" fill="#9B5A1B"/>
<path transform="translate(858,465)" d="m0 0 4 1-1 6-6 7-6 3h-9l-6-3-5-4-2-4 1-4h3l4 6 7 2 4 1 5-2 5-5z" fill="#854A15"/>
<path transform="translate(546,317)" d="m0 0h14l-3 3-16 5-14 9-5 5h-2l-1 3-8 4v-3l9-10 12-9z" fill="#4C2C11"/>
<path transform="translate(738,325)" d="m0 0 8 3 4 5 2 5-1 1h-7l-10-3h-12l-2-2-8-1v-1l16-1 8-4z" fill="#40240C"/>
<path transform="translate(554,591)" d="m0 0 2 4 2 10h5l10 24 4 8-3 6-5-7-9-21-5-15z" fill="#3F1F07"/>
<path transform="translate(592,678)" d="m0 0 2 1v2h2l6 8 4 2v-8l5 3 9 9-2 5-10-2-16-8z" fill="#7C4D24"/>
<path transform="translate(860,543)" d="m0 0 4 1-1 2-5 5-9 12-7 4-2-4 1-10 2-3 4-5 1 4 6-1z" fill="#9C5A1B"/>
<path transform="translate(639,493)" d="m0 0 2 4 6 15 13 2 9 4-2 3-5-2-10-1h-12l-13 2 1-3 14-5-3-6-2-9z" fill="#432208"/>
<path transform="translate(1e3 441)" d="m0 0 2 3 3 7 7 2v3l-7 2-2 5-2 4-3-1-2-8-8-2v-3l8-4z" fill="#F4E2C5"/>
<path transform="translate(620,490)" d="m0 0 3 1 2 4 2 1v7l-5 1-6 10-1 11 1 2-8-1 2-5 3-4h-3v-2l-2-1 5-6 4-9 2-8z" fill="#8B4E16"/>
<path transform="translate(591,361)" d="m0 0h3l2 4v8h-2l-1 38-1 2h-2l-1-2-1-14v-11z" fill="#46280E"/>
<path transform="translate(891,491)" d="m0 0 2 2 2 3 7-2 1 7-3 3h-2l-1 3-1-5-7 7-3 4-5-1-1-8 5 1-2-10 9 2z" fill="#754114"/>
<path transform="translate(245,680)" d="m0 0h8l9 3 5 4 4 10 2 1v3l-7 1h-10l-8-3-7-8-1-8zm5 2-7 2 1 7 5 5 7 3h11l-5-5 5 2-1-6-7-6-5-2z" fill="#5D3918"/>
<path transform="translate(858,360)" d="m0 0 3 1 4 6 2 2 1 8h3l3 7-3 1-2 4-3-1-1-8-7-8-2 1-3-5-2-3h3l1-4z" fill="#AC6620"/>
<path transform="translate(760,326)" d="m0 0 5 1 4 3v2h-7l2 6 6 2 4 5v2h-2v6l4 1 5 6-1 2-10-9-9-12-8-9v-2l5 1v-3h2z" fill="#9A591B"/>
<path transform="translate(809,491)" d="m0 0 9 2 8 4h4l1-6 2 4 1 5-3 3-10-1-16 9h-10v-2l12-4 9-6-3-2-5-2 3-1h2l-4-2z" fill="#3E1F07"/>
<path transform="translate(537,647)" d="m0 0 7 6 1 1 1-2h8 3l6 11 1 9-4-2-5-3-8-8v-2l-4-2-6-6z" fill="#A98358"/>
<path transform="translate(819,422)" d="m0 0 2 3 2 10-3 12v12l3 12-7-6-1-5v-22l3-15z" fill="#F3E0C3"/>
<path transform="translate(773,311)" d="m0 0 5 1 10 7-1 4-8-2 4 10 4 2v10l-3-3-2-5-7-6-3-9v-7z" fill="#723E11"/>
<path transform="translate(768,330)" d="m0 0 5 2 10 8 1 5-7-1-1 1 2 7 3 6-1 2-4-4v-2l-4-1v-6h2l-4-6-6-3-2-3v-3l6-1z" fill="#AC6620"/>
<path transform="translate(513,675)" d="m0 0 9 1 6 3 6 9 4 3h-7l-8 3h-8l-8-4-6-7 2-4 6-3zm-2 3-6 3-1 2h2l2 4 4 3 9 1 6-2-3-3 6 1-2-5-7-4z" fill="#563213"/>
<path transform="translate(639,707)" d="m0 0 11 5 1 2-5 1-2 5-20 2-8 2h-6v-2l5-2-1-3 4-1 4 2h9l7-8z" fill="#B7946C"/>
<path transform="translate(827,535)" d="m0 0h3v2l-3 1-1 4-10 8-10 9-11 9-3 2v-3l1-4 11-10 11-9 10-8z" fill="#432309"/>
<path transform="translate(738,342)" d="m0 0h10l10 2 7 5-3 3-4 2h-7l-2-2-9-3z" fill="#AB6520"/>
<path transform="translate(766,232)" d="m0 0h5l-1 3-6 4-6 9 1 5 12 9 2 4-5 1-10-9-6-4h-3l2-1 2-6 6-9z" fill="#794C21"/>
<path transform="translate(957,515)" d="m0 0 3 1v2l2 1-9 6-6 5-3 4-8 4-1-13 1-1-1-4 5 1 3 3v2z" fill="#43240B"/>
<path transform="translate(641,546)" d="m0 0 9 5 7 8 10 7 10 5 1 3-1 3-3 1-10-6-11-11-6-7-4-1z" fill="#733E11"/>
<path transform="translate(775,269)" d="m0 0 10 4h3v2l5 2 10 6 1 2h-2l-1 4-6-2-17-10-3-1z" fill="#AE885D"/>
<path transform="translate(581,519)" d="m0 0h3l-1 4 2 1-1 17-2-1v-2h-2v5l-4-5-6-10-1-2h3v-3l2 2z" fill="#442309"/>
<path transform="translate(860,551)" d="m0 0h3v6l12-2-2 5-6 8-7 1-4-2v-7z" fill="#9A591B"/>
<path transform="translate(787,493)" d="m0 0h14l12 3v2h-15l-17 4-12 1v-2l14-7z" fill="#BE782C"/>
<path transform="translate(732,524)" d="m0 0 4 3 10 7 5 2 5 1 13 10 8 7-1 3-3 1-1-3-13-9-23-16-6-3h-3v-2z" fill="#4E290C"/>
<path transform="translate(795,598)" d="m0 0h1v7l-11 11-1 2v16l-7 9-2 4-1 11-2 2v-15l5-8 4-5-2-15 6-8 5-4 2-2 1 1z" fill="#935922"/>
<path transform="translate(878,517)" d="m0 0h17l-1 3-11 1-15 5-9 6 2 5-6-1-5 2 6-9 8-6 11-5z" fill="#BD792E"/>
<path transform="translate(924,504)" d="m0 0 3 2h4l4 14 2 2-1 2h2l-1 2-2-1v12l-3-1-2 3-2-20-4-12z" fill="#3F2009"/>
<path transform="translate(916,703)" d="m0 0 7 2 7 5-1 3-2 1h-8l-9-4-7-1-3-1v-2z" fill="#834914"/>
<path transform="translate(872,464)" d="m0 0h3l-2 7-4 7-7 6-8 3h-11l-9-4 1-4 5 2h11v2l7-1 6-4 5-9 2-4z" fill="#432208"/>
<path transform="translate(843,403)" d="m0 0 5 1 4 3 5-4 3 3v7l-7-1-4 2 1 3-5-2-9-7-2-3 4 2z" fill="#AA6520"/>
<path transform="translate(594,697)" d="m0 0 4 2h-4v2l-5 1v2h13l-4 5-7 3h-15l2-4 3-2 5 1 1-2h-2v-2l-2-1 7-4z" fill="#874C16"/>
<path transform="translate(668,544)" d="m0 0 7 2 6 1 4-1 2 5v6l1 1 2-2v5l-2 2-5-1-7-7-7-8z" fill="#894D15"/>
<path transform="translate(797,319)" d="m0 0 10 1 1 3-3 3h-3l4 9v12l-2 1-3-11-9-15z" fill="#41240B"/>
<path transform="translate(938,667)" d="m0 0 3 1-2 10-2 2v-2l-10 3-5 4-6 1 6-8 8-9 6-1z" fill="#AE8960"/>
<path transform="translate(730,349)" d="m0 0h12l8 3v2h-13v6h-3v3h-7l2-1-5-5 1-6z" fill="#AC6620"/>
<path transform="translate(874,370)" d="m0 0 4 1 5 5 8 16v6l-5 1-4-10-7-13z" fill="#40230B"/>
<path transform="translate(579,703)" d="m0 0 2 1-7 7v3l2 1h14l10-3-1 4-2 1 8 1v1h-35l-2-7v-3h2v-2z" fill="#F0DEC0"/>
<path transform="translate(827,540)" d="m0 0 4 1 8 5-1 5h-2v-3l-7-2-10 7-7 7h-4l1-5 10-9z" fill="#F8F5F2"/>
<path transform="translate(896,565)" d="m0 0 3 1 4 5-2-5h8l-3 4-1 16-3 6-1-3 1-5-2-9-4-4-7 7-4 2 1-7z" fill="#3E1E06"/>
<path transform="translate(617,553)" d="m0 0 4 5 5 5 9 8 16 8v2l-8-2 2 2-6-1-10-7-5-5-3-1-1-4-3-1v-4z" fill="#3E1F06"/>
<path transform="translate(645,517)" d="m0 0 13 1 12 6 8 7v2h2v3h2l1 5-7-6-8-7-11-5-12-2-4-3z" fill="#C17F36"/>
<path transform="translate(618,580)" d="m0 0 3 3 7 13 2 2 9-10 3-1 1-4 6 1 3 12-3-2v-2l-3-1v-2l-9 6-5 5-5 12-1-3 2-8-6-9-5-10z" fill="#B6742E"/>
<path transform="translate(963,588)" d="m0 0h2l1 8-8 26-5 1 1-9 5-17 2-3z" fill="#40230A"/>
<path transform="translate(527,718)" d="m0 0h8l6 5-1 4-2 1h-14l-4-2 2-5z" fill="#F3E1C4"/>
<path transform="translate(1e3 676)" d="m0 0 5 2v4l-4 5-10 6-11 3-11-1-5-2 1-3 8 1h10l11-4 7-6 1-2-3-1z" fill="#4E2E12"/>
<path transform="translate(647,534)" d="m0 0h8l12 12-1 2-8 2-10-10-3-4z" fill="#B66E23"/>
<path transform="translate(835,278)" d="m0 0 4 2 11 9 3 4-2 4-2 2-13-12-3-2 1-6z" fill="#B49169"/>
<path transform="translate(723,350)" d="m0 0 4 1h-2l-1 6 4 2 1 3-4 1h-12l-9 1 4-5 5-3 3-3z" fill="#99581A"/>
<path transform="translate(528,716)" d="m0 0h7l6 3 3 4-1 6-4 2h-16l-5-2-1-1 1-7 4-3zm-1 2-6 4-1 4 4 2h14l3-2-1-4-5-4z" fill="#8B521D"/>
<path transform="translate(800,463)" d="m0 0 7 1 9 9 8 11 3 7v3h-2l-8-11-12-14-5-4z" fill="#F4E2C6"/>
<path transform="translate(876,554)" d="m0 0 2 3-8 13-8 7-6 1-1-1v-13l1 3 7 1 5-2 4-6z" fill="#733F11"/>
<path transform="translate(643,365)" d="m0 0h8l2 6-1 2h-22l-2-2v-3l2-1z" fill="#AF885D"/>
<path transform="translate(706,731)" d="m0 0 15 1 32 3v1h-27l-13-3 3 4-1 1h-12l-4-1h-8v-1l5-1 1-3z" fill="#F0DDC0"/>
<path transform="translate(731,284)" d="m0 0 12 9h7l-2 2-3 1 2 5-2 1-2 7-1 3h-2l-1 2-1-3-4 9-1-4 6-17-1-5-7-8z" fill="#88501B"/>
<path transform="translate(1273,676)" d="m0 0h9l-1 8-4 4-6-4-9 4-3 3 1-5 4-5z" fill="#EEDBBD"/>
<path transform="translate(760,496)" d="m0 0h3l2 5 6 1h12l7 3 12 2v1l-7 1v2l-16-4-16-2-3-3z" fill="#46250B"/>
<path transform="translate(617,403)" d="m0 0h2l1 7h2l-2 9-3 7-5-5-2-4 1-5 5-8z" fill="#9D6126"/>
<path transform="translate(675,501)" d="m0 0 2 1-4 6-1 6 5 1-4 3v2l-6-2-2-1v-4l-5-1-2-1 1-3 3-3 8-2v-1z" fill="#8A4F18"/>
<path transform="translate(877,715)" d="m0 0h6l5 4 1 5 4 2-12 3h-7l-8-3 1-4 6-5 2 1-5 6h13v-3l-6-5z" fill="#8F5A28"/>
<path transform="translate(651,713)" d="m0 0 11 4v6l-16-1-7 1-9-2v-1l14-1 2-5z" fill="#9C5B1D"/>
<path transform="translate(662,725)" d="m0 0 5 1 10 3 10 2-2 4-15-1-9-2-3-3 2-1v-2z" fill="#F1DEC1"/>
<path transform="translate(809,341)" d="m0 0 8 1 1 1 10-1 1 6 6 1 2 3h-2l6 8-4-2-5-4-8-2-5-6h-10z" fill="#B76F24"/>
<path transform="translate(930,697)" d="m0 0 16 2 2 1v2l-7 1-2 5-4 1-8-5v-2h-6v-2z" fill="#8A501A"/>
<path transform="translate(985,675)" d="m0 0h12l10 4v2l-9-1 1 5-5 1-6-3v-2l-4-1v-2l-8 2v-2z" fill="#EFDCBF"/>
<path transform="translate(867,451)" d="m0 0h3l1 3v11l-4 10-5 5-4 3-8 1 4-3 7-6 4-8 1-3z" fill="#F0DDC1"/>
<path transform="translate(966,558)" d="m0 0h1v12l3-2-1 13-2 11h-2v-4h-2l-2 10h-1l1-11 3-19 1-9z" fill="#3E1F07"/>
<path transform="translate(636,705)" d="m0 0 3 2-1 4-7 8h-9l-8-3-6-3v-7l3 3v2l7 2h12z" fill="#774213"/>
<path transform="translate(843,444)" d="m0 0 8 1 5 4-2 6-3 2h-5l-5-5 1-7z" fill="#F6F1EC"/>
<path transform="translate(801,325)" d="m0 0 18 4 9 4 1 4-3 1-7-3v2l-6-2-7-3-2 1z" fill="#894D15"/>
<path transform="translate(676,717)" d="m0 0 10 2 12 3 2 2 3 2-2 2-5-1-4 1-14-4-3-6z" fill="#45250B"/>
<path transform="translate(901,454)" d="m0 0 4 2 13 13h-3l-5-3v-2l-4-1-2-1v2h-5v2l-5 2h-6l-2-4 4 1 5-2 1-5 4-3h1z" fill="#9B5A1B"/>
<path transform="translate(807,321)" d="m0 0 8 1 13 5 6 3-3 1-1 3-18-6-7-2z" fill="#3B1E07"/>
<path transform="translate(915,548)" d="m0 0 3 2 1 3-6 3-10 10h-2l3 5-1 3-5-8-4 1 2-4 4-6h2v2l11-9z" fill="#3C1E07"/>
<path transform="translate(860,350)" d="m0 0 5 2 7 8v2l2 1 6 9-5-1-1 3-9-11-2-5-5-6z" fill="#3D1D06"/>
<path transform="translate(886,700)" d="m0 0 2 1-4 4 7-2-4 4-17 9-6 2 1-6 8-5z" fill="#3F2007"/>
<path transform="translate(575,658)" d="m0 0 1 2 5 2 3 4 3 9-1 3-5 1-4-5-2-7z" fill="#B08C63"/>
<path transform="translate(891,317)" d="m0 0 4 5 6 8v5l-11-2-5-2 2-8 6 3v-3h-2v-2l-4-1h4z" fill="#B18C61"/>
<path transform="translate(737,310)" d="m0 0 2 2h2l-2 10-3 6-8 4h-2l-2-6 5-3 4-1 3-10z" fill="#F1DEC1"/>
<path transform="translate(614,444)" d="m0 0 3 3-1 4 5-1 2 2-13 8-2-1h-3l-5 4-2-1 9-9 2-4h3z" fill="#44250D"/>
<path transform="translate(955,522)" d="m0 0 3 1-3 2-3 6-5 4-1 6-7 8-4 3h-3l2-5 9-11 5-8z" fill="#EFDCBE"/>
<path transform="translate(580,538)" d="m0 0h2l1 2 5-1h2l3 12 4 1-1 3h-7l-6-7-3-4z" fill="#41240B"/>
<path transform="translate(887,344)" d="m0 0h2l-2 11-4 9-2 2-7-1-2-4h4l-1-3 5 2 3-14z" fill="#41230A"/>
<path transform="translate(709,487)" d="m0 0h3l2 5v15l-3 3-4-2-1-3 1-4v-8z" fill="#FAF9F8"/>
<path transform="translate(1039,713)" d="m0 0h8l4 3-1 4-3 2h-10l-5-3 4-5z" fill="#F3E1C4"/>
<path transform="translate(919,521)" d="m0 0h1v10l-6-2 2 9-5 5-4-1v-4h-2v-4l3-1 3-4h2l-1-3 6-2z" fill="#8B4E16"/>
<path transform="translate(904,462)" d="m0 0 6 2v2l4 1 2 2 4 1v2l-2 1h-14l-5-7v-2h5z" fill="#784212"/>
<path transform="translate(784,326)" d="m0 0 6 1 7 6v2l-7-1 2 10v9l-3-3-3-12v-5h-3z" fill="#97571A"/>
<path transform="translate(299,708)" d="m0 0h6l5 4-1 4-6 2-8-1-2-2 1-4z" fill="#A36A31"/>
<path transform="translate(252,688)" d="m0 0 5 1 7 2 1 3h-3l5 5h-11l-9-4v-4l6-1z" fill="#AD8961"/>
<path transform="translate(556,687)" d="m0 0h7l2 2-9 1-1 4-5 3-9 2h-3l-1 2-2-1 6-7 9-5z" fill="#ECD7B9"/>
<path transform="translate(895,447)" d="m0 0 2 1v2h2l4 7-4-1-3 3-1 5-6 2-2-2 2-10h3l1-5z" fill="#864B15"/>
<path transform="translate(696,723)" d="m0 0h7l22 4v1l-11 1 9 2v2l-16-2-12-3 1-2 5 1 1-1-6-2z" fill="#3F1F07"/>
<path transform="translate(877,382)" d="m0 0 5 5 4 8 5 15 1 10-2-1-6-16-5-12-1-3-3-1z" fill="#BA7428"/>
<path transform="translate(665,353)" d="m0 0 4 5 1 2-10 10-4 1-3-6 5-4z" fill="#B68A58"/>
<path transform="translate(864,540)" d="m0 0h2v2l2 1-1 4 4 2h6l-2 1v5l-6 2h-6v-6h-2l2-5 1-2-3-1 3-1z" fill="#AB6520"/>
<path transform="translate(978,635)" d="m0 0 2 1-1 3-8 4-9 8-5 8-2 6-4-1 4-10 8-10 11-7z" fill="#513114"/>
<path transform="translate(620,696)" d="m0 0 4 1 7 5h-3-4l-4 5-8 1h-3l-1-4 3-3 6-1z" fill="#F2DFC2"/>
<path transform="translate(908,504)" d="m0 0 4 2 2 3-1 4-4-1-2 5-11-2 1-4 2-2 7 1-1-3z" fill="#AC6620"/>
<path transform="translate(910,457)" d="m0 0 10 6 6 7-2 5-5 2-3-2 2-3h2v-2l-4-2-6-6z" fill="#46270D"/>
<path transform="translate(861,299)" d="m0 0 10 1v2l6 1-1 5-12-1-7-1 2-5z" fill="#B7956D"/>
<path transform="translate(597,497)" d="m0 0h3l-1 6-5 12-3 3-3 4v-10l5-12h3z" fill="#41240C"/>
<path transform="translate(754,469)" d="m0 0 4 2-1 5-8 7-6 2-3-2v-2l-2-2 9-2z" fill="#733E11"/>
<path transform="translate(948,727)" d="m0 0 7 1 2 3 8 2v1l-15 3-7-1v-5z" fill="#F1E0C4"/>
<path transform="translate(766,390)" d="m0 0 5 5 1 3v13l-3 5-3 1z" fill="#44250B"/>
<path transform="translate(552,545)" d="m0 0h1v19h2l1 9-3 3-1-3h-2l-1-4 1-22z" fill="#44260D"/>
<path transform="translate(608,402)" d="m0 0h4l-2 5-8 15-2 3h-2v-8l4-9 4-2z" fill="#B69268"/>
<path transform="translate(896,305)" d="m0 0 3 3 6 15 1 10-2-4v-5l-5 1-6-15-1-4 3 1z" fill="#41230A"/>
<path transform="translate(769,304)" d="m0 0 6 1v3l-2 5h-3-9l-4-2 1-4 5-1h3z" fill="#3A1C06"/>
<path transform="translate(777,562)" d="m0 0 4 2 4 5 1 11 4 4-1 2-7-7-3-1-6 3-2-1 6-5 1-3h2z" fill="#704720"/>
<path transform="translate(624,408)" d="m0 0 5 1-3 11-3 7h-4-1v-6l4-11h2z" fill="#3A1C05"/>
<path transform="translate(907,726)" d="m0 0h6l5 5-2 3-9 1-6-2 2-4z" fill="#F3E1C4"/>
<path transform="translate(605,708)" d="m0 0 3 3v2l6 2 2 2-1 3-3 1-1-2-19-1v-1l7-2 1-4z" fill="#EDD9BB"/>
<path transform="translate(933,678)" d="m0 0h4l-1 6-7 7-5 2-1-6 2-4 3-3z" fill="#884D17"/>
<path transform="translate(711,473)" d="m0 0h2l6 8 9 5h17l-2 2-9 2-12-1-5-3-6-12z" fill="#EFE6DA"/>
<path transform="translate(674,342)" d="m0 0 4 2 2-1-2 5-7 12-5-5 2-4z" fill="#F2E0C3"/>
<path transform="translate(641,557)" d="m0 0 5 1 4 6 3 6-1 2-12-9-5-1-2-3 1-1z" fill="#8B4E16"/>
<path transform="translate(250,680)" d="m0 0 10 2 7 5 4 10 2 1v3h-13v-1l6-2-7-5 2-1 5 3-1-5-6-5-10-3z" fill="#523012"/>
<path transform="translate(604,483)" d="m0 0 1 2 4-1-1 5-7 10-4-1-1 2h-2l2-6 6-9z" fill="#3D1F07"/>
<path transform="translate(772,266)" d="m0 0 6 2 9 4v2l-9-3-2-1v6l1 3-6 4-2 2 1-8v-10z" fill="#532C0C"/>
<path transform="translate(598,698)" d="m0 0 10 2v3l-5 6-4-2 2-2-12-1v-2l5-1v-2z" fill="#764112"/>
<path transform="translate(738,325)" d="m0 0 3 1-2 6-10 4h-7l-2-2-8-1v-1l16-1 8-4z" fill="#3C1D05"/>
<path transform="translate(621,689)" d="m0 0 5 2 14 9 2 2-4 2 1 2-6-2-9-6 2-4z" fill="#3E1E06"/>
<path transform="translate(591,610)" d="m0 0 7 6-1 4-3 2h-5l-1 2-2-6v-5z" fill="#B18D64"/>
<path transform="translate(844,248)" d="m0 0 6 2 11 9 2 3-4-2h-7l-11-8 1-3 2 1z" fill="#45270E"/>
<path transform="translate(575,638)" d="m0 0 4 2 8 12-2 5-1-2-4-1-6-11z" fill="#44250C"/>
<path transform="translate(711,533)" d="m0 0m-3 1 3 1-1 4-13 10-4 1-1-4h2v-2l6-4z" fill="#3F2008"/>
<path transform="translate(554,527)" d="m0 0h1v37h-2l-1-16h-1l-1 12h-1v-23h3z" fill="#3D1E07"/>
<path transform="translate(878,528)" d="m0 0h7l5 3-4 2-5 1-2 5h-3l1-4v-3l-9 3v-3l4-3z" fill="#C07A2D"/>
<path transform="translate(1279,688)" d="m0 0 1 2-5 6-9 4h-15l1-4 3-2 1 2h10l8-4z" fill="#49290D"/>
<path transform="translate(916,553)" d="m0 0h8l-4 2-2 4-8 7-4 1-3-2 11-11z" fill="#EAD2B1"/>
<path transform="translate(853,551)" d="m0 0h2l1 3-8 10-6 3-2-4v-6l1 2 5-1z" fill="#723E11"/>
<path transform="translate(660,538)" d="m0 0 6 4 10 11 6 8-4 3-3-2-6-11-6-8-3-3z" fill="#412108"/>
<path transform="translate(673,358)" d="m0 0 2 2-6 7-7 6-3 3-4-2-3-2 7-2 9-10z" fill="#402007"/>
<path transform="translate(663,547)" d="m0 0 5 1 7 11 1 7-4-5-2-5-4 2-4-4-3-4z" fill="#AE6821"/>
<path transform="translate(882,331)" d="m0 0 8 1 2 1v3l8 2v1l-9-1-2-1v7l-5 2-1-11z" fill="#412107"/>
<path transform="translate(317,720)" d="m0 0h15l9 1 4-1 13 2-4 2h-16l-19-2z" fill="#E7D9C4"/>
<path transform="translate(948,695)" d="m0 0 10 1 7 3 8 7 2 4-2 1h-6l2-4-1-3-4-3h-11v-2l-2-1 1-2z" fill="#E8D3B4"/>
<path transform="translate(817,391)" d="m0 0h2l-1 7v8l2 9v5l-3-2-3-8v-13z" fill="#502B0C"/>
<path transform="translate(521,682)" d="m0 0h7l2 5-7-1 4 3-6 2-9-1v-3l5-2-2-2h6z" fill="#B18D64"/>
<path transform="translate(953,618)" d="m0 0 1 3-1 2h3l1-2-1 6-7 14-1-2v-3h-2l3-9z" fill="#3C1D06"/>
<path transform="translate(738,342)" d="m0 0h10l6 1 1 3-7-1 3 5v2l-9-2-2-1z" fill="#9C5A1B"/>
<path transform="translate(468,578)" d="m0 0h8l8 5 5 6 2 4v3h-2l-1-5-4-2-10-7-6-3z" fill="#F8F4EF"/>
<path transform="translate(956,523)" d="m0 0 1 2-8 15-10 13-2 4-2-2 1-5 7-6 3-5 1-5 5-4 3-6z" fill="#915B28"/>
<path transform="translate(659,518)" d="m0 0 5 1h4l5 1 7 6 1 3h-2l1 4h-2l-4-5-11-7z" fill="#3C1D06"/>
<path transform="translate(917,494)" d="m0 0 3 3 6 12 2 7v7l-2-2-7-14v-6l-3-5z" fill="#A5611F"/>
<path transform="translate(517,341)" d="m0 0v3l-5 8 1 7 3 4-4-2h-4l-2-3v-6l4-7 5-2z" fill="#4C290C"/>
<path transform="translate(871,301)" d="m0 0h7l10 8 1 4-4-1v-2h-3l-1 2-4-1v-2h-6v-1l5-1 1-4-6-1z" fill="#936130"/>
<path transform="translate(836,275)" d="m0 0 7 6 10 9 7 8-4 2-3 1-3-2 2-6-5-6-12-9z" fill="#936030"/>
<path transform="translate(752,253)" d="m0 0 12 9-1 3-2-1v-2l-4-1h-4l-5 3-4-1 2-5 5-2z" fill="#FAF8F6"/>
<path transform="translate(513,675)" d="m0 0 9 1 2 4-3-1h-10l-6 3 5 7-3 1-6-7 2-4 6-3z" fill="#563313"/>
<path transform="translate(821,417)" d="m0 0h1l2 8 2 2-1 4-2 2-4-10-2 5-4-2-2-3h2v-2l5-3 2 1z" fill="#A16021"/>
<path transform="translate(879,310)" d="m0 0h3 3v2l4 1 1-2v2l3 1-2 6h-6l-3-2-3-5z" fill="#EDDABC"/>
<path transform="translate(819,286)" d="m0 0h5l1 3-16 6-5 1-2-2 3-2 2-2z" fill="#4D2D11"/>
<path transform="translate(920,705)" d="m0 0 5 1 5 4-1 3-2 1h-8l-6-3 4-3 4-1z" fill="#A27345"/>
<path transform="translate(621,545)" d="m0 0 4 1 6 4 1 2-3 4h-5l-5-7v-3z" fill="#8A4D15"/>
<path transform="translate(783,626)" d="m0 0h1v8l-7 9-2 4-1 11-2 2v-15l5-8 4-5 1-5z" fill="#BC7C36"/>
<path transform="translate(678,539)" d="m0 0 4 1 2-1 5 12v8l-3-3-1-10-4 2-3-1h2v-2l-4-1 1-4z" fill="#AD6721"/>
<path transform="translate(668,544)" d="m0 0 5 2 5 5 8 7 2 4-3 1-8-7-9-10z" fill="#723E11"/>
<path transform="translate(834,479)" d="m0 0 6 2h11v2l3 2v2h-11l-9-4z" fill="#48260B"/>
<path transform="translate(835,340)" d="m0 0 10 3 6 5-2 2-4-3h-2l1 3-7-1-1-1v-5l-5-1z" fill="#905217"/>
<path transform="translate(883,335)" d="m0 0h1v11l-3 12-1 2-3-1 1-8 1-1 2-12z" fill="#F3E0C3"/>
<path transform="translate(875,717)" d="m0 0 6 1 4 5-2 2h-9l-4-1 2-4z" fill="#F4E2C5"/>
<path transform="translate(923,669)" d="m0 0v3l1 1h2l-2 4-3 2v-2l-5 2-9 10-9 6h-2v-2l12-9z" fill="#3D1E06"/>
<path transform="translate(647,512)" d="m0 0 13 2 9 4-2 3-5-2-10-1-4-2-3-3z" fill="#42250C"/>
<path transform="translate(780,490)" d="m0 0 2 1v3l-3 3-10 5-5-1-1-4 3 2z" fill="#402007"/>
<path transform="translate(659,575)" d="m0 0h1v8l-2 2h-7l-8-3v-2l-2-2 6 1 4 1 6-2z" fill="#48270C"/>
<path transform="translate(760,542)" d="m0 0 5 2 9 7 3 3-1 3-3 1-1-3-10-7-1-2h2v-2l-3-1z" fill="#442309"/>
<path transform="translate(905,473)" d="m0 0h13l-1 2 2 2-2 1-1 4h-3l-1 2-7-10z" fill="#3E2008"/>
<path transform="translate(968,660)" d="m0 0v3l-3 4v5l-5 5-8 1v-6l2 3z" fill="#794212"/>
<path transform="translate(529,656)" d="m0 0 5 5 9 8 4 3-3 2-9-6-6-7-1-4z" fill="#4A290D"/>
<path transform="translate(1225,577)" d="m0 0h12l8 4 6 7 1 6-3-4-4-4-14-7-6-1z" fill="#F3EEE9"/>
<path transform="translate(834,721)" d="m0 0h5v4l-4 2v1l-8 1-4-2 2-1v-3z" fill="#45260B"/>
<path transform="translate(616,432)" d="m0 0 3 1 2-1-1 8-3 7-2-2-3 4-2-1z" fill="#3B1D07"/>
<path transform="translate(550,316)" d="m0 0h13l5 3 1 2 1 14-2-3-2-7-5-4-4-2 2-1-9-1z" fill="#41230B"/>
<path transform="translate(516,725)" d="m0 0 3 4 4 1h16l4-1 1-2 3 1v2l-5 2-8 1h-13l-8-4v-2h3z" fill="#E2D0B7"/>
<path transform="translate(616,716)" d="m0 0 6 2 8 1v2l-14 3h-6v-2l5-2-1-3z" fill="#B5926A"/>
<path transform="translate(864,711)" d="m0 0 2 1-3 7-6 2-5-1v-3l4-3z" fill="#43240A"/>
<path transform="translate(787,581)" d="m0 0 4 1 3 3v2h2v2l3 1-3 8-3 7h-1l1-15-3-3z" fill="#5E3714"/>
<path transform="translate(582,524)" d="m0 0h3l-1 17-4-4-3-5 1-4z" fill="#AA7946"/>
<path transform="translate(679,529)" d="m0 0 4 1 8 12-4 4-2-3-3-5v-2h-2z" fill="#42240B"/>
<path transform="translate(897,415)" d="m0 0 2 4 3 17v5l-1-3-4 3-2-7v-7l3 2z" fill="#391B05"/>
<path transform="translate(859,294)" d="m0 0 4 2 13 4v1l-15-1-4 6-7-6h3l6-2-1-3z" fill="#F9F4ED"/>
<path transform="translate(630,721)" d="m0 0 9 1 2 2-1 5-9-1-6-1 4-1z" fill="#C4A580"/>
<path transform="translate(979,709)" d="m0 0 1 2 4 2-2 3-11 3h-7l1-3 10-3z" fill="#F3E0C3"/>
<path transform="translate(901,566)" d="m0 0h8l-3 4-1 16-3 6-1-3 1-5-2-10 2-1 2 1-3-6z" fill="#935F2B"/>
<path transform="translate(906,500)" d="m0 0 4 1 1 3h8l-2 9-1-2h-2l-4-6h-4v5l-4-1 2-1z" fill="#9D5B1C"/>
<path transform="translate(586,473)" d="m0 0h6l3 3 5 2-2 2 5 1v1h-9l-8-4z" fill="#412209"/>
<path transform="translate(829,466)" d="m0 0 4 4 2 3 7 2-4 2-1 2-7-3-3-5 1-4z" fill="#854A14"/>
<path transform="translate(623,394)" d="m0 0 4 2-1 6-3 8h-3l-2-8z" fill="#834914"/>
<path transform="translate(626,353)" d="m0 0 1 4-1 10 2 1 2 5-2 3-2-3-3-1v2h-2l2-15z" fill="#643D19"/>
<path transform="translate(772,340)" d="m0 0 5 1 2 2-3 2 2 7 3 6-1 2-4-4v-2l-4-1v-6h2l-2-4z" fill="#B06A22"/>
<path transform="translate(549,321)" d="m0 0h5l-2 3-7 2-5 4-5 2h-4v-2l12-7z" fill="#F8F5F2"/>
<path transform="translate(889,544)" d="m0 0 2 3-2 10-3 2-4-2 1-5z" fill="#AD6721"/>
<path transform="translate(610,423)" d="m0 0 4 2h6l3 2-1 5h-2l-1 2h-2l-1-4-4-1-2-2z" fill="#42240B"/>
<path transform="translate(830,330)" d="m0 0 8 2 5 3-1 4-7-1-6-3z" fill="#40230B"/>
<path transform="translate(741,299)" d="m0 0 3 4v5l-2 4h-2l-1 2-1-3-4 9-1-4 3-8 2-1z" fill="#BA966D"/>
<path transform="translate(654,256)" d="m0 0m-3 1 3 1-23 23-2-1 11-12 5-5z" fill="#41230B"/>
<path transform="translate(889,542)" d="m0 0m-2 1h2l-2 5-4 4-6 4-2-1v-5l6-3z" fill="#955519"/>
<path transform="translate(557,364)" d="m0 0 3 2-9 5-4 2-8-1v-3l2-1 10-1z" fill="#4A2A0F"/>
<path transform="translate(837,287)" d="m0 0 4 2h3 4l5 4-2 4-2 2-12-11z" fill="#F0DDBF"/>
<path transform="translate(760,244)" d="m0 0h2v4l4 2-1 7-5-2-3-3 1-6z" fill="#FAF7F5"/>
<path transform="translate(886,700)" d="m0 0 2 1-4 4 7-2-4 4-9 5-3-1 2-2-2-1v-2z" fill="#3E1E06"/>
<path transform="translate(565,688)" d="m0 0 9 1 2 2-5 1-12 1-4 1-1-5z" fill="#B08C62"/>
<path transform="translate(1275,673)" d="m0 0h10v7l-4 9h-3l3-10 1-3h-6z" fill="#613E1E"/>
<path transform="translate(930,523)" d="m0 0h6l2 1-1 2-2-1v12l-3-1-2 3z" fill="#391B05"/>
<path transform="translate(858,465)" d="m0 0 4 1-1 6-6 7h-5l2-4 4-5z" fill="#733E11"/>
<path transform="translate(519,720)" d="m0 0 2 1v5l7 2 10 1-2 2h-13l-5-2-1-1 1-7z" fill="#784416"/>
<path transform="translate(565,695)" d="m0 0h8v3l-2 6-9-3-2-2z" fill="#8A4D15"/>
<path transform="translate(878,449)" d="m0 0 2 3-1 14-4 5-2-1 2-9 1-11z" fill="#B77026"/>
<path transform="translate(538,709)" d="m0 0 7 1h16l4 2-9 2h-8l-10-2z" fill="#EFDFC4"/>
<path transform="translate(864,470)" d="m0 0h2l1 5-5 5-4 3-8 1 4-3 7-6z" fill="#F2E9DE"/>
<path transform="translate(594,373)" d="m0 0h1v42l-2 1-2 3-1-6h2l1-33z" fill="#3E1F07"/>
<path transform="translate(821,325)" d="m0 0 5 1 8 4-3 1-1 3-9-3-4-3 3-1z" fill="#391B05"/>
<path transform="translate(756,249)" d="m0 0 4 5 11 8 2 4h-4l-11-10-3-2z" fill="#AA6D30"/>
<path transform="translate(879,560)" d="m0 0 6 1 5-1v3l-5 4-7 2z" fill="#8B4E16"/>
<path transform="translate(647,521)" d="m0 0 10 1-1 4-4 4-6-1 1-5z" fill="#B76F24"/>
<path transform="translate(631,505)" d="m0 0 5 1 6 4 1 3-10 2-1-1 1-8z" fill="#894D16"/>
<path transform="translate(894,427)" d="m0 0h1l-1 11-6 1-3-2v-2h2l1-5 6 1z" fill="#8D5017"/>
<path transform="translate(875,358)" d="m0 0 5 2v-2h5l-1 5-3 3-7-1-2-4h4z" fill="#4C2A0E"/>
<path transform="translate(1051,714)" d="m0 0 3 2-1 6-3 2-5 1h-8l-2-2 2-1 10-1 3-2z" fill="#975D26"/>
<path transform="translate(1012,698)" d="m0 0h10l2 4-5 2h-7l-1-5z" fill="#E2D6C4"/>
<path transform="translate(890,393)" d="m0 0 3 4 2 8-4 1 1 6-3-4-2-7 1-4 2-1z" fill="#422209"/>
<path transform="translate(860,350)" d="m0 0 5 2 2 3 4 8h-6l-2-5-5-6z" fill="#43250B"/>
<path transform="translate(768,287)" d="m0 0 2 2-1 5-4 5-4 1v-2l-4 1 5-5 4-6z" fill="#3B1C06"/>
<path transform="translate(661,570)" d="m0 0 4 2 10 6-3 1 1 2-6-1-7-6 2-1z" fill="#3F1F06"/>
<path transform="translate(777,555)" d="m0 0 5 5-4 2 2 5v5l-3 1-4-15h2l1-2z" fill="#59310F"/>
<path transform="translate(723,524)" d="m0 0 2 1-5 4v3l-9 6-2-2 1-4z" fill="#3F2008"/>
<path transform="translate(807,463)" d="m0 0 7 4 9 11 2 6h-2l-10-13-6-6z" fill="#C78C4A"/>
<path transform="translate(766,232)" d="m0 0h5l-1 3-6 4-4 6-4 1 1-6z" fill="#9B622A"/>
<path transform="translate(928,662)" d="m0 0h3l1 6-5 6h-6l5-9z" fill="#44250B"/>
<path transform="translate(562,659)" d="m0 0 3 1 3 10-2 6-4-1-4-6 6 3-3-12z" fill="#5E3612"/>
<path transform="translate(882,551)" d="m0 0 1 3-4 9-2 6-5-2 6-12z" fill="#3B1D06"/>
<path transform="translate(600,681)" d="m0 0 5 1 2 4-1 5-4-1-5-6z" fill="#8B4E16"/>
<path transform="translate(617,553)" d="m0 0 4 5 5 5 4 5h-4l-5-1-1-4-3-1v-4z" fill="#40240C"/>
<path transform="translate(569,541)" d="m0 0 5 1 6 10 2 4-3 3-8-14v-3z" fill="#F8F2E8"/>
<path transform="translate(639,493)" d="m0 0 2 4 4 10 1 3-2 2h-2l-3-6-2-9z" fill="#3F230B"/>
<path transform="translate(777,278)" d="m0 0 4 1 1 4-4 1-3-1-4 7-4-2 1-5 5-2z" fill="#42240B"/>
<path transform="translate(765,265)" d="m0 0 4 2-1 5-4 6-2-1-1-7z" fill="#FAF7F4"/>
<path transform="translate(572,539)" d="m0 0 5 2 6 8 2 5-4 1-7-11z" fill="#B18D64"/>
<path transform="translate(887,415)" d="m0 0 3 1 1 8h-7l-1-1v-6z" fill="#8B4E16"/>
<path transform="translate(777,329)" d="m0 0 5 5 2 3 2 6h2l1 5-5-5-4-5-6-4 1-4z" fill="#45240A"/>
<path transform="translate(769,267)" d="m0 0 2 4v8l-2 3-3 1-2 2v-8l4-6z" fill="#AA8156"/>
<path transform="translate(725,727)" d="m0 0h5l1 3 2 2h-9l-11-2 1-2z" fill="#41240B"/>
<path transform="translate(908,709)" d="m0 0 9 3 2 1v2l10 1v1h-12l-7-3-5-4z" fill="#5A3515"/>
<path transform="translate(938,665)" d="m0 0h5l1 7-2 8-3-3 1-9-8 2 4-4z" fill="#543214"/>
<path transform="translate(773,465)" d="m0 0 4 2 2 2-2 5h-7l1-8z" fill="#A15F1E"/>
<path transform="translate(612,458)" d="m0 0 2 1-6 7-9 5-5 4-2-1 9-8h2v-2z" fill="#905218"/>
<path transform="translate(835,243)" d="m0 0 7 1 5 5-7 2-7-5 2-1z" fill="#42230B"/>
<path transform="translate(643,583)" d="m0 0 6 1 3 12-3-2v-2l-3-1v-2l-3 2-3-1 3-6z" fill="#95602B"/>
<path transform="translate(827,535)" d="m0 0h3v2l-3 1-1 4-5 4-5 1 2-6z" fill="#4F2E11"/>
<path transform="translate(886,387)" d="m0 0h3l2 6v5l-5 1-3-10z" fill="#48290E"/>
<path transform="translate(760,326)" d="m0 0 5 1 2 2-3 2h-3l-1 4-3-1-1 2-3-4v-2l5 1v-3h2z" fill="#894D15"/>
<path transform="translate(875,309)" d="m0 0h2l5 6 1 3 3 3-5-1-4-5-10-3 3-2z" fill="#4A290D"/>
<path transform="translate(877,715)" d="m0 0h6l5 4 1 5 4 2-7 1v-3l-2-1-5-5z" fill="#966331"/>
<path transform="translate(646,714)" d="m0 0h5l-3 1 1 5-6 3-10-1-3-2 14-1z" fill="#7E4614"/>
<path transform="translate(930,697)" d="m0 0 16 2 2 1v2h-11l-10-3z" fill="#774112"/>
<path transform="translate(524,678)" d="m0 0 4 1 6 9 4 3h-9v-3l-6-1-2-2 8 1-2-4-3-1z" fill="#533011"/>
<path transform="translate(1e3 676)" d="m0 0 5 2v4l-4 5-5 3-2-3 7-6 1-2-3-1z" fill="#4B2B0F"/>
<path transform="translate(569,623)" d="m0 0 3 4 5 10-3 6-5-7 1-3 2-1-3-6z" fill="#3C1E07"/>
<path transform="translate(745,305)" d="m0 0 2 2-1 8-4 4-3 1 3-11z" fill="#46260C"/>
<path transform="translate(903,695)" d="m0 0 1 2-4 4v3l-4 3h-4v-2l-2-1z" fill="#9A7047"/>
<path transform="translate(638,702)" d="m0 0h6v3l6 2-3 3-5-1-4-3-1-3z" fill="#44250B"/>
<path transform="translate(919,554)" d="m0 0h10l8 2v2h-17z" fill="#FAF7F5"/>
<path transform="translate(862,545)" d="m0 0 1 3-6 12-1 4h-2l-1-4v-3l8-11z" fill="#3C1E07"/>
<path transform="translate(774,541)" d="m0 0h1v6h7l-4 5-4-2-3-1-2-5z" fill="#B28E65"/>
<path transform="translate(566,620)" d="m0 0 4 2 1 6 2 6-5-1-2-3-1-9z" fill="#43250C"/>
<path transform="translate(966,558)" d="m0 0h1v12l3-2-1 12-2-1 1-6h-2l-1 5h-1v-10l1-9z" fill="#3B1C05"/>
<path transform="translate(665,362)" d="m0 0v3l-5 5-4 1-3-6 3-2 7 1z" fill="#BB9971"/>
<path transform="translate(795,270)" d="m0 0h5l-1 4-2 4-5-1-4-2v-2h5v-2z" fill="#FAF8F6"/>
<path transform="translate(613,567)" d="m0 0 7 1-1 12-2 2-2-4v-7l1-2-3-1z" fill="#633B16"/>
<path transform="translate(736,404)" d="m0 0h6l-1 4-4 3h-5l-1-5z" fill="#B36C23"/>
<path transform="translate(594,353)" d="m0 0 1 4h2l2-4-1 9-2 8h-1v-6l-1-3h-2l1-7z" fill="#402008"/>
<path transform="translate(1054,717)" d="m0 0 1 2h6l1 4-9 2h-8v-1l7-2z" fill="#E4D7C4"/>
<path transform="translate(580,706)" d="m0 0h5l4 3-3 3h-10l2-4z" fill="#B18D64"/>
<path transform="translate(957,694)" d="m0 0h5l10 6 2 3h-3l-9-5-8-2z" fill="#553315"/>
<path transform="translate(555,684)" d="m0 0h11l4 2-2 1-18 1 2-3z" fill="#43250B"/>
<path transform="translate(582,555)" d="m0 0 3 1v3h-2l-1 4-3 9-2-1 1-10z" fill="#79512B"/>
<path transform="translate(879,380)" d="m0 0h6l3 5-1 3-5 1-3-6z" fill="#44240B"/>
<path transform="translate(899,313)" d="m0 0h2l4 10 1 10-2-4v-5l-5 1-1-7 3 1z" fill="#3F1F06"/>
<path transform="translate(751,536)" d="m0 0 5 1 5 5 2 4-3 1-6-5-3-4z" fill="#49270A"/>
<path transform="translate(696,424)" d="m0 0h5l5 2-2 2-8 3-3-1v-4z" fill="#9B591B"/>
<path transform="translate(630,367)" d="m0 0h10l-2 1v4l-8 1-2-2v-3z" fill="#B6742D"/>
<path transform="translate(774,260)" d="m0 0h6l-1 8-5-1-3-4v-2z" fill="#FAF8F5"/>
<path transform="translate(299,710)" d="m0 0h7l1 4-4 2-5-1-2-1 1-3z" fill="#F3E1C4"/>
<path transform="translate(576,690)" d="m0 0 4 1v2h-15v2h-11l3-2 2-1 14-1z" fill="#804713"/>
<path transform="translate(1271,683)" d="m0 0v3l-8 6-2 2h-4l1-5 2 1 5-5z" fill="#936C44"/>
<path transform="translate(639,548)" d="m0 0 4 1 2 5 7 11 2 4-1 3-7-13-5-6-3-2z" fill="#AE6822"/>
<path transform="translate(658,538)" d="m0 0 7 6 2 4-3-2-9-1v-4z" fill="#BE782C"/>
<path transform="translate(849,531)" d="m0 0h3l1 3h-2l-2 4-2 2-4 2v-5l5-5z" fill="#432208"/>
<path transform="translate(736,527)" d="m0 0h5l12 8-4 2-12-8z" fill="#402209"/>
<path transform="translate(694,306)" d="m0 0 1 2-5 9-1 4h-4l3-10z" fill="#985D24"/>
<path transform="translate(594,697)" d="m0 0 4 2h-4v2l-5 2-1 2 3 1-4 1v-2h-2v-2l-2-1 7-4z" fill="#B08B62"/>
<path transform="translate(859,521)" d="m0 0m-2 1 2 1-3 6-3 4-5-1 2-4z" fill="#4B280B"/>
<path transform="translate(763,418)" d="m0 0 3 3-2 5 1 8-4-2-2-6z" fill="#C38847"/>
<path transform="translate(805,331)" d="m0 0 12 5 1 2h-7l-4-1v5h-1z" fill="#98581A"/>
<path transform="translate(894,312)" d="m0 0 2 2 4 11-1 4-7-10z" fill="#F3E8D8"/>
<path transform="translate(859,307)" d="m0 0h11l5 2v1l-5 1h-7l-7-2z" fill="#45260D"/>
<path transform="translate(966,683)" d="m0 0 2 1-2 4 5 1v3l-3 1-6-3-2-3 2-2z" fill="#5D3512"/>
<path transform="translate(978,674)" d="m0 0 2 1-1 3-14 7h-3l8-7z" fill="#4D2C10"/>
<path transform="translate(863,518)" d="m0 0h3l1 4-10 7-2-1 5-8z" fill="#3D1E06"/>
<path transform="translate(924,495)" d="m0 0h2l4 10-4 2-3-2-1-8z" fill="#482B11"/>
<path transform="translate(391,417)" d="m0 0m-2 1 2 1-9 9-8 10-4 3 2-4 9-11z" fill="#F3ECE3"/>
<path transform="translate(808,342)" d="m0 0h1v7l-4 9h-1l-1-5v-7l2 1z" fill="#A4611E"/>
<path transform="translate(787,327)" d="m0 0 5 1 5 5v2l-7-1-1 4z" fill="#AC6620"/>
<path transform="translate(907,724)" d="m0 0 7 1 5 3 1 7-5 2-2-3 3-1 1-3-4-3-6-2z" fill="#8F5C2C"/>
<path transform="translate(550,573)" d="m0 0h2l1 2 1-2h2l1 12h-1l-2-7v13l-2-4z" fill="#3A1C06"/>
<path transform="translate(896,565)" d="m0 0 3 1 4 6-1 2-4-2h-3l-3-3z" fill="#43240B"/>
<path transform="translate(656,533)" d="m0 0 5 2 10 8v3l-6-4-5-3-4-4z" fill="#97571A"/>
<path transform="translate(935,525)" d="m0 0 4 2 3 3-2 4-4 4z" fill="#DBC2A0"/>
<path transform="translate(781,280)" d="m0 0 10 5v2l-6 1-6-4z" fill="#3F1F06"/>
<path transform="translate(608,706)" d="m0 0 3 3v2l7 2 10 1v1h-11l-3 1-6-3z" fill="#8D5927"/>
<path transform="translate(998,679)" d="m0 0h6l2 3-5 5h-3l-1-7z" fill="#B6946C"/>
<path transform="translate(725,474)" d="m0 0 4 1 1 3-2 4-4-1-4-3v-2z" fill="#A96420"/>
<path transform="translate(766,390)" d="m0 0 5 5 1 5h-2v3l-4-1z" fill="#6C3B10"/>
<path transform="translate(509,359)" d="m0 0 4 2 4 3 3 4-8-1-4-5z" fill="#45270E"/>
<path transform="translate(790,314)" d="m0 0 4 2 3 2v2l-6 2-4-3 2-4z" fill="#391B05"/>
<path transform="translate(948,695)" d="m0 0 10 1 4 1v4h-9v-2l-2-1 1-2z" fill="#F2E0C2"/>
<path transform="translate(779,577)" d="m0 0 5 3 7 7 1 3-5-2-8-8z" fill="#F8F4EE"/>
<path transform="translate(646,559)" d="m0 0 4 5 3 6-1 2-8-6v-3h2z" fill="#9C5A1B"/>
<path transform="translate(720,469)" d="m0 0h4l2 5-2 2-5 1-1-7z" fill="#723E11"/>
<path transform="translate(381,403)" d="m0 0 2 1zm-2 1h2l-2 4-9 9-4 2 2-4z" fill="#46270E"/>
<path transform="translate(528,368)" d="m0 0 11 1 1 2 3 2h-12v-3h-3z" fill="#3D1F08"/>
<path transform="translate(691,721)" d="m0 0 7 1 2 2 3 2-2 2-11-3z" fill="#41230B"/>
<path transform="translate(677,574)" d="m0 0h3l1 6-2 2h-8v-3l2-1 2 1v-2h2z" fill="#46270D"/>
<path transform="translate(777,560)" d="m0 0h6l4 5 1 4h-2l-1 2-4-6z" fill="#3E2007"/>
<path transform="translate(904,457)" d="m0 0 8 6 6 7-8-4v-2l-4-1-4-4z" fill="#B67027"/>
<path transform="translate(801,325)" d="m0 0 11 2v3h-2v2l-6 1z" fill="#723E11"/>
<path transform="translate(341,720)" d="m0 0 17 2-4 2h-16l4-2z" fill="#F4E2C5"/>
<path transform="translate(554,647)" d="m0 0 4 2 6 9-3 2-7-10z" fill="#48290E"/>
<path transform="translate(926,548)" d="m0 0 5 1-1 4-14-2 2-2z" fill="#3F230B"/>
<path transform="translate(796,432)" d="m0 0 2 2v8l-2 3-3-1 2-10z" fill="#8B4E16"/>
<path transform="translate(730,286)" d="m0 0 4 2 6 7v3l-6-2v-2l-2-1z" fill="#FAF6F0"/>
<path transform="translate(994,713)" d="m0 0h5l2 2h3l-1 3-10 1z" fill="#F4E2C5"/>
<path transform="translate(795,598)" d="m0 0h1v7l-7 7h-2l2-6 3-3 1 1z" fill="#7C491B"/>
<path transform="translate(800,557)" d="m0 0v3l-2 5-6 5v-3l1-4z" fill="#3E2008"/>
<path transform="translate(700,542)" d="m0 0 2 1-1 3-5 4h-3l-1-4h2v-2z" fill="#44250C"/>
<path transform="translate(917,494)" d="m0 0 3 3 4 8-1 3-4-1v-6l-3-5z" fill="#B46D24"/>
<path transform="translate(899,438)" d="m0 0 4 1 1 4v3l-1 2-5-2-1-5z" fill="#45280F"/>
<path transform="translate(589,727)" d="m0 0 4 2-2 5h-5l-1-5z" fill="#F4E2C5"/>
<path transform="translate(887,718)" d="m0 0h7l1 4-2 3h-5z" fill="#F4E2C5"/>
<path transform="translate(939,677)" d="m0 0 2 4-4 6-4 2v-3z" fill="#41220A"/>
<path transform="translate(648,376)" d="m0 0m-1 1m-1 1m-6 1 4 2-4 7-3-3-1-3z" fill="#3F230B"/>
<path transform="translate(517,341)" d="m0 0v3l-5 8-3 1-2-1 2-6 6-3z" fill="#3E2008"/>
<path transform="translate(600,334)" d="m0 0 3 1 2-1-3 11-2 1 1-6h-3l-1 3 1-7z" fill="#3E1F08"/>
<path transform="translate(871,301)" d="m0 0h7l4 3v2h-3l-1 5-1-2h-6v-1l5-1 1-4-6-1z" fill="#855120"/>
<path transform="translate(819,286)" d="m0 0h5l1 3-7 3h-5l3-5z" fill="#412108"/>
<path transform="translate(904,725)" d="m0 0h5l-5 4-3 6h-4l1-5z" fill="#8C531F"/>
<path transform="translate(368,554)" d="m0 0h1v10h-7l2-4z" fill="#EEE6DC"/>
<path transform="translate(606,457)" d="m0 0 3 2v2l-4 3h-2l-1 2-4-1 5-5z" fill="#40230B"/>
<path transform="translate(739,289)" d="m0 0h8l4 2v2l-8 1-4-3z" fill="#F9F3EC"/>
<path transform="translate(563,680)" d="m0 0 5 1 6 4-3 1-14-2v-1l5-1z" fill="#EEE4D6"/>
<path transform="translate(1129,553)" d="m0 0h1v10h-7l4-7z" fill="#F8F4F0"/>
<path transform="translate(846,541)" d="m0 0 2 1 5 5 1 2-4 1-4-3-3 4 1-5z" fill="#AC6721"/>
<path transform="translate(860,543)" d="m0 0 4 1-1 2-5 5-3 2v-2l-2-1 5-5z" fill="#894D16"/>
<path transform="translate(683,539)" d="m0 0 3 4 3 8v8l-3-3-1-8-3-7z" fill="#B06B24"/>
<path transform="translate(553,526)" d="m0 0h1l-1 14-3-3h-1v-6l1-2h2z" fill="#45260D"/>
<path transform="translate(1146,506)" d="m0 0h2v18h-1l-1-13-6 5 1-4z" fill="#5C3311"/>
<path transform="translate(600,346)" d="m0 0 1 3-1 4h-2l-1 4h-2l-2-5 1-3h4z" fill="#45240A"/>
<path transform="translate(546,317)" d="m0 0h14l-3 3-9 2v-3z" fill="#4F2B0D"/>
<path transform="translate(923,669)" d="m0 0v3l1 1h2l-2 4-3 2v-2l-6 1 6-7z" fill="#3A1C06"/>
<path transform="translate(586,665)" d="m0 0 5 2 1 3-1 3h-2l-1 3-2-5z" fill="#AA865D"/>
<path transform="translate(777,562)" d="m0 0 4 2 4 5v6h-2l-2-4z" fill="#E8D3B3"/>
<path transform="translate(672,545)" d="m0 0 9 2 4-1-2 5h-7z" fill="#99581A"/>
<path transform="translate(653,544)" d="m0 0 11 1 1 2-4 3-4-1-4-4z" fill="#B76F24"/>
<path transform="translate(830,536)" d="m0 0 4 1 1 3 2 1-1 2-5-1-5-2 1-3z" fill="#46260C"/>
<path transform="translate(957,515)" d="m0 0 3 1v2l2 1-6 3 1-4-5 2zm-7 5 2 1-4 4-2-1z" fill="#522F11"/>
<path transform="translate(763,384)" d="m0 0 4 2v11l-2 2-2-6z" fill="#A6621F"/>
<path transform="translate(738,342)" d="m0 0h10l-2 4-5 1-1 2z" fill="#8B4E16"/>
<path transform="translate(544,318)" d="m0 0h5l-1 4-9 4-3-1 4-1 2-4z" fill="#422309"/>
<path transform="translate(759,312)" d="m0 0 7 2 2 5-2 2-5-4z" fill="#723E11"/>
<path transform="translate(299,708)" d="m0 0h6l4 4-2 4-4-1 3-1v-3h-7l-4 3 1-5z" fill="#B08B60"/>
<path transform="translate(521,682)" d="m0 0h7l2 5-13-2-2-2h6z" fill="#AD885F"/>
<path transform="translate(966,573)" d="m0 0h2v6l1 2h-2l-1 5-2-1-1-9z" fill="#42250C"/>
<path transform="translate(644,552)" d="m0 0 5 3 5 6-4 2-6-9z" fill="#3E1F06"/>
<path transform="translate(931,550)" d="m0 0 1 2h4l1 3h-8l-10-2 1-2 10 1z" fill="#4F2D11"/>
<path transform="translate(872,514)" d="m0 0 3 1-2 3h-2l-1 3-3 1-2-5z" fill="#48260A"/>
<path transform="translate(807,490)" d="m0 0h2l1 2 6 3-2 1-9-1-2-1v-2l-3-1z" fill="#43240A"/>
<path transform="translate(861,299)" d="m0 0 9 1-1 2-8 2-4 2 2-5z" fill="#9F6F3F"/>
<path transform="translate(857,298)" d="m0 0h4l-4 8-7-6h3z" fill="#F4E2C5"/>
<path transform="translate(624,721)" d="m0 0h6v3l-1 2-7-1-1-3z" fill="#F4E2C5"/>
<path transform="translate(602,712)" d="m0 0 3 1v5h-13v-1l7-2z" fill="#B18D64"/>
<path transform="translate(579,703)" d="m0 0 2 1-9 9-2-4 5-4z" fill="#E3CEAF"/>
<path transform="translate(536,351)" d="m0 0 10 2v1l-9 1-1 1h-6l4-4z" fill="#AA7D4E"/>
<path transform="translate(574,658)" d="m0 0h1l1 12-3 1-1-3v-8z" fill="#4B290C"/>
<path transform="translate(639,588)" d="m0 0 3 1-1 3-8 7-2 1 1-4z" fill="#B0895E"/>
<path transform="translate(691,567)" d="m0 0 1 3-3 3-5-1-1-3z" fill="#B99266"/>
<path transform="translate(581,519)" d="m0 0h3l-1 4-5 5v-4l-2-1z" fill="#533114"/>
<path transform="translate(960,514)" d="m0 0 5 1 3 5v6h-1l-3-9v6l-2-3v-2h-2l-1-3z" fill="#3F1F07"/>
<path transform="translate(728,469)" d="m0 0 4 1 1 5 2 1v2l-6-1-3-7z" fill="#41240B"/>
<path transform="translate(798,333)" d="m0 0 4 4 1 9-3-2-3-9z" fill="#A4601E"/>
<path transform="translate(684,323)" d="m0 0 3 3-4 2-9 13-1-2 10-15z" fill="#8D5622"/>
<path transform="translate(980,661)" d="m0 0h3l-2 5-5 4-2-3z" fill="#543112"/>
<path transform="translate(912,480)" d="m0 0 4 1 3 3-1 4-5-2z" fill="#42260D"/>
<path transform="translate(840,476)" d="m0 0h4l-1 5h-6l-4-4 4 1z" fill="#99591B"/>
<path transform="translate(608,397)" d="m0 0 2 1 2 4-4 1-2 4-3 1 2-6z" fill="#9A5D23"/>
<path transform="translate(768,280)" d="m0 0 1 3-4 8-3-3 1-5 5-1z" fill="#E8D3B3"/>
<path transform="translate(541,724)" d="m0 0h2v5l-4 2-11-2v-1l10-1z" fill="#9A6735"/>
<path transform="translate(917,708)" d="m0 0h5l1 5h-6l-4-3z" fill="#B18D64"/>
<path transform="translate(580,702)" d="m0 0 5 1v2h2l-1 3-6-1-4 3 2-4z" fill="#855222"/>
<path transform="translate(955,518)" d="m0 0h2l-2 5-6 5-2-2 5-6z" fill="#43240A"/>
<path transform="translate(820,422)" d="m0 0 3 1 3 4-1 4-2 2-3-8z" fill="#C17F37"/>
<path transform="translate(853,293)" d="m0 0 5 5-5 3-3-2 2-4z" fill="#B18D64"/>
<path transform="translate(791,286)" d="m0 0 5 2 1 4h-4l-6-3z" fill="#44250B"/>
<path transform="translate(770,234)" d="m0 0 8 1-4 4-8-1z" fill="#FAF7F6"/>
<path transform="translate(1037,722)" d="m0 0h11v2l-3 1h-8l-2-2z" fill="#8F541E"/>
<path transform="translate(599,501)" d="m0 0h2l-2 6-1 7-4 1 1-6z" fill="#834914"/>
<path transform="translate(643,382)" d="m0 0h2l-1 5-7 8v-3l5-9z" fill="#723E11"/>
<path transform="translate(521,360)" d="m0 0h6l2 5-7-1-2-2z" fill="#B18D64"/>
<path transform="translate(685,321)" d="m0 0h4l3 5-2 3h-2l-3-5z" fill="#46260B"/>
<path transform="translate(731,284)" d="m0 0 12 9v2l-6-2-6-7z" fill="#B16F2B"/>
<path transform="translate(755,244)" d="m0 0h3l1 2-4 7-3-1 1-5z" fill="#884F1A"/>
<path transform="translate(528,716)" d="m0 0h7l-2 2-8 2-5 4v-5z" fill="#9E6B38"/>
<path transform="translate(654,708)" d="m0 0 9 3v3l-6-1-5-4z" fill="#44240A"/>
<path transform="translate(268,695)" d="m0 0h2l3 3v3h-13v-1l7-1z" fill="#48290F"/>
<path transform="translate(600,681)" d="m0 0h3v8l-4-2-2-4z" fill="#B18D64"/>
<path transform="translate(773,644)" d="m0 0 2 1-1 13-2 2v-15z" fill="#BB7931"/>
<path transform="translate(871,575)" d="m0 0m-1 1m-1 1m-2 1 4 2-1 2-5 2-4 1v-3z" fill="#D3B38B"/>
<path transform="translate(674,565)" d="m0 0h3v7l-8-4 2-2z" fill="#8E5017"/>
<path transform="translate(935,520)" d="m0 0 5 1 3 4-1 4-4-3v-2h-2z" fill="#513014"/>
<path transform="translate(357,456)" d="m0 0v3l-8 10-3 3 1-4 9-11z" fill="#F3EDE4"/>
<path transform="translate(770,393)" d="m0 0 7 3-2 3-1 9h-1z" fill="#BE782B"/>
<path transform="translate(853,357)" d="m0 0 5 1v3l-5 2-4-4z" fill="#B66E23"/>
<path transform="translate(513,675)" d="m0 0 9 1 2 4-12-2z" fill="#624223"/>
<path transform="translate(585,653)" d="m0 0 4 2 5 6-1 2-3-3-5-2z" fill="#3E1E06"/>
<path transform="translate(586,550)" d="m0 0 4 4 4 2-9 2-2-2 4-1z" fill="#432107"/>
<path transform="translate(665,353)" d="m0 0 4 5 1 2-7-2-4 5-2-1z" fill="#955B23"/>
<path transform="translate(784,331)" d="m0 0 3 2v10l-3-3-1-7z" fill="#854A14"/>
<path transform="translate(886,722)" d="m0 0 1 3-2 3-10-1v-1l11-2z" fill="#764315"/>
<path transform="translate(929,712)" d="m0 0h2l-1 4h-12l1-2z" fill="#3F220B"/>
<path transform="translate(958,686)" d="m0 0 3 1v2l-9 2v-2l-2-1z" fill="#4A2A10"/>
<path transform="translate(668,550)" d="m0 0 4 4 4 8-1 4-3-5-3-8z" fill="#B06B24"/>
<path transform="translate(956,523)" d="m0 0 1 2-5 9-3 2-3-1 6-5 3-6z" fill="#AC6F2E"/>
<path transform="translate(829,466)" d="m0 0 4 4-1 4-4-1-1-5z" fill="#723E11"/>
<path transform="translate(842,346)" d="m0 0 4 1 4 2 3 1-1 2-6-1-4-4z" fill="#BB7529"/>
<path transform="translate(849,342)" d="m0 0 6 1 1 4-2 1-5-3z" fill="#40230B"/>
<path transform="translate(525,329)" d="m0 0 2 1-10 10-2-2z" fill="#47270C"/>
<path transform="translate(863,302)" d="m0 0 5 1-2 2 4 2-11-1z" fill="#F4E2C5"/>
<path transform="translate(613,654)" d="m0 0 4 2 1 4-5 1-1-4z" fill="#B18D64"/>
<path transform="translate(794,591)" d="m0 0 2 2-1 7-2 5h-1l1-10z" fill="#412108"/>
<path transform="translate(618,580)" d="m0 0 3 3 3 7-3 1-4-9z" fill="#B2722E"/>
<path transform="translate(768,551)" d="m0 0 4 1h3l2 2-1 3-3 1-1-3z" fill="#3B1D06"/>
<path transform="translate(918,506)" d="m0 0 3 3-2 1-2 8h-2v-7l2-1z" fill="#8B4E16"/>
<path transform="translate(754,469)" d="m0 0 4 2-1 5-5-2 1-4z" fill="#814714"/>
<path transform="translate(831,275)" d="m0 0h2l-1 4-2-1-12 2 1-2z" fill="#8A521E"/>
<path transform="translate(686,723)" d="m0 0h4v2l5 1v2l-11-2z" fill="#4A2609"/>
<path transform="translate(904,705)" d="m0 0h5v3l-1 2-5-1-3-1v-2z" fill="#723E11"/>
<path transform="translate(576,659)" d="m0 0 6 1 5 5-3 2-4-5z" fill="#643710"/>
<path transform="translate(783,626)" d="m0 0h1v8l-4 3v-3l2-7z" fill="#A86E33"/>
<path transform="translate(617,553)" d="m0 0 4 5 1 4-5 1 1-2z" fill="#3F230B"/>
<path transform="translate(641,546)" d="m0 0 9 5-1 3-6-1z" fill="#874C15"/>
<path transform="translate(582,524)" d="m0 0h3l-1 6h-5l-2 1 2-4z" fill="#E5CFAF"/>
<path transform="translate(930,518)" d="m0 0 4 1 3 3-5 1-1 2z" fill="#41230B"/>
<path transform="translate(875,514)" d="m0 0 4 1 5 1v1l-13 3v-2z" fill="#391B05"/>
<path transform="translate(813,497)" d="m0 0 5 1-5 4-6 4-3-1 8-5z" fill="#B87228"/>
<path transform="translate(699,447)" d="m0 0h8l-1 5-6-1-2-2z" fill="#41230B"/>
<path transform="translate(887,344)" d="m0 0h2l-1 7-5-1v-4z" fill="#4E2B0E"/>
<path transform="translate(836,344)" d="m0 0 5 3v-2l2 1 1 4-7-1z" fill="#9C5A1B"/>
<path transform="translate(609,698)" d="m0 0 8 1v2l-7 2-3 4 1-5z" fill="#3C1F08"/>
<path transform="translate(1257,686)" d="m0 0h2l-1 5-1 3 2 1-3 2-1-1v-6z" fill="#6A3D16"/>
<path transform="translate(963,667)" d="m0 0 2 4-3 4-2 2h-3l2-4 3-1z" fill="#8A4F18"/>
<path transform="translate(780,569)" d="m0 0 3 1v5h2l-1 4-5-5z" fill="#93561B"/>
<path transform="translate(713,530)" d="m0 0h2v4 2l-4 2-2-2 1-4z" fill="#4E2D11"/>
<path transform="translate(624,408)" d="m0 0 5 1-1 4h-5l-1-3h2z" fill="#40240C"/>
<path transform="translate(672,341)" d="m0 0 1 3-5 8-2 1 1-4z" fill="#9D6936"/>
<path transform="translate(892,333)" d="m0 0 6 1 2 4-8-1-2-2h2z" fill="#46260B"/>
</svg>
